<?xml version="1.0" encoding="utf-8"?>
<!-- Generator: Adobe Illustrator 25.0.0, SVG Export Plug-In . SVG Version: 6.00 Build 0)  -->
<svg version="1.1" id="Layer_1" xmlns="http://www.w3.org/2000/svg" xmlns:xlink="http://www.w3.org/1999/xlink" x="0px" y="0px"
	 viewBox="0 0 352 92" style="enable-background:new 0 0 352 92;" xml:space="preserve">
<style type="text/css">
	.st0{fill:#9E9FB4;}
	.st1{fill:#034C79;}
	.st2{fill:#BE1E2D;}
	.st3{fill:none;stroke:#9E9FB4;stroke-miterlimit:10;}
	.st4{fill:#231F20;}
	.st5{fill:none;stroke:#231F20;stroke-miterlimit:10;}
	.st6{font-family:'TrajanPro3-Regular';}
	.st7{font-size:7.0686px;}
	.st8{opacity:0.75;fill:#F16522;}
	.st9{opacity:0.75;fill:#58595B;}
	.st10{fill:#58595B;}
	.st11{fill:#F16522;}
	.st12{opacity:0.75;fill:#9E9FB4;}
	.st13{fill:#F6921E;}
	.st14{fill:none;}
</style>
<g>
	<path class="st0" d="M170.7,48.85c0-0.43,0-0.72,0-1.01c0-12.9,0.01-25.81-0.03-38.71c0-0.92,0.26-1.09,1.11-1.07
		c2.24,0.06,4.48,0.07,6.72,0c0.99-0.03,1.23,0.32,1.23,1.24c-0.03,6.62-0.02,13.24-0.02,19.86c0,3.18-0.01,6.35,0.01,9.53
		c0,0.77-0.16,1.45-0.72,2c-2.6,2.6-5.2,5.2-7.8,7.8C171.1,48.59,170.95,48.67,170.7,48.85z"/>
	<path class="st0" d="M184.03,65.23c2.04-2.28,2.36-4.87,2.35-7.6c-0.04-7.63,0-15.25-0.03-22.88c-0.01-1.12,0.33-1.96,1.13-2.74
		c2.6-2.55,5.15-5.15,7.92-7.94c0,0.59,0,0.94,0,1.28c0,10.07-0.05,20.13,0.03,30.2c0.03,3.58-1.52,6.03-4.6,7.67
		C188.75,64.32,186.56,64.97,184.03,65.23z"/>
	<path class="st0" d="M175.17,54.76c2.48,0,4.45,1.94,4.47,4.39c0.02,2.53-1.93,4.53-4.44,4.55c-2.5,0.02-4.52-1.97-4.52-4.46
		C170.68,56.72,172.65,54.76,175.17,54.76z"/>
	<path class="st0" d="M163.7,8.08c-4.42,2.41-6.26,4.37-8.68,8.65c0-2.82,0.01-5.48-0.01-8.15c0-0.5,0.26-0.51,0.63-0.51
		C158.23,8.08,160.83,8.08,163.7,8.08z"/>
	<path class="st0" d="M186.88,8.08c2.62,0,5.25,0.01,7.87-0.01c0.46,0,0.64,0.14,0.64,0.63c-0.02,2.64-0.01,5.27-0.09,7.97
		C193.38,12.93,190.68,9.99,186.88,8.08z"/>
	<text transform="matrix(1 0 0 1 156.1586 81.0377)" class="st0 st6 st7">VENTURES</text>
</g>
</svg>
