<?xml version="1.0" encoding="utf-8"?>
<!-- Generator: Adobe Illustrator 25.0.0, SVG Export Plug-In . SVG Version: 6.00 Build 0)  -->
<svg version="1.1" id="Layer_1" xmlns="http://www.w3.org/2000/svg" xmlns:xlink="http://www.w3.org/1999/xlink" x="0px" y="0px"
	 viewBox="0 0 352 92" style="enable-background:new 0 0 352 92;" xml:space="preserve">
<style type="text/css">
	.st0{fill:#9E9FB4;}
	.st1{fill:#034C79;}
	.st2{fill:#BE1E2D;}
	.st3{fill:none;stroke:#9E9FB4;stroke-miterlimit:10;}
	.st4{fill:#231F20;}
	.st5{fill:none;stroke:#231F20;stroke-miterlimit:10;}
	.st6{opacity:0.75;fill:#F16522;}
	.st7{opacity:0.75;fill:#58595B;}
	.st8{fill:#58595B;}
	.st9{fill:#F16522;}
	.st10{opacity:0.75;fill:#9E9FB4;}
	.st11{fill:#F6921E;}
	.st12{fill:none;}
</style>
<g>
	<g>
		<g>
			<path d="M143.83,77.94h-0.15c-0.02,0-0.09,0.02-0.2,0.07s-0.24,0.09-0.38,0.13c-0.15,0.04-0.3,0.08-0.47,0.13
				c-0.92,0.27-1.64,0.4-2.15,0.4c-0.9,0-1.86-0.19-2.88-0.58c-0.92-0.34-1.74-1.01-2.44-2.01c-0.17-0.27-0.35-0.62-0.55-1.08
				c-0.19-0.45-0.32-0.82-0.36-1.11c-0.17-0.44-0.26-1.03-0.26-1.79c0-1.65,0.58-3.09,1.75-4.3c0.41-0.44,1.08-0.86,2.01-1.28
				c0.8-0.32,1.65-0.47,2.55-0.47h0.4c0.12,0,0.24,0.01,0.35,0.04c0.11,0.02,0.41,0.09,0.89,0.18c0.27,0,0.61,0.07,1.02,0.22
				c0.41,0.15,0.7,0.24,0.87,0.29v2.77h-1.09l-0.22-1.64c0-0.02-0.02-0.05-0.07-0.07c-0.05-0.02-0.1-0.08-0.15-0.16
				c-0.05-0.08-0.1-0.13-0.15-0.13c-0.05,0-0.12-0.05-0.22-0.15c-0.1,0-0.18-0.02-0.24-0.05c-0.06-0.04-0.14-0.07-0.24-0.09
				l-0.47-0.11c-0.12-0.05-0.34-0.07-0.66-0.07c-0.9,0-1.71,0.26-2.44,0.77c-0.22,0.15-0.41,0.34-0.58,0.58
				c-0.36,0.36-0.68,0.92-0.95,1.68c-0.07,0.34-0.15,0.68-0.22,1.02s-0.11,0.73-0.11,1.17c0,0.53,0.11,1.28,0.33,2.22
				c0.24,0.68,0.56,1.24,0.95,1.68c0.32,0.49,0.78,0.86,1.39,1.13c0.39,0.2,1.02,0.29,1.9,0.29h0.51l0.33-0.07
				c0.07,0,0.13-0.02,0.18-0.07c0.17,0,0.28-0.02,0.33-0.07c0.05,0,0.07-0.02,0.07-0.07c0.17,0,0.26-0.06,0.26-0.18
				c0.07,0,0.11-0.05,0.11-0.15l0.44-1.97h1.02V77.94z"/>
			<path d="M156.66,72.39c0,0.78-0.13,1.59-0.4,2.44l-0.51,1.06c-0.32,0.61-0.83,1.18-1.53,1.71c-0.29,0.22-0.69,0.45-1.2,0.69
				c-0.51,0.24-1.23,0.36-2.15,0.36c-1.8,0-3.2-0.58-4.19-1.75c-0.29-0.27-0.52-0.58-0.69-0.93c-0.17-0.35-0.33-0.71-0.47-1.08
				c-0.27-0.7-0.4-1.54-0.4-2.52c0-1.9,0.52-3.39,1.57-4.48c0.53-0.56,1.12-1,1.75-1.31c0.75-0.32,1.58-0.47,2.48-0.47
				c0.9,0,1.6,0.12,2.11,0.36c0.73,0.34,1.42,0.81,2.08,1.42c0.46,0.66,0.85,1.34,1.17,2.04C156.53,70.85,156.66,71.66,156.66,72.39
				z M154.58,72.39c0-1.63-0.32-2.87-0.95-3.72c-0.17-0.24-0.34-0.46-0.51-0.66c-0.17-0.19-0.39-0.35-0.66-0.47
				c-0.39-0.32-0.91-0.47-1.57-0.47c-0.66,0-1.22,0.16-1.68,0.47c-1.12,0.53-1.82,1.8-2.11,3.79c-0.05,0.34-0.07,0.68-0.07,1.02
				c0,1.36,0.32,2.59,0.95,3.68c0.27,0.44,0.68,0.84,1.24,1.2c0.49,0.24,0.96,0.36,1.42,0.36c0.73,0,1.36-0.12,1.9-0.36
				c0.56-0.39,0.97-0.81,1.24-1.28c0.58-1.02,0.87-2.21,0.87-3.57H154.58z"/>
			<path d="M167.52,77.94h-0.15c-0.02,0-0.09,0.02-0.2,0.07c-0.11,0.05-0.24,0.09-0.38,0.13c-0.15,0.04-0.3,0.08-0.47,0.13
				c-0.92,0.27-1.64,0.4-2.15,0.4c-0.9,0-1.86-0.19-2.88-0.58c-0.92-0.34-1.74-1.01-2.44-2.01c-0.17-0.27-0.35-0.62-0.55-1.08
				c-0.19-0.45-0.32-0.82-0.36-1.11c-0.17-0.44-0.26-1.03-0.26-1.79c0-1.65,0.58-3.09,1.75-4.3c0.41-0.44,1.08-0.86,2.01-1.28
				c0.8-0.32,1.65-0.47,2.55-0.47h0.4c0.12,0,0.24,0.01,0.35,0.04c0.11,0.02,0.41,0.09,0.89,0.18c0.27,0,0.61,0.07,1.02,0.22
				c0.41,0.15,0.7,0.24,0.87,0.29v2.77h-1.09l-0.22-1.64c0-0.02-0.02-0.05-0.07-0.07c-0.05-0.02-0.1-0.08-0.15-0.16
				c-0.05-0.08-0.1-0.13-0.15-0.13c-0.05,0-0.12-0.05-0.22-0.15c-0.1,0-0.18-0.02-0.24-0.05c-0.06-0.04-0.14-0.07-0.24-0.09
				l-0.47-0.11c-0.12-0.05-0.34-0.07-0.66-0.07c-0.9,0-1.71,0.26-2.44,0.77c-0.22,0.15-0.41,0.34-0.58,0.58
				c-0.36,0.36-0.68,0.92-0.95,1.68c-0.07,0.34-0.15,0.68-0.22,1.02s-0.11,0.73-0.11,1.17c0,0.53,0.11,1.28,0.33,2.22
				c0.24,0.68,0.56,1.24,0.95,1.68c0.32,0.49,0.78,0.86,1.39,1.13c0.39,0.2,1.02,0.29,1.9,0.29h0.51l0.33-0.07
				c0.07,0,0.13-0.02,0.18-0.07c0.17,0,0.28-0.02,0.33-0.07c0.05,0,0.07-0.02,0.07-0.07c0.17,0,0.26-0.06,0.26-0.18
				c0.07,0,0.11-0.05,0.11-0.15l0.44-1.97h1.02V77.94z"/>
			<path d="M171.83,77.24c0,0.15,0.1,0.22,0.29,0.22l1.02,0.11v0.77h-4.52v-0.77l0.98-0.11c0.15,0,0.24-0.02,0.29-0.07
				c0-0.07,0.02-0.16,0.07-0.26v-9.51c0-0.15-0.02-0.26-0.07-0.33c-0.05-0.02-0.15-0.04-0.29-0.04l-0.98-0.11v-0.8h4.59v0.8
				l-1.09,0.11c-0.12,0-0.2,0.02-0.24,0.07c-0.04,0.05-0.05,0.15-0.05,0.29v4.67h0.51l3.97-4.74v-0.26
				c-0.05-0.02-0.1-0.04-0.15-0.04l-0.87-0.18v-0.73h3.72v0.73c-0.12,0.05-0.22,0.07-0.29,0.07h-0.22
				c-0.15,0.07-0.29,0.11-0.44,0.11s-0.22,0.01-0.22,0.04l-3.68,4.37l3.97,5.8l1.38,0.11v0.77h-3.21v-0.55l-3.35-4.78h-1.13V77.24z"
				/>
			<path d="M188.85,67.55c0-0.1-0.01-0.18-0.04-0.26c-0.05,0-0.07-0.01-0.07-0.02s-0.04-0.02-0.11-0.02h-2.63v9.88
				c0,0.05,0.02,0.09,0.07,0.13c0.05,0.04,0.08,0.08,0.09,0.13c0.01,0.05,0.1,0.07,0.27,0.07l1.13,0.11v0.77h-4.88v-0.77l1.2-0.11
				c0.15,0,0.22-0.02,0.22-0.07c0.12-0.07,0.18-0.16,0.18-0.26v-9.88h-2.63c-0.05,0-0.07,0.01-0.07,0.02s-0.04,0.02-0.11,0.02
				c-0.05,0.07-0.07,0.16-0.07,0.26l-0.22,1.64h-1.06v-2.84h10.14v2.84h-1.06L188.85,67.55z"/>
			<path d="M198.55,77.57l1.02-0.11c0.05,0,0.11-0.02,0.18-0.07v-0.26l-1.2-3.24h-4.12l-1.2,3.24v0.11c0,0.05,0.04,0.1,0.11,0.15
				v0.04c0,0.02,0.02,0.04,0.07,0.04h0.04l1.02,0.11v0.77h-3.54v-0.77l1.02-0.18l4.12-11.34h1.39l4.19,11.01
				c0,0.07,0.01,0.13,0.02,0.16c0.01,0.04,0.02,0.07,0.02,0.09c0.07,0.05,0.13,0.07,0.16,0.07s0.07,0.02,0.09,0.07l0.8,0.11v0.77
				h-4.19V77.57z M194.72,73.12h3.5l-1.71-4.78L194.72,73.12z"/>
			<path d="M207.04,67.4c-0.07,0-0.11,0.07-0.11,0.22v9.51c0,0.07,0.04,0.16,0.11,0.26c0,0.05,0.08,0.07,0.26,0.07l1.13,0.11v0.77
				h-4.78v-0.77l1.09-0.11h0.18c0.05,0,0.07-0.02,0.07-0.07c0.05-0.05,0.07-0.13,0.07-0.26V67.4c-0.1-0.1-0.21-0.15-0.33-0.15
				l-1.09-0.11v-0.8h4.78v0.8l-1.13,0.11C207.13,67.25,207.04,67.3,207.04,67.4z"/>
			<path d="M210.72,67.62c-0.07-0.22-0.14-0.33-0.2-0.35c-0.06-0.01-0.12-0.02-0.16-0.02l-1.06-0.11v-0.8h4.56v0.8l-0.98,0.11
				c-0.12,0-0.19,0.05-0.22,0.15c-0.05,0-0.07,0.07-0.07,0.22v9.84h3.79c0.1,0,0.16-0.04,0.18-0.13s0.07-0.15,0.15-0.2l0.22-2.11
				h1.09v3.32h-8.71v-0.77l1.06-0.11c0.15,0,0.22-0.02,0.22-0.05s0.01-0.07,0.04-0.09c0.07-0.02,0.11-0.08,0.11-0.18V67.62z"/>
		</g>
	</g>
	<g>
		<g>
			<path d="M165.9,57.04c1.21-1,3.37-3.11,3.84-6.22c0.26-1.71-0.05-3.35-1.83-7.13c-3.31-7.02-5.49-8.22-8.23-14.45
				c-1.78-4.03-2.09-6.31-2.17-6.89c-0.48-3.8,0.24-7,0.89-9.02c0.45,2.09,1.22,5.1,2.56,8.6c0.4,1.04,1.9,4.84,5.12,10.24
				c5.3,8.88,8.72,11.11,8.6,16.28c-0.06,2.57-0.96,4.07-1.28,4.57C171.03,56.74,166.43,57.02,165.9,57.04z"/>
		</g>
		<g>
			<path d="M173.03,56.68c0.7-0.58,1.66-1.48,2.56-2.74c0.18-0.25,1.52-2.16,2.01-4.02c0.8-3.07-0.73-5.9-2.74-9.51
				c-1.78-3.2-2.3-3.07-5.67-8.23c-2.19-3.35-3.3-5.06-3.84-6.95c-0.96-3.33-0.8-6.73-0.73-8.05c0.07-1.37,0.23-2.5,0.37-3.29
				c1.25,3.48,2.59,6.09,3.47,7.68c2.63,4.73,5.9,8.84,12.25,18.1c0.91,1.32,2.21,3.29,2.38,6.03c0.2,3.33-1.42,5.82-1.83,6.4
				C178.44,56.18,173.71,56.62,173.03,56.68z"/>
		</g>
		<path class="st12" d="M190.9,37.8c-0.41,0-0.75,0.33-0.75,0.75s0.33,0.75,0.75,0.75c0.41,0,0.75-0.33,0.75-0.75
			S191.32,37.8,190.9,37.8z"/>
		<path d="M194.11,37.9c-0.49-1.07-1.33-1.84-2.29-2.36c-0.24-0.36-0.81-0.78-1.38-1.2c-3.18-2.31-3.78-2.63-4.47-3.61
			c-0.38-0.55-0.89-1.44-1.29-2.86c-0.07,0.7-0.1,1.59,0.08,2.56c0.06,0.37,0.12,0.77,0.32,1.21c0.37,0.85,1.2,1.82,1.2,1.82
			c-0.3-0.08-0.86-0.26-1.38-0.74c-0.86-0.78-0.99-1.8-1.02-2.08c-0.05,0.67-0.04,1.78,0.38,3.05c0.29,0.88,0.68,1.56,1.06,2.09
			c-1.25,0.84-1.95,1.91-2.08,2.12c0.7,0.78,2.33,2.81,2.8,5.91c0.39,2.56-0.2,4.6-0.55,5.6c1.9-3.59,4.69-5.27,5.87-4.88
			c1.03,0.34,1.79,1.12,1.79,1.12c0.22,0.23,0.38,0.44,0.49,0.61c0.18-0.33,0.37-0.77,0.5-1.3c0.26-1.09,0.13-2.02,0-2.56
			C194.28,41.95,195.04,39.94,194.11,37.9z M190.9,39.29c-0.41,0-0.75-0.33-0.75-0.75s0.33-0.75,0.75-0.75
			c0.41,0,0.75,0.33,0.75,0.75S191.32,39.29,190.9,39.29z"/>
	</g>
</g>
</svg>
