<?xml version="1.0" encoding="utf-8"?>
<!-- Generator: Adobe Illustrator 25.0.0, SVG Export Plug-In . SVG Version: 6.00 Build 0)  -->
<svg version="1.1" id="Layer_1" xmlns="http://www.w3.org/2000/svg" xmlns:xlink="http://www.w3.org/1999/xlink" x="0px" y="0px"
	 viewBox="0 0 352 92" style="enable-background:new 0 0 352 92;" xml:space="preserve">
<style type="text/css">
	.st0{fill:#9E9FB4;}
	.st1{fill:#034C79;}
	.st2{fill:#BE1E2D;}
	.st3{fill:none;stroke:#9E9FB4;stroke-miterlimit:10;}
	.st4{fill:#231F20;}
	.st5{fill:none;stroke:#231F20;stroke-miterlimit:10;}
	.st6{opacity:0.75;fill:#F16522;}
	.st7{opacity:0.75;fill:#58595B;}
	.st8{fill:#58595B;}
	.st9{fill:#F16522;}
	.st10{opacity:0.75;fill:#9E9FB4;}
	.st11{fill:#F6921E;}
	.st12{fill:none;}
</style>
<g>
	<g>
		<g>
			<g>
				<path class="st0" d="M113.5,72.35h3.17c1.74,0,2.62,0.92,2.62,2.15c0,1.02-0.6,1.69-1.3,1.9c0.61,0.18,1.6,0.79,1.6,2.12
					c0,1.69-1.28,2.53-2.86,2.53h-3.23V72.35z M116.45,76.03c1.39,0,1.93-0.53,1.93-1.47c0-0.82-0.58-1.45-1.7-1.45h-2.3v2.91
					H116.45z M114.37,80.27h2.31c1.12,0,1.99-0.55,1.99-1.74c0-1.03-0.66-1.73-2.28-1.73h-2.01V80.27z"/>
				<path class="st0" d="M125.15,78.04c0.01,1.46,0.75,2.42,1.89,2.42c1.09,0,1.46-0.59,1.67-1.08h0.85
					c-0.26,0.82-0.92,1.82-2.55,1.82c-1.94,0-2.7-1.62-2.7-3.23c0-1.83,0.91-3.34,2.78-3.34c1.97,0,2.61,1.65,2.61,2.9
					c0,0.18,0,0.35-0.01,0.52H125.15z M128.84,77.39c-0.01-1.15-0.62-2.05-1.77-2.05c-1.21,0-1.75,0.84-1.87,2.05H128.84z"/>
				<path class="st0" d="M139.13,79.77c0,0.56,0.05,1.08,0.09,1.27h-0.8c-0.05-0.15-0.09-0.43-0.11-0.9c-0.22,0.44-0.74,1.05-2,1.05
					c-1.46,0-2.09-0.95-2.09-1.9c0-1.39,1.08-2.02,2.95-2.02c0.49,0,0.89,0,1.14,0v-0.59c0-0.59-0.18-1.36-1.49-1.36
					c-1.17,0-1.35,0.6-1.48,1.1h-0.82c0.08-0.77,0.55-1.8,2.32-1.8c1.48,0,2.3,0.61,2.3,2.01V79.77z M138.31,77.91
					c-0.22,0-0.75,0-1.13,0c-1.33,0-2.1,0.36-2.1,1.34c0,0.73,0.51,1.24,1.34,1.24c1.66,0,1.89-1.11,1.89-2.37V77.91z"/>
				<path class="st0" d="M149.37,79.21c0,0.61,0.01,1.53,0.01,1.83h-0.81c-0.02-0.16-0.04-0.56-0.04-1.02
					c-0.28,0.72-0.91,1.17-1.96,1.17c-0.97,0-2.06-0.43-2.06-2.28v-4.14h0.82v3.95c0,0.87,0.27,1.7,1.42,1.7
					c1.29,0,1.78-0.72,1.78-2.41v-3.24h0.83V79.21z"/>
				<path class="st0" d="M154.09,74.78h1.13v-1.91h0.83v1.91h1.44v0.72h-1.44v3.89c0,0.66,0.15,1.02,0.74,1.02
					c0.17,0,0.42-0.01,0.6-0.06v0.67c-0.24,0.09-0.57,0.11-0.85,0.11c-0.88,0-1.32-0.45-1.32-1.47V75.5h-1.13V74.78z"/>
				<path class="st0" d="M162.65,74.78c1.15,3.32,1.7,4.88,1.9,5.54h0.01c0.23-0.74,0.71-2.18,1.83-5.54h0.85l-2.31,6.6
					c-0.65,1.85-1.11,2.28-2.31,2.28c-0.21,0-0.4-0.01-0.62-0.04v-0.77c0.17,0.02,0.35,0.04,0.54,0.04c0.85,0,1.15-0.4,1.57-1.58
					l-2.37-6.53H162.65z"/>
				<path class="st0" d="M185.49,78.66c-0.4,1.42-1.45,2.49-3.35,2.49c-2.54,0-3.86-1.98-3.86-4.43c0-2.35,1.3-4.49,3.88-4.49
					c1.95,0,3.06,1.1,3.34,2.55h-0.89c-0.36-1.05-1.04-1.78-2.49-1.78c-2.05,0-2.9,1.87-2.9,3.69c0,1.79,0.83,3.68,2.95,3.68
					c1.38,0,2.04-0.75,2.43-1.72H185.49z"/>
				<path class="st0" d="M195.8,77.9c0,1.77-1,3.3-2.89,3.3c-1.74,0-2.81-1.39-2.81-3.28c0-1.82,1.02-3.29,2.87-3.29
					C194.68,74.63,195.8,75.93,195.8,77.9z M190.97,77.91c0,1.44,0.75,2.55,1.99,2.55c1.26,0,1.97-1.04,1.97-2.55
					c0-1.45-0.7-2.55-1.99-2.55C191.62,75.36,190.97,76.44,190.97,77.91z"/>
				<path class="st0" d="M200.78,76.48c0-0.97-0.01-1.44-0.01-1.7h0.82c0.01,0.19,0.03,0.63,0.03,1.35c0.35-0.9,1.12-1.45,2.15-1.5
					v0.86c-1.3,0.07-2.15,0.86-2.15,2.4v3.16h-0.83V76.48z"/>
				<path class="st0" d="M208.35,76.35c0-0.55,0-1.09-0.01-1.58h0.81c0.03,0.19,0.04,0.94,0.03,1.12c0.26-0.59,0.78-1.27,2.03-1.27
					c1.14,0,2.1,0.67,2.1,2.37v4.05h-0.83v-3.93c0-1.04-0.42-1.73-1.45-1.73c-1.35,0-1.85,1.09-1.85,2.4v3.25h-0.83V76.35z"/>
				<path class="st0" d="M219.14,78.04c0.01,1.46,0.75,2.42,1.89,2.42c1.09,0,1.46-0.59,1.67-1.08h0.85
					c-0.26,0.82-0.92,1.82-2.55,1.82c-1.94,0-2.7-1.62-2.7-3.23c0-1.83,0.91-3.34,2.78-3.34c1.97,0,2.61,1.65,2.61,2.9
					c0,0.18,0,0.35-0.01,0.52H219.14z M222.82,77.39c-0.01-1.15-0.62-2.05-1.77-2.05c-1.21,0-1.75,0.84-1.87,2.05H222.82z"/>
				<path class="st0" d="M228.65,76.48c0-0.97-0.01-1.44-0.01-1.7h0.82c0.01,0.19,0.03,0.63,0.03,1.35c0.35-0.9,1.12-1.45,2.15-1.5
					v0.86c-1.3,0.07-2.15,0.86-2.15,2.4v3.16h-0.83V76.48z"/>
			</g>
			<g>
				<path class="st0" d="M136.54,49.14h-8.69v-0.13c0-1.13,0.91-2.04,2.04-2.04h6.65V49.14z"/>
			</g>
			<g>
				<g>
					<path class="st0" d="M136.62,19.95c-0.09,0-0.17,0-0.26-0.01c-3.2-0.14-5.68-2.86-5.54-6.05c0.14-3.2,2.86-5.69,6.05-5.54
						c1.55,0.07,2.98,0.73,4.03,1.88c1.05,1.14,1.59,2.63,1.52,4.17l0,0C142.28,17.51,139.71,19.95,136.62,19.95z M136.62,9.15
						c-2.66,0-4.88,2.1-5,4.78c-0.12,2.76,2.02,5.1,4.78,5.22c2.75,0.12,5.1-2.02,5.22-4.78l0,0c0.06-1.34-0.41-2.61-1.31-3.6
						c-0.9-0.99-2.14-1.56-3.47-1.62C136.77,9.15,136.69,9.15,136.62,9.15z"/>
				</g>
			</g>
			<g>
				<path class="st0" d="M119.66,21.33c-3.2,0-5.8-2.6-5.8-5.8s2.6-5.8,5.8-5.8s5.8,2.6,5.8,5.8S122.86,21.33,119.66,21.33z
					 M119.66,10.52c-2.76,0-5,2.24-5,5s2.24,5,5,5s5-2.24,5-5S122.42,10.52,119.66,10.52z"/>
			</g>
			<g>
				<g>
					<path class="st0" d="M128.09,22.99c-0.47-1.2-0.86-2.21-1.16-2.96c-0.6-1.37-1.2-2.74-1.8-4.12c-1.43,1.69-2.87,3.38-4.3,5.07
						c1.56,3.13,3.14,6.28,4.74,9.43c0.54-1.57,1.18-3.43,1.91-5.59C127.69,24.18,127.9,23.57,128.09,22.99z"/>
				</g>
				<g>
					<path class="st0" d="M128.39,35.95c5.29,10.31,10.63,20.38,15.99,30.21c-0.09-0.9-0.17-1.79-0.26-2.69
						c-1.49-4.33-2.79-7.79-3.65-10.04c-0.51-1.32-1.25-3.24-7.72-18.87c-0.46-1.12-1.07-2.58-1.8-4.39
						c-0.45,1.03-0.91,2.06-1.37,3.09C129.2,34.16,128.8,35.06,128.39,35.95z"/>
				</g>
				<g>
					<path class="st0" d="M130.96,30.18c1.54-3.48,3.05-6.95,4.54-10.41c-1.52-1.61-3.05-3.22-4.57-4.83
						c-0.52,1.4-1.05,2.81-1.57,4.21c-0.3,0.93-0.74,2.25-1.27,3.85c0.31,0.79,0.66,1.67,1.03,2.61
						C129.8,27.32,130.42,28.84,130.96,30.18z"/>
				</g>
				<g>
					<path class="st0" d="M127.46,34.14c-0.64-1.24-1.27-2.48-1.89-3.72c-0.49,1.43-0.91,2.61-1.25,3.56
						c-5.61,15.96-6.25,17.91-6.68,19.26c-0.74,2.29-1.84,5.81-3.09,10.22c-0.04,0.9-0.07,1.8-0.11,2.7
						c4.7-9.85,9.35-19.92,13.95-30.21C128.08,35.35,127.77,34.74,127.46,34.14z"/>
				</g>
				<g>
					<path class="st0" d="M128.39,35.95c0.4-0.9,0.8-1.79,1.2-2.69c0.46-1.03,0.91-2.06,1.37-3.09c-0.54-1.33-1.16-2.86-1.84-4.57
						c-0.38-0.94-0.72-1.82-1.03-2.61c-0.19,0.58-0.4,1.19-0.61,1.84c-0.72,2.16-1.36,4.02-1.91,5.59c0.63,1.24,1.26,2.48,1.89,3.72
						C127.77,34.74,128.08,35.35,128.39,35.95z M128.23,29.35c0.21,0,0.39,0.17,0.39,0.39c0,0.21-0.17,0.39-0.39,0.39
						c-0.21,0-0.39-0.17-0.39-0.39C127.85,29.52,128.02,29.35,128.23,29.35z"/>
				</g>
			</g>
			<g>
				<path class="st0" d="M191.1,36.6c7.47,0,14.16,5.73,14.16,14.42c0,9.4-6.38,15.25-14.42,15.25c-8.39,0-14.51-6.38-14.51-14.6
					C176.32,43.86,181.87,36.6,191.1,36.6z M190.22,38.22c-4.9,0-9.35,4.11-9.35,12.28c0,8.13,4.46,14.12,10.66,14.12
					c5.29,0,9.27-3.93,9.27-12.37C200.8,43.07,195.95,38.22,190.22,38.22z"/>
			</g>
			<g>
				<path class="st0" d="M208.36,37.22h11.67v1.22c-3.41,0.31-4.02,0.61-4.02,4.5v7.52c0.87-0.09,1.88-0.79,3.15-2.01
					c2.45-2.32,5.38-5.29,7.39-7.56c1.31-1.49,1.18-2.05-0.7-2.32l-1.22-0.13v-1.22h10.62v1.22c-3.28,0.39-4.41,0.61-7.34,3.63
					c-1.31,1.27-4.72,4.59-7.52,7.34c3.32,3.93,8.17,9.53,10.45,11.93c2.23,2.4,2.8,2.75,5.51,3.06v1.22h-6.99
					c-3.37-3.8-6.91-8.04-10.88-12.67c-1.01-1.22-1.75-1.31-2.45-1.27v8.3c0,3.8,0.39,4.11,4.02,4.41v1.22h-11.67V64.4
					c3.58-0.31,3.93-0.61,3.93-4.41V42.94c0-3.93-0.31-4.24-3.93-4.5V37.22z"/>
			</g>
			<g>
				<path class="st0" d="M233.98,75.77l0.96-4.63l3.56,3.39L233.98,75.77z M235.06,71.53l-0.82,3.96l3.86-1.06L235.06,71.53z"/>
			</g>
			<g>
				<path class="st0" d="M236.59,76.33l-3.56-3.39l4.52-1.24L236.59,76.33z M233.43,73.04l3.04,2.9l0.82-3.96L233.43,73.04z"/>
			</g>
			<g>
				<g>
					<path class="st0" d="M155.22,48.07c0.2,0.24,0.37,0.48,0.53,0.72c0.18-0.29,0.38-0.57,0.61-0.85c0.41-0.5,0.84-0.9,1.26-1.23
						v-3.79c0-3.76,0.48-3.93,3.98-4.28v-1.22h-11.71v1.22c3.5,0.35,3.93,0.57,3.93,4.28v3.81
						C154.27,47.08,154.76,47.52,155.22,48.07z"/>
				</g>
				<g>
					<path class="st0" d="M170.46,58.22c-0.66,1.62-1.57,3.37-2.67,4.5c-1.01,1.09-1.66,1.35-3.89,1.35c-0.26,0-3.41-0.04-3.45-0.04
						c-2.49-0.04-2.84-0.66-2.84-3.32v-7.24c-0.15,0.02-0.3,0.04-0.45,0.05c-0.08,0.07-0.18,0.11-0.28,0.12
						c-0.42,0.04-0.85,0.07-1.27,0.07c-0.6,0-1.2-0.05-1.79-0.13v6.7c0,3.72-0.35,3.93-4.33,4.33v1.22h20.32
						c0.44-1.35,1.75-5.9,2.01-7.26L170.46,58.22z"/>
				</g>
			</g>
			<g>
				<path class="st0" d="M164.41,46.75c-0.73,0.06-2.58,0.29-4.59,1.33c0.19-0.48,0.42-1.18,0.52-2.06
					c-0.32,0.1-0.74,0.25-1.22,0.49c-0.42,0.21-1.48,0.8-2.41,1.94c-0.42,0.51-0.74,1.04-0.97,1.55c-0.24-0.5-0.55-1.03-0.97-1.55
					c-0.93-1.13-1.99-1.72-2.41-1.94c-0.48-0.24-0.9-0.4-1.22-0.49c0.1,0.89,0.32,1.58,0.52,2.06c-2.01-1.04-3.86-1.26-4.59-1.33
					c-0.86-0.07-1.59-0.04-2.12,0.01c0.75,1.4,1.61,2.36,2.2,2.95c0.9,0.88,3.12,2.81,6.51,3.37c0.78,0.13,1.48,0.16,2.08,0.15
					c0.6,0.01,1.3-0.02,2.08-0.15c3.39-0.56,5.62-2.49,6.51-3.37c0.6-0.59,1.45-1.55,2.2-2.95
					C165.99,46.71,165.27,46.68,164.41,46.75z M156.36,51.99c0,0,1.42-0.81,2.25-1.27c2.35-1.31,4.29-2.32,4.33-2.25
					c0.04,0.07-1.84,1.18-4.2,2.49c-0.86,0.48-1.66,0.92-2.34,1.28l-0.14,0.07c-0.04-0.06-0.08-0.12-0.12-0.18L156.36,51.99z
					 M156.71,50.14c1.05-1.3,1.92-2.34,1.96-2.31c0.04,0.03-0.78,1.11-1.83,2.41c-0.02,0.03-0.05,0.06-0.07,0.09
					c-0.23,0.24-0.44,0.48-0.64,0.71c-0.01-0.04-0.03-0.08-0.04-0.13C156.29,50.67,156.5,50.41,156.71,50.14z M154.75,50.14
					c0.22,0.27,0.43,0.53,0.62,0.78c-0.01,0.04-0.03,0.08-0.04,0.13c-0.19-0.23-0.4-0.47-0.64-0.71c-0.02-0.03-0.05-0.06-0.07-0.09
					c-1.05-1.3-1.86-2.38-1.83-2.41C152.83,47.81,153.7,48.84,154.75,50.14z M155.07,52.23c-0.68-0.36-1.48-0.8-2.34-1.28
					c-2.35-1.31-4.23-2.42-4.2-2.49c0.04-0.07,1.97,0.94,4.33,2.25c0.83,0.46,1.6,0.9,2.25,1.27l0.22,0.13
					c-0.04,0.06-0.08,0.12-0.12,0.18C155.16,52.28,155.07,52.23,155.07,52.23z"/>
			</g>
		</g>
	</g>
</g>
</svg>
