<?xml version="1.0" encoding="utf-8"?>
<!-- Generator: Adobe Illustrator 25.0.0, SVG Export Plug-In . SVG Version: 6.00 Build 0)  -->
<svg version="1.1" id="Layer_1" xmlns="http://www.w3.org/2000/svg" xmlns:xlink="http://www.w3.org/1999/xlink" x="0px" y="0px"
	 viewBox="0 0 352 92" style="enable-background:new 0 0 352 92;" xml:space="preserve">
<style type="text/css">
	.st0{fill:#9E9FB4;}
	.st1{fill:#034C79;}
	.st2{fill:#BE1E2D;}
	.st3{fill:none;stroke:#9E9FB4;stroke-miterlimit:10;}
	.st4{fill:#231F20;}
	.st5{fill:none;stroke:#231F20;stroke-miterlimit:10;}
	.st6{opacity:0.75;fill:#F16522;}
	.st7{opacity:0.75;fill:#58595B;}
	.st8{fill:#58595B;}
	.st9{fill:#F16522;}
	.st10{opacity:0.75;fill:#9E9FB4;}
	.st11{fill:#F6921E;}
	.st12{fill:none;}
</style>
<g>
	<g>
		<path class="st4" d="M169.95,29.45c-0.59-1.85-2.25-3.23-4.25-3.41c-0.21-0.02-0.44-0.02-0.44-0.02c-0.18,0-0.34,0-0.46,0
			c-0.81,0.01-1.61,0.01-2.42,0.02l0.56,0.56l2.81,2.83l0.02,0.02l2.99,3.01l0.84,0.84c0.14-0.27,0.26-0.55,0.36-0.84
			c0.15-0.47,0.23-0.98,0.23-1.5C170.19,30.42,170.1,29.92,169.95,29.45"/>
		<path class="st4" d="M176.33,29.45c-0.17-1.21-0.54-2.36-1.08-3.41c-0.45-0.88-1.03-1.69-1.7-2.4h0.02
			c-1.96-2.12-4.75-3.45-7.85-3.47v0h-0.06h-9.12l2.38,2.39l0.05,0.05l1.01,1.02h-0.02l0.02,0.02l4.89-0.02
			c0.26-0.03,0.52-0.04,0.78-0.04c0.02,0,0.04,0,0.06,0c-0.26,0-0.51,0.01-0.77,0.04h1.49h0.05c1.86,0.19,3.52,1.08,4.7,2.4
			c0.85,0.95,1.46,2.11,1.73,3.41c0.1,0.49,0.15,0.99,0.15,1.5c0,0.51-0.05,1.02-0.15,1.5c-0.22,1.06-0.67,2.04-1.3,2.88l2.39,2.4
			c1.21-1.48,2.04-3.3,2.32-5.29c0.07-0.49,0.11-0.99,0.11-1.5S176.4,29.94,176.33,29.45"/>
		<polygon class="st4" points="170.9,40.33 168.38,37.81 166.34,35.76 163.05,32.45 160.45,29.84 160.05,29.45 158.87,28.26 
			156.66,26.04 156.35,25.73 154.27,23.63 150.81,20.17 150.81,20.17 150.81,20.25 150.81,23.63 150.79,23.63 150.79,25.28 
			150.81,25.3 151.56,26.04 154.98,29.45 155.09,29.55 158,32.45 158.7,33.14 163.56,37.98 167.17,41.57 171.44,45.82 176.31,45.82 
			176.36,45.82 		"/>
		<polygon class="st4" points="163.53,41.45 155.21,33.08 154.58,32.45 151.59,29.45 150.81,28.66 150.79,28.64 150.79,29.45 
			150.79,32.45 150.81,32.45 150.81,33.77 162.92,45.82 167.88,45.82 		"/>
		<polygon class="st4" points="150.81,37.3 150.81,42.36 154.28,45.82 159.29,45.82 		"/>
		<path class="st4" d="M200.51,42.31l-0.78-0.77l-1.29-1.28l-0.51-0.51c-0.22,0.18-0.44,0.35-0.67,0.51
			c-1.41,0.97-3.12,1.53-4.96,1.53c-1.84,0-3.55-0.56-4.96-1.53c-1.28-0.87-2.32-2.08-2.99-3.49c-0.3-0.64-0.53-1.31-0.68-2.02
			c-0.12-0.57-0.18-1.16-0.18-1.77c0-0.61,0.06-1.21,0.18-1.79c0.15-0.71,0.38-1.39,0.68-2.02c0.68-1.41,1.72-2.61,3.01-3.49
			c1.41-0.95,3.1-1.51,4.93-1.51c1.83,0,3.52,0.56,4.93,1.51c0.24,0.16,0.47,0.34,0.7,0.52l0.53-0.52l1.28-1.27l0.79-0.79l0.27-0.27
			c-2.26-2-5.24-3.21-8.49-3.21c-3.4,0-6.5,1.32-8.79,3.49c-0.66,0.62-1.25,1.31-1.77,2.05c-0.73,1.06-1.31,2.23-1.7,3.49
			c-0.2,0.65-0.35,1.33-0.45,2.02c-0.08,0.58-0.12,1.18-0.12,1.79c0,0.6,0.04,1.19,0.12,1.77c0.1,0.69,0.25,1.37,0.45,2.02
			c0.39,1.26,0.96,2.43,1.69,3.49c0.51,0.75,1.1,1.43,1.76,2.05c2.14,2.02,4.97,3.32,8.1,3.49c0.24,0.01,0.47,0.02,0.71,0.02
			c0.24,0,0.48-0.01,0.71-0.02c2.98-0.16,5.69-1.34,7.79-3.2L200.51,42.31z"/>
		<path class="st4" d="M194.94,36.77h-0.04l-2.08-2.09c-0.11,0.03-0.22,0.06-0.33,0.07h-0.38c-0.89-0.09-1.59-0.85-1.59-1.77
			c0-0.98,0.79-1.78,1.78-1.78c0.18,0,0.36,0.03,0.53,0.08l0.83-0.82l0,0l1.29-1.28l0.91-0.9c-0.99-0.75-2.22-1.19-3.56-1.19
			c-1.81,0-3.43,0.81-4.51,2.09c-0.5,0.59-0.88,1.27-1.12,2.02c-0.18,0.56-0.28,1.16-0.28,1.79c0,0.61,0.09,1.21,0.27,1.77
			c0.23,0.75,0.61,1.43,1.11,2.02c1.08,1.29,2.71,2.11,4.53,2.11c1.34,0,2.57-0.45,3.56-1.2L194.94,36.77z"/>
		<path class="st4" d="M151.38,62.01v-9.28c0-0.24-0.04-0.42-0.13-0.56c-0.09-0.13-0.24-0.27-0.46-0.4h6.54
			c1.24,0,2.2,0.29,2.88,0.88c0.68,0.59,1.02,1.4,1.02,2.43c0,0.58-0.15,1.15-0.45,1.71c-0.3,0.56-0.78,0.99-1.45,1.29l1.89,3.96
			c0.14,0.28,0.27,0.49,0.39,0.63c0.08,0.1,0.22,0.21,0.42,0.31h-3.97l-1.86-4.02h-1.44v3.05c0,0.26,0.04,0.45,0.13,0.58
			c0.09,0.13,0.23,0.26,0.44,0.39h-4.53c0.1-0.05,0.18-0.1,0.24-0.14c0.06-0.04,0.12-0.1,0.18-0.17
			C151.33,62.56,151.38,62.34,151.38,62.01 M154.76,54.11v2.52h1.62c0.45,0,0.8-0.11,1.05-0.32c0.25-0.22,0.37-0.52,0.37-0.91
			c0-0.38-0.12-0.69-0.36-0.93c-0.24-0.24-0.56-0.36-0.97-0.36H154.76z"/>
		<path class="st4" d="M166.21,52.73v9.28c0,0.26,0.04,0.45,0.13,0.58c0.09,0.13,0.23,0.26,0.44,0.39h-4.53
			c0.1-0.05,0.18-0.1,0.24-0.14c0.06-0.04,0.12-0.1,0.18-0.17c0.11-0.11,0.17-0.33,0.17-0.66v-9.28c0-0.24-0.04-0.42-0.13-0.56
			c-0.09-0.13-0.24-0.27-0.46-0.4h4.53c-0.21,0.11-0.35,0.23-0.44,0.36C166.26,52.26,166.21,52.46,166.21,52.73"/>
		<path class="st4" d="M168.58,62.01v-9.28c0-0.24-0.04-0.42-0.13-0.56c-0.09-0.13-0.24-0.27-0.46-0.4h4.98
			c2.12,0,3.75,0.51,4.89,1.52c1.13,1.01,1.7,2.37,1.7,4.08c0,1.75-0.53,3.13-1.58,4.12c-1.06,0.99-2.59,1.49-4.6,1.49h-5.38
			c0.1-0.05,0.18-0.1,0.24-0.14c0.06-0.04,0.12-0.1,0.18-0.17C168.52,62.56,168.58,62.34,168.58,62.01 M171.95,54.11v6.53h0.79
			c1.08,0,1.91-0.28,2.48-0.84c0.57-0.56,0.86-1.37,0.86-2.42c0-1.02-0.28-1.82-0.84-2.4c-0.56-0.58-1.39-0.87-2.5-0.87H171.95z"/>
		<path class="st4" d="M186.75,57.96h4.41c-0.21,0.07-0.36,0.16-0.45,0.28c-0.07,0.11-0.11,0.28-0.11,0.51v3.22
			c-0.68,0.41-1.4,0.73-2.15,0.94c-0.36,0.09-0.72,0.16-1.09,0.22c-0.37,0.05-0.75,0.08-1.15,0.08c-1.77,0-3.24-0.56-4.41-1.67
			c-1.17-1.11-1.75-2.5-1.75-4.16c0-1.65,0.57-3.03,1.72-4.14c1.14-1.11,2.56-1.67,4.24-1.67c0.63,0,1.26,0.08,1.89,0.25l1.73,0.56
			c0.22,0,0.37-0.12,0.46-0.37v3.85c-0.9-1.26-2.02-1.89-3.36-1.89c-1.02,0-1.81,0.32-2.37,0.95c-0.56,0.63-0.83,1.46-0.83,2.47
			c0,1,0.26,1.82,0.79,2.47c0.53,0.64,1.26,0.97,2.2,0.97h0.4l0.39-0.09v-1.59c0-0.41-0.03-0.69-0.09-0.82
			C187.13,58.16,186.98,58.05,186.75,57.96"/>
		<path class="st4" d="M192.58,62.01v-9.28c0-0.24-0.04-0.42-0.13-0.56c-0.09-0.13-0.24-0.27-0.46-0.4h8.55v2.94
			c-0.09-0.23-0.2-0.38-0.32-0.47c-0.12-0.09-0.32-0.13-0.61-0.13h-3.66v1.92h3.06c0.28,0,0.48-0.03,0.62-0.09
			c0.13-0.06,0.25-0.19,0.36-0.39v3.31c-0.17-0.32-0.49-0.48-0.97-0.48h-3.06v2.26h3.91c0.29,0,0.49-0.04,0.61-0.12
			c0.12-0.08,0.22-0.23,0.32-0.47v2.94h-8.8c0.1-0.05,0.18-0.1,0.24-0.14c0.06-0.04,0.12-0.1,0.18-0.17
			C192.52,62.56,192.58,62.34,192.58,62.01"/>
		<path class="st4" d="M155.58,70.03v1.87c-0.02-0.11-0.08-0.16-0.18-0.16c-0.13,0.06-0.25,0.11-0.38,0.16
			c-0.07,0.03-0.22,0.07-0.42,0.14c-0.31,0.08-0.62,0.13-0.93,0.13c-0.79,0-1.47-0.29-2.04-0.88c-0.57-0.59-0.85-1.3-0.85-2.13
			c0-0.82,0.28-1.53,0.84-2.12c0.56-0.59,1.22-0.88,1.99-0.88c0.34,0,0.61,0.03,0.81,0.09l0.66,0.18c0.06,0,0.12-0.01,0.16-0.04
			c0.05-0.02,0.08-0.07,0.12-0.12v1.92c-0.24-0.53-0.67-0.8-1.29-0.8c-0.51,0-0.88,0.19-1.13,0.57c-0.25,0.38-0.37,0.78-0.37,1.19
			c0,0.53,0.14,0.95,0.41,1.28c0.27,0.33,0.64,0.49,1.12,0.49c0.34,0,0.64-0.1,0.93-0.3C155.3,70.43,155.49,70.23,155.58,70.03"/>
		<path class="st4" d="M159.17,72.17c-0.92,0-1.68-0.29-2.28-0.86c-0.6-0.57-0.91-1.29-0.91-2.15c0-0.85,0.3-1.56,0.9-2.14
			c0.6-0.58,1.36-0.87,2.28-0.87c0.92,0,1.68,0.29,2.29,0.86c0.6,0.58,0.91,1.29,0.91,2.14c0,0.85-0.3,1.56-0.89,2.14
			C160.87,71.88,160.11,72.17,159.17,72.17 M159.17,70.94c0.42,0,0.76-0.17,1.01-0.5c0.25-0.33,0.38-0.76,0.38-1.27
			c0-0.51-0.13-0.93-0.38-1.27c-0.25-0.33-0.59-0.5-1.01-0.5c-0.4,0-0.74,0.17-1,0.5c-0.26,0.33-0.39,0.75-0.39,1.27
			c0,0.52,0.13,0.95,0.38,1.28C158.41,70.77,158.75,70.94,159.17,70.94"/>
		<path class="st4" d="M163.02,71.56v-4.79c0-0.12-0.02-0.22-0.07-0.29c-0.05-0.07-0.12-0.14-0.24-0.21h2.06l2.41,3.23l0.02-2.73
			c0-0.12-0.02-0.22-0.06-0.29c-0.04-0.07-0.12-0.14-0.23-0.21h1.81c-0.08,0.05-0.16,0.1-0.21,0.16c-0.06,0.06-0.08,0.17-0.08,0.34
			v5.29h-1.37l-2.81-3.73l-0.02,3.23c0,0.13,0.02,0.23,0.06,0.3c0.04,0.06,0.12,0.13,0.24,0.21h-1.82c0.05-0.03,0.09-0.05,0.12-0.07
			c0.03-0.02,0.06-0.05,0.09-0.09C162.99,71.84,163.02,71.73,163.02,71.56"/>
		<path class="st4" d="M170.52,71.56v-4.08h-0.99c-0.19,0-0.33,0.03-0.43,0.09c-0.1,0.06-0.18,0.18-0.24,0.36v-1.66h5.05v1.66
			c-0.06-0.18-0.14-0.3-0.23-0.36c-0.1-0.06-0.24-0.09-0.44-0.09h-0.99v4.08c0,0.13,0.02,0.23,0.06,0.3
			c0.04,0.06,0.12,0.13,0.24,0.21h-2.34c0.05-0.03,0.09-0.05,0.12-0.07c0.03-0.02,0.06-0.05,0.09-0.09
			C170.5,71.84,170.52,71.73,170.52,71.56"/>
		<path class="st4" d="M174.42,71.56v-4.79c0-0.12-0.02-0.22-0.07-0.29c-0.05-0.07-0.12-0.14-0.24-0.21h3.38
			c0.64,0,1.13,0.15,1.49,0.45c0.35,0.3,0.53,0.72,0.53,1.25c0,0.3-0.08,0.59-0.23,0.88c-0.15,0.29-0.4,0.51-0.75,0.67l0.97,2.04
			c0.07,0.14,0.14,0.25,0.2,0.33c0.04,0.05,0.11,0.11,0.22,0.16h-2.05l-0.96-2.08h-0.74v1.57c0,0.13,0.02,0.23,0.07,0.3
			c0.05,0.07,0.12,0.13,0.23,0.2h-2.34c0.05-0.03,0.09-0.05,0.12-0.07c0.03-0.02,0.06-0.05,0.09-0.09
			C174.39,71.84,174.42,71.73,174.42,71.56 M176.16,67.48v1.3H177c0.23,0,0.42-0.06,0.54-0.17c0.13-0.11,0.19-0.27,0.19-0.47
			c0-0.2-0.06-0.36-0.19-0.48c-0.13-0.12-0.29-0.18-0.5-0.18H176.16z"/>
		<path class="st4" d="M183.4,70.67h-1.92l-0.3,0.82c-0.05,0.14-0.07,0.24-0.07,0.3c0,0.07,0.01,0.12,0.04,0.15
			c0.03,0.03,0.09,0.07,0.2,0.12h-1.98c0.11-0.05,0.19-0.1,0.25-0.16c0.04-0.05,0.18-0.37,0.42-0.94l0.8-2.04l0.69-1.72
			c0.14-0.37,0.22-0.57,0.22-0.6c0-0.13-0.08-0.24-0.24-0.34h2.06l2.08,5.44c0.03,0.1,0.07,0.17,0.12,0.22
			c0.05,0.05,0.13,0.09,0.23,0.14h-2.44c0.15-0.05,0.23-0.12,0.23-0.22c0-0.07-0.05-0.25-0.15-0.54L183.4,70.67z M181.85,69.6h1.17
			l-0.57-1.65L181.85,69.6z"/>
		<path class="st4" d="M190.5,70.03v1.87c-0.02-0.11-0.08-0.16-0.18-0.16c-0.13,0.06-0.25,0.11-0.38,0.16
			c-0.07,0.03-0.22,0.07-0.42,0.14c-0.31,0.08-0.62,0.13-0.93,0.13c-0.79,0-1.47-0.29-2.04-0.88c-0.57-0.59-0.85-1.3-0.85-2.13
			c0-0.82,0.28-1.53,0.84-2.12c0.56-0.59,1.22-0.88,1.99-0.88c0.34,0,0.61,0.03,0.81,0.09l0.66,0.18c0.06,0,0.12-0.01,0.16-0.04
			c0.05-0.02,0.08-0.07,0.12-0.12v1.92c-0.24-0.53-0.67-0.8-1.29-0.8c-0.51,0-0.88,0.19-1.13,0.57c-0.25,0.38-0.37,0.78-0.37,1.19
			c0,0.53,0.14,0.95,0.41,1.28c0.27,0.33,0.64,0.49,1.12,0.49c0.34,0,0.64-0.1,0.93-0.3C190.22,70.43,190.41,70.23,190.5,70.03"/>
		<path class="st4" d="M192.35,71.56v-4.08h-0.99c-0.19,0-0.33,0.03-0.43,0.09c-0.1,0.06-0.18,0.18-0.24,0.36v-1.66h5.05v1.66
			c-0.06-0.18-0.14-0.3-0.23-0.36c-0.1-0.06-0.24-0.09-0.44-0.09h-0.99v4.08c0,0.13,0.02,0.23,0.06,0.3
			c0.04,0.06,0.12,0.13,0.24,0.21h-2.34c0.05-0.03,0.09-0.05,0.12-0.07c0.03-0.02,0.06-0.05,0.09-0.09
			C192.32,71.84,192.35,71.73,192.35,71.56"/>
		<path class="st4" d="M200.2,66.37v2.04c-0.14-0.28-0.39-0.52-0.73-0.73c-0.35-0.2-0.72-0.3-1.11-0.3c-0.24,0-0.43,0.04-0.56,0.13
			c-0.14,0.09-0.2,0.19-0.2,0.3c0,0.19,0.09,0.31,0.26,0.37l1.41,0.48c0.42,0.13,0.75,0.34,0.99,0.63c0.25,0.28,0.37,0.62,0.37,0.99
			c0,0.51-0.21,0.96-0.63,1.33c-0.42,0.38-1.01,0.57-1.76,0.57c-0.4,0-0.76-0.05-1.08-0.14l-0.87-0.33c-0.11,0-0.2,0.09-0.27,0.26
			v-2.04c0.19,0.32,0.47,0.58,0.85,0.78c0.37,0.19,0.78,0.29,1.23,0.29c0.29,0,0.5-0.04,0.63-0.13c0.13-0.08,0.2-0.21,0.2-0.37
			c0-0.12-0.07-0.22-0.21-0.31c-0.14-0.09-0.49-0.21-1.03-0.37c-0.55-0.16-0.97-0.38-1.27-0.68c-0.3-0.3-0.45-0.64-0.45-1.04
			c0-0.6,0.22-1.08,0.65-1.42c0.43-0.35,0.96-0.52,1.58-0.52c0.35,0,0.66,0.04,0.93,0.13l0.81,0.3
			C200.04,66.59,200.13,66.52,200.2,66.37"/>
	</g>
	<rect x="140.78" y="10.78" class="st5" width="70.43" height="70.43"/>
</g>
</svg>
