<?xml version="1.0" encoding="utf-8"?>
<!-- Generator: Adobe Illustrator 24.1.1, SVG Export Plug-In . SVG Version: 6.00 Build 0)  -->
<svg version="1.1" id="pale-woman-works-with-computer"
	 xmlns="http://www.w3.org/2000/svg" xmlns:xlink="http://www.w3.org/1999/xlink" x="0px" y="0px" viewBox="0 0 810 634"
	 style="enable-background:new 0 0 810 634;" xml:space="preserve">
<style type="text/css">
	.st0{fill:none;}
	.st1{clip-path:url(#SVGID_2_);}
	.st2{fill:url(#pale-woman-works-with-computer-3_1_);}
	.st3{fill:#FFFFFF;}
	.st4{opacity:0.45;fill:#FBEFEC;}
	.st5{fill:#F58B6C;}
	.st6{fill:#402D26;}
	.st7{fill:#D17546;}
	.st8{fill:#994C29;}
	.st9{fill:#631D15;}
	.st10{fill:#E86241;}
	.st11{fill:none;stroke:#010101;stroke-width:2.1886;stroke-linecap:round;stroke-miterlimit:10;}
	.st12{fill:#2D1F41;}
	.st13{fill:#5E4F75;}
	.st14{fill:#CAAFA5;}
	.st15{fill:#463532;}
	.st16{fill:#A48681;}
	.st17{fill:#F6DACF;}
	.st18{fill:#FFFBFA;}
	.st19{fill:#E4C5BE;}
	.st20{fill:#DAD0D9;}
	.st21{fill:#5E4C49;}
	.st22{fill:none;stroke:#F9F9FA;stroke-width:1.0943;stroke-miterlimit:10;}
	.st23{fill:#F9F9FA;}
	.st24{fill:#010101;}
	.st25{opacity:0.16;}
	.st26{opacity:0.29;}
</style>
<pattern  y="634" width="912" height="912" patternUnits="userSpaceOnUse" id="pattern" viewBox="0 -912 912 912" style="overflow:visible;">
	<g>
		<rect y="-912" class="st0" width="912" height="912"/>
		
			<image style="overflow:visible;enable-background:new    ;" width="912" height="912" xlink:href="3E3CCF56.png"  transform="matrix(1 0 0 -1 0 0)">
		</image>
	</g>
</pattern>
<rect id="Mask-2" x="49.9" y="39.1" class="st0" width="710.1" height="555.8"/>
<g>
	<defs>
		<rect id="SVGID_1_" x="1461.4" y="101.1" width="810" height="634"/>
	</defs>
	<clipPath id="SVGID_2_">
		<use xlink:href="#SVGID_1_"  style="overflow:visible;"/>
	</clipPath>
	<g id="pale-woman-works-with-computer-2" class="st1">
		
			<pattern  id="pale-woman-works-with-computer-3_1_" xlink:href="#pattern" patternTransform="matrix(0.9353 0 0 -0.9342 -617.7642 -17226.2637)">
		</pattern>
		<rect id="pale-woman-works-with-computer-3" x="1446.4" y="-22.9" class="st2" width="853" height="852"/>
	</g>
</g>
<rect x="24.1" y="24.8" class="st3" width="760.1" height="584.7"/>
<path class="st4" d="M723.8,368.4c-16.5-26.3-39.2-47.2-62.7-66.1c-19.7-15.8-41.4-32.1-49.6-57.3c-4.4-13.8-4.3-29-9.3-42.5
	c-6.7-18-27.3-39.9-44.8-47.7c-26.9-12-59.3,6.2-87.3-3.2c-11.5-3.9-14.6-11.3-22.5-19.1c-8.5-8.3-18.7-15.6-28.5-22.2
	c-19.3-13.1-40.6-23.6-63.6-28.2c-40.4-8.1-83.6,3.4-117,28.6c-20.1,15.1-36.7,34.9-49.1,57.2c-11.9,21.3-17.1,44.9-28.1,66.4
	C140.8,274.6,98,297,77.8,337.5c-14.9,29.9-15.5,66.3-7.6,99.3c7.8,32.9,23.4,62.9,39.7,91.8c0.1,0.1,0.1,0.2,0.2,0.4h27
	c103-0.3,546.8-1.7,557.3,0.4H715c15-13,28.6-49,31.3-70.7C750.3,427,740.3,394.6,723.8,368.4z"/>
<g>
	<g>
		<g>
			<path class="st5" d="M508.4,335.4c-3.7,5.9-13.5,12.7-20.5,12.6c-23.6-0.4-31.4-16.5-33.9-22.4c0.5-0.1,1.3-0.2,1.9-0.3
				c4.4-0.6,8.8-4.9,10.1-9.8c1.7-6.3,3.7-18.7,3.5-26.5l29.9,16.5c0,2.3-0.2,4.7-0.4,7.2c-0.2,1.5-0.3,3-0.5,4.5
				c-0.2,1.4-0.4,2.7-0.5,3.9c-0.5,4.1,1.3,8.2,4.7,10.4L508.4,335.4z"/>
		</g>
		<g>
			<path class="st6" d="M511,271.1c-1.6,4.2-0.9,9,0.7,13.3c1.2,3,3.7,0.4,6.9,0.4c5,0.1,8.8-5.1,11.8-18.7c1.9-10,2.4-15.1,2-16.1
				c-1.4-3.5-5.9-5.3-9.6-5.7"/>
		</g>
		<g>
			<path class="st5" d="M518.6,241.1c7.8,9.4,10.7,35.9,4.1,54.3c-4.7,13.1-10.1,21.6-16.5,21.3c-9.7-0.4-28.4-8.3-34.5-15
				c-11-11.9-7.8-35.3-5.5-50.1c2.1-13.4,8.3-30.8,25.2-27.5C502.3,226.4,511.5,232.6,518.6,241.1z"/>
		</g>
		<g>
			<path class="st6" d="M474.2,249.5c1.7,2.1,4.8,2.5,7.3,2.9c3.4,0.5,5.1,1.7,6.8,4.8c1.1,2,2.2,4.1,4.2,5.2
				c0.9,0.5,2.4,0.6,2.8-0.4c-0.9-0.6-1.2-1.8-1-2.9c0.2-1,0.9-1.9,1.5-2.8c0.6,0.8,0.6,1.8,0.9,2.7c0.4,1.2,1.3,2.2,2.5,2.8
				c0.2,0.1,0.4,0.2,0.6,0.1c0.3,0,0.5-0.3,0.7-0.5c1.2-1.5,2.4-4.3,4.1-5.2c0.3,1.6,1,2.9,1.9,4.2c0.9,1.2,1.9,2.3,3.3,2.6
				c0.5,0.1,1,0,1.2-0.4c0.3-0.5-0.1-1-0.1-1.5c0.1-0.5,0.3-0.7,0.5-1.1c0.6-1,1.2-2,2-3c1.7,1.9,3.5,3.7,5.5,5.3
				c0.4,0.4,1.1,0.7,1.5,0.4c0.2-0.2,0.3-0.5,0.3-0.8c0.2-1.5,0.5-3,0.7-4.5c0.1-0.8,0.6-1.9,1.4-1.7c0.4,0.1,0.6,0.5,0.9,0.8
				c0.3,0.4,5.1,5.5,5.2,5.1c0.7-2.9,2.3-5.5,3-8.4c4.8-18.5-16.7-33.4-33.1-33.5c-3.7,0-7.1,0.7-10.6,1.5
				c-3.8,0.8-7.7,1.5-11.1,3.3c-4.8,2.6-8.4,7.4-7.5,13.1"/>
		</g>
		<g>
			<path class="st6" d="M482.1,244.6c2.4,2.7,3,6.5,3.2,10.1c0.3,5.4-0.1,11-2.6,15.8c-0.7,1.4-1.2,8.1-2.3,7.8
				c-0.3-0.1-0.3-5.4-1.2-8.2c-1.4-4.4-8-6.1-11-3.3c-4.7,4.4-2,9.8-0.4,13.1c0.9,2,2.4,4.3,2.7,6.4c0.3,2.7,0.4,12.6-1.4,15
				c-1.5,1.9-3.1-7.4-4.4-9.3c-10-13.8-19.5-48.8-2.5-56.4c2.6-1.2,10.6-1.8,13-0.3"/>
		</g>
	</g>
	<path class="st7" d="M545,523.2c1,0.2,2,0.3,3,0.3c5.5,0.2,10.8-1,16.1-1.9c4.7-0.8,6-1.3,5.9-6.9c-0.8-44.9-7.4-89.7-19.3-133
		c-1.8-6.6-3.8-13.3-7.3-19.2c-5.9-10.1-19.5-18.8-30-23.7c-1.5-0.7-7.6,3.2-9.1,2.5c-1.3-0.6-2.4-1.5-3.8-2.1
		c-3.8-1.7-6.4,1.8-9.6,3.3c-1.7,0.8-3.5,1.2-5.3,1.1c-1.5-0.1-2.8-1-4.2-0.3c-6.1,3.2-21.3-20.3-21.3-20.3l-6.6,6.9l-19.2,20.1
		l-48,66.2c0,0-8.7,54.2-14.7,89.7c-1,6.1-5.2,19.4-6,24c0.2-1,41-1.3,43.2-1.3c28.4,0,54.8,0,83.2,0c4.7,0,17.2,2,20.5-1.4
		c4-4.2,8.7-23.5,8.9-28.9c0.8-18.2-0.4-36.3-0.7-54.6c0.1,7.4,2.2,14.2,3.2,21.5c1.2,9.4,2.9,18.8,4.4,28.1
		c1.2,7.5,2.4,15,3.3,22.6c0.4,3.4-0.1,5.4,2.8,6.8C536.9,523.8,542.2,522.7,545,523.2z"/>
	<path class="st5" d="M529.6,507.7c-2.2-0.9-15.9-4.3-22.1-5.6c-3.2-0.7-17.9-4.5-21.3-4.5c-3.4,0-8,4.9-8,4.9l1.2,16.7
		c3.3-0.3,7.7,1.4,10,1.7c2.4,0.3,10.3,0.4,15.2-2.1c0.3-0.1,0.5-0.3,0.8-0.4c2,1.8,4.5,3.5,7.2,3.6c0,0,2.1-0.2,1.9-1.1
		c-0.1-0.4-1.5-2.6-2.9-4.7c2.1,2.1,5.5,5.6,9.5,5.8c0,0,2.1-0.2,1.9-1.1c-0.1-0.5-2.2-3.6-3.8-6c0,0,0.1,0,0.1,0.1
		c1.7,1.5,5.9,6.8,10.8,7.1c0,0,2.1-0.2,1.9-1.1c-0.1-0.3-0.9-1.6-1.9-3.1c1.3,1,2.8,2,4.6,2.9c5.3,2.6,8.3,0.6,8.3,0
		C543.1,520,531.8,508.6,529.6,507.7z"/>
	<path class="st8" d="M481.9,488.2c0,0,8.5,4.8,7.8,15.1c-0.8,10.3-3.9,22.2-16.7,21C460,523.1,481.9,488.2,481.9,488.2z"/>
	<path class="st7" d="M470.2,523.3c-30.9,10.7-72.2,0.5-98.4-17.3c-16.4-11.1-26.9-25.3-25.1-39.1c4.6-35.9,32.8-118.1,57.2-130.1
		c16.6-8.2,36.7-11.5,47.9-12.9c5.3-0.6,8.6-0.8,8.6-0.8l-4.1,11.5L435.8,392c-0.8,34.1-25.2,54.3-20.3,62.3
		c4.8,7.9,43.2,16.5,63.3,30C484.3,488.1,491.4,515.3,470.2,523.3z"/>
	<g>
		<path class="st8" d="M346.6,467.8c-0.3,3.2,0,6.4,0.9,9.4c0.9,3.1,2.3,5.9,4,8.6c3.4,5.3,7.9,9.9,12.9,13.9
			c9.9,7.9,21.4,13.8,33.3,18.1c11.9,4.4,24.4,7.2,37.1,8.3c6.3,0.6,12.7,0.6,19,0c6.3-0.5,12.6-1.7,18.7-3.6
			c-6,2.3-12.3,3.6-18.7,4.4c-6.4,0.7-12.8,0.8-19.2,0.4c-6.4-0.4-12.8-1.4-19-2.7c-6.3-1.4-12.4-3.1-18.5-5.3
			c-6-2.2-11.9-4.8-17.5-7.9c-5.6-3.1-11.1-6.6-16-10.7c-4.9-4.1-9.4-8.9-12.8-14.4c-1.6-2.8-3-5.7-3.7-8.9
			c-0.4-1.6-0.6-3.2-0.7-4.8C346.3,471,346.4,469.4,346.6,467.8z"/>
	</g>
	<g>
		<path class="st8" d="M435.8,392c0,6.5-0.9,12.9-2.6,19.2c-1.7,6.3-4.2,12.3-7.1,18.1c-1.4,2.9-3,5.8-4.6,8.6
			c-1.6,2.8-3.2,5.6-4.5,8.5c-0.6,1.4-1.2,2.9-1.4,4.4c-0.2,1.5,0,2.9,1.1,3.9c1,1.1,2.4,1.9,3.7,2.7c1.4,0.8,2.8,1.5,4.3,2.2
			c5.8,2.7,11.9,4.9,17.9,7.3c6,2.3,12.1,4.6,18,7.3c5.9,2.6,11.8,5.5,17.2,9.1l1,0.7c0.3,0.2,0.7,0.5,1,0.8
			c0.6,0.6,1.1,1.2,1.6,1.9c0.9,1.4,1.5,2.9,1.9,4.5c0.9,3.1,1.2,6.4,1.3,9.6c-0.2-3.2-0.7-6.4-1.7-9.5c-1-3-2.5-6-5.5-7.4
			c-5.5-3.4-11.3-6.1-17.3-8.6c-6-2.5-12-4.8-18-7.1c-6-2.3-12.1-4.5-18.1-7.2c-1.5-0.7-2.9-1.4-4.4-2.3c-1.4-0.9-2.8-1.8-4-3
			c-0.3-0.3-0.6-0.7-0.8-1.1c-0.2-0.4-0.5-0.8-0.5-1.3c-0.3-0.9-0.2-1.8-0.1-2.7c0.3-1.7,0.9-3.3,1.6-4.8c1.4-3,3-5.8,4.6-8.6
			c1.6-2.8,3.2-5.6,4.7-8.5C431.1,417.5,435.2,405,435.8,392z"/>
	</g>
	<path class="st7" d="M515.8,339.9c-2.9,2.9-16.1,12.3-28.6,12.3c-2.1,0-4.3-0.2-6.6-0.6c-10.5-1.9-19.3-8.9-24.5-16.9
		c-1-1.5-1.8-3.1-2.5-4.6c-0.9-2-1.6-4.1-2-6.1c5.3-0.6,10.3-2,11.1-2.9c0.9,6.1,8.5,17.2,19.9,19.3c1.4,0.3,2.8,0.4,4.1,0.4h0
		c5.4,0.1,9.5-1.6,12.3-3.4c0,0,5.5-4.3,5.5-4.3L515.8,339.9z"/>
	<ellipse class="st9" cx="498.1" cy="279" rx="2.1" ry="4.2"/>
	<ellipse class="st3" cx="499" cy="280.6" rx="0.9" ry="1.3"/>
	<ellipse class="st9" cx="520.9" cy="280.9" rx="2.1" ry="4.2"/>
	<path class="st3" d="M513.6,298.9c0,0.9-3.7,6.3-7.3,5.8c-3-0.4-5.7-6-4.1-8.6C503.1,295.2,513.7,298,513.6,298.9z"/>
	<g>
		<g>
			<path class="st6" d="M491.7,268.7c0.7-0.8,1.9-1,2.9-1.1c1-0.1,2-0.1,3-0.1c2,0.1,4.1,0.3,5.8,1.5c0.5,0.3,0.9-0.4,0.6-0.7
				c-0.7-0.8-1.8-1.2-2.8-1.4c-1.2-0.3-2.5-0.4-3.8-0.4c-1.1,0-2.2,0.1-3.3,0.3c-1.1,0.2-2.5,0.5-2.7,1.8
				C491.3,268.6,491.6,268.9,491.7,268.7L491.7,268.7z"/>
		</g>
	</g>
	<g>
		<g>
			<path class="st6" d="M517.4,270.2c0.8,0,1.6-0.2,2.3-0.3c0.8,0,1.6,0,2.4,0.2c0.8,0.2,1.5,0.5,2.2,0.9c0.3,0.2,0.7,0.4,1,0.7
				c0.3,0.2,0.7,0.5,1,0.6c0.2,0.1,0.4-0.2,0.3-0.3c-0.2-0.8-1.1-1.5-1.8-1.9c-0.8-0.5-1.6-0.8-2.5-1.1c-0.9-0.2-1.8-0.3-2.7-0.2
				c-0.9,0.1-1.9,0.2-2.6,0.8C517,269.8,517.2,270.2,517.4,270.2L517.4,270.2z"/>
		</g>
	</g>
	<g>
		<g>
			<path class="st10" d="M511.1,279.1c-0.2,2.4,0,4.9,0.4,7.2c0.2,1.2,0.5,2.4,0.9,3.5c0.1,0.2,0.3,0.5,0.2,0.7
				c0,0.2-0.5,0.5-0.7,0.6c-0.5,0.4-1,0.9-1.4,1.3c-0.1,0.1-0.2,0.4-0.2,0.6c0.1,0.2,0.1,0.3,0.3,0.4c0.2,0.1,0.5,0.1,0.7-0.1
				c0.5-0.5,1-1,1.5-1.4c0.4-0.4,0.8-0.7,0.9-1.2c0.1-0.6-0.3-1.2-0.5-1.7c-0.2-0.6-0.4-1.3-0.6-2c-0.6-2.6-0.5-5.2-0.8-7.9
				C511.9,278.5,511.1,278.5,511.1,279.1L511.1,279.1z"/>
		</g>
	</g>
	<ellipse class="st3" cx="521.5" cy="282.5" rx="0.9" ry="1.4"/>
	<g>
		<g>
			<path class="st10" d="M485.8,308.9c0.7,1,1.8,1.8,2.8,2.6c1.1,0.8,2.3,1.5,3.5,2.1c2.4,1.1,5,1.9,7.7,2c0.5,0,0.5-0.7,0-0.8
				c-2.6-0.3-5.1-1-7.4-2.1c-1.1-0.5-2.2-1.1-3.2-1.8c-1.1-0.7-2-1.7-3-2.4C486,308.3,485.6,308.6,485.8,308.9L485.8,308.9z"/>
		</g>
	</g>
	<g>
		<g>
			<path class="st8" d="M460.1,321.3c-2.9-2.2-6.6,0.4-8.3,2.8c-2.3,3.2-3.5,7.1-3.9,11c-1,8.6,2,16.9,5.4,24.6
				c3.5,7.8,7.1,15.5,11,23.1c3.3,6.4,6.6,12.9,9.2,19.6c1.5,3.9,2.8,7.8,3.8,11.8c0.6,2.2,1,4.5,1.4,6.8c0.4,2.3,0.3,4.9,1.5,7
				c0.2,0.5,0.9,0.3,1.1-0.1c0.5-1.9,0-3.8-0.3-5.8c-0.3-1.9-0.6-3.8-1.1-5.7c-0.8-3.5-1.7-7.1-2.8-10.5c-2.1-6.4-4.9-12.5-7.9-18.6
				c-3.3-6.8-6.8-13.5-9.9-20.3c-3.5-7.7-7.4-15.5-8.8-23.9c-0.7-4.2-0.5-8.7,0.8-12.8c0.6-2,1.6-4.1,3-5.7c1.2-1.4,3.2-2.9,5-1.7
				C460.2,323.7,461.1,322,460.1,321.3L460.1,321.3z"/>
		</g>
	</g>
	<g>
		<g>
			<path class="st8" d="M504.7,333.3c6.2,1.8,6.5,10.4,6.4,15.7c-0.2,7.8-1.4,15.4-3.5,22.9c-4.1,14.8-11.3,28.5-18.8,41.9
				c-4.4,7.8-8.9,15.5-13.2,23.3c-0.6,1.1,1.1,2.1,1.7,1c8.1-14.3,17-28.1,24.1-43c6.9-14.5,11.9-30,12.1-46.1
				c0.1-6.3-0.8-15.6-8.2-17.5C504,331.2,503.5,333,504.7,333.3L504.7,333.3z"/>
		</g>
	</g>
	<path class="st8" d="M491.9,428.9c-7.4-0.2-14.8-0.4-22.2-0.7c-1.2,0-1.9,1-2,2c-1.4,11.1-1.9,22.4-3.5,33.5
		c-0.2,1.3,0.5,2.5,2,2.6c7.3,0.2,14.6,0.4,21.9,0.4c0.4,0,0.7-0.1,1-0.2c0,0,0,0,0,0c0.1,0,0.1-0.1,0.2-0.1
		c0.3-0.2,0.6-0.6,0.7-1.1c2.8-10.9,2.8-23.1,4-34.3C494,429.9,492.9,429,491.9,428.9z"/>
	<g>
		<g>
			<path class="st8" d="M521.2,474c0-0.6,0.1-1.1,0.1-1.7c0-0.7,0-1.3-0.1-2c0-1.2-0.1-2.4-0.1-3.5c-0.1-2.4-0.2-4.8-0.2-7.2
				c-0.1-4.8-0.1-9.6,0.1-14.4c0.3-9.6,1-19.1,2.1-28.6c0.3-2.7,0.7-5.4,1.1-8c0.2-1.3,0.4-2.7,0.6-4c0.2-1.3,0.5-2.7,0.6-4
				c0.1-0.7-1-0.8-1.2-0.2c-0.7,2.3-0.9,4.8-1.3,7.2c-0.4,2.4-0.7,4.7-1,7.1c-0.6,4.8-1.1,9.5-1.5,14.3c-0.8,9.6-1,19.3-0.7,28.9
				c0.1,2.7,0.2,5.5,0.4,8.2c0.1,1.3,0.2,2.7,0.3,4c0.1,0.6,0.1,1.2,0.2,1.8c0.1,0.7,0.3,1.4,0.4,2.1
				C521,474.1,521.2,474.1,521.2,474L521.2,474z"/>
		</g>
	</g>
	<g>
		<g>
			<path class="st8" d="M459.8,332.4c0.4,1.7,1.2,3.2,2.2,4.6c0.9,1.4,2,2.7,3.1,4c2.4,2.5,5.2,4.5,8.4,6c1.7,0.8,3.6,1.4,5.5,1.6
				c0.5,0.1,0.6-0.8,0.1-0.9c-3.1-1-6.1-2.1-8.9-3.9c-2.7-1.8-5.1-4.1-7-6.8c-1.1-1.5-1.9-3.2-2.9-4.7
				C460.1,332,459.7,332.1,459.8,332.4L459.8,332.4z"/>
		</g>
	</g>
	<g>
		<g>
			<path class="st8" d="M486.3,348.6c1.3-0.3,2.6-0.6,3.9-1c0.6-0.2,1.3-0.4,1.9-0.5c0.3-0.1,0.7-0.2,1-0.3c0.3-0.1,0.6-0.3,0.9-0.5
				c0.3-0.2,0.2-0.6-0.2-0.6c-0.3,0-0.7,0-1,0.1c-0.3,0.1-0.7,0.2-1,0.3c-0.6,0.2-1.2,0.4-1.9,0.6c-1.3,0.4-2.6,0.8-3.9,1.3
				C485.6,348,485.8,348.7,486.3,348.6L486.3,348.6z"/>
		</g>
	</g>
	<g>
		<g>
			<path class="st10" d="M472.7,272.6c0,0,0.2-0.3,0.2-0.3c0,0.1-0.3,0,0,0c0.3,0.1,0.5,0.1,0.8,0.3c0.6,0.5,0.9,1.2,1.1,2
				c0.2,0.8,0.3,1.7,0.2,2.5c0,0.4-0.1,0.8-0.2,1.3c-0.1,0.4-0.3,0.8-0.3,1.2c0,0.2,0.5,0.1,0.6,0.1c0.3,0,0.6-0.1,0.8-0.3
				c0.3-0.4,0.5-1,0.6-1.5c0.1-0.5,0.2-1.1,0.2-1.6c0-1.1-0.2-2.2-0.7-3.1c-0.4-0.8-1.1-1.4-2-1.5c-0.9-0.1-2.1,0.3-2.6,1.2
				c-0.1,0.3,0.5,0.2,0.6,0.2C472.1,273,472.5,272.9,472.7,272.6L472.7,272.6z"/>
		</g>
	</g>
	<g>
		<g>
			<path class="st10" d="M475.2,275.5c0-0.1,0-0.3-0.1-0.4c0,0,0,0.1,0,0.1c0,0,0.1-0.1,0.1-0.1c0,0,0-0.1,0-0.1
				c-0.2-0.3-0.6-0.6-0.9-0.7c-0.2-0.1-0.4-0.2-0.6-0.2c-0.3,0-0.6,0-0.8,0.1c-0.1,0-0.2,0.1-0.3,0.1c0,0,0,0.1,0,0.1
				c0.1,0,0.1,0,0.2,0.1c0.1,0,0.1,0,0.2,0c-0.1,0,0.1,0,0.1,0c0.2,0.1,0.4,0.1,0.6,0.2c0.1,0.1,0.3,0.2,0.4,0.3
				c0.1,0.1,0.1,0.1,0.2,0.2c0,0,0.1,0.1,0.1,0.1c0.1,0.1,0.2,0.1,0.3,0.1c0,0-0.1,0-0.1,0c0.1,0.1,0.2,0.2,0.3,0.3
				C474.9,275.7,475.2,275.6,475.2,275.5L475.2,275.5z"/>
		</g>
	</g>
	<g>
		<g>
			<path class="st10" d="M502.1,305.5c0.4,0.6,1.1,1.1,1.8,1.3c0.4,0.1,0.8,0.1,1.2,0.1c0.1,0,0.5,0,0.5-0.1c0,0-0.2,0,0,0
				c0.1,0,0.1,0,0.2,0c0.2-0.1,0.4-0.1,0.5-0.2c0.1-0.1,0-0.1-0.1-0.1c-0.2,0-0.4,0-0.5,0c0.1,0,0.1,0,0.2,0c-0.1-0.1-0.3,0-0.4-0.1
				c-0.1,0-0.3,0-0.4,0c-0.3-0.1-0.5-0.1-0.8-0.2c-0.5-0.2-0.9-0.6-1.3-1c0-0.1-0.2-0.1-0.3-0.1c-0.1,0-0.3,0-0.4,0.1
				C502.2,305.2,502,305.4,502.1,305.5L502.1,305.5z"/>
		</g>
	</g>
	<g>
		<g>
			<path class="st10" d="M493.4,281c0,0.2,0,0.4,0,0.6c0,0.2,0,0.4,0,0.6c0,0.4,0.2,0.8,0.4,1.2c0.2,0.3,0.5,0.7,0.8,0.9
				c0.3,0.3,0.8,0.6,1.2,0.6c0.1,0,0.4-0.1,0.4-0.2c0-0.1-0.1-0.1-0.2-0.2c-0.1,0-0.1-0.1-0.2-0.2c-0.1-0.1-0.3-0.2-0.4-0.4
				c-0.3-0.3-0.5-0.6-0.8-0.9c-0.2-0.3-0.3-0.7-0.5-1c-0.1-0.2-0.2-0.4-0.2-0.6c0-0.2-0.1-0.4-0.1-0.6
				C493.8,280.8,493.4,280.9,493.4,281L493.4,281z"/>
		</g>
	</g>
	<g>
		<g>
			<path class="st10" d="M521.4,286.8c0.1,0,0.3-0.1,0.1-0.1C521.4,286.7,521.2,286.8,521.4,286.8L521.4,286.8z"/>
		</g>
	</g>
	<g>
		<g>
			<path class="st10" d="M522.6,286.6c0.5-0.2,0.9-0.6,1.1-1.1c0.1-0.2,0.2-0.4,0.2-0.7c0-0.1,0-0.2,0-0.3c0-0.1-0.1-0.2-0.2-0.3
				c-0.1-0.1-0.2,0-0.3,0.1c-0.1,0.2-0.1,0.5-0.2,0.7c-0.1,0.2-0.1,0.4-0.3,0.6c-0.1,0.2-0.2,0.4-0.4,0.5c-0.1,0.1-0.1,0.1-0.2,0.2
				c0,0,0,0-0.1,0c0,0,0,0,0,0c0,0,0,0,0,0c-0.1,0-0.1,0.1-0.2,0.1c-0.1,0-0.2,0.2-0.1,0.2C522.3,286.7,522.5,286.6,522.6,286.6
				L522.6,286.6z"/>
		</g>
	</g>
	<g>
		<g>
			<path class="st8" d="M521.5,427.2c0-1.1,0-2.2,0.3-3.3c0.3-1.1,0.7-2.1,1.2-3.2c1-1.9,2.2-3.7,3.4-5.4c1.2-1.7,2.6-3.3,4.1-4.7
				c0.8-0.7,1.6-1.4,2.4-2c0.4-0.3,0.8-0.5,1.2-0.8c0.4-0.3,0.8-0.5,1.1-0.9c0.1-0.2,0-0.5-0.3-0.5c-0.7,0-1.5,0.6-2.1,1
				c-0.7,0.5-1.4,1-2,1.5c-1.3,1.1-2.5,2.3-3.6,3.7c-2.3,2.7-4.4,5.7-5.8,8.9c-0.7,1.8-1.2,4-0.5,5.8
				C521,427.5,521.5,427.5,521.5,427.2L521.5,427.2z"/>
		</g>
	</g>
	<g>
		<g>
			<path class="st8" d="M520.9,430.1c0.6-0.7,0.9-1.5,1.4-2.2c0.4-0.8,0.9-1.6,1.4-2.3c1-1.6,2.2-3.1,3.5-4.5
				c0.6-0.7,1.2-1.3,1.9-1.9c0.7-0.6,1.4-1.5,2.3-1.7c0.4-0.1,0.8-0.1,1.1,0.2c0.4,0.4,0.1,0.9-0.1,1.3c-0.5,0.8-1,1.5-1.9,2
				c-0.9,0.4-1.9,0.6-2.7,1.2c-0.6,0.5-1.3,1.2-1,2.1c0.1,0.3,0.5,0.4,0.7,0.1c0.2-0.4,0.3-0.8,0.7-1.1c0.4-0.4,0.9-0.6,1.4-0.8
				c1-0.4,1.9-0.7,2.6-1.4c1.1-1.1,2.6-3.4,0.6-4.3c-1.8-0.8-3.6,1.3-4.8,2.4c-1.5,1.5-2.9,3.1-4.1,4.9c-0.7,1-1.3,2-1.8,3
				c-0.5,1-1.1,2.1-1.2,3.2C520.7,430.1,520.8,430.2,520.9,430.1L520.9,430.1z"/>
		</g>
	</g>
	<g>
		<g>
			<path class="st8" d="M474.6,491.8c0,2,0.1,4-0.1,6c-0.2,2-0.6,3.9-1.3,5.7c-0.7,1.9-1.6,3.6-2.7,5.2c-1.1,1.7-2.5,3.2-3.7,4.8
				c-0.2,0.2,0,0.5,0.3,0.4c2.8-1.5,4.8-4.5,6.2-7.3c1.4-3,2.3-6.2,2.5-9.5c0.1-1.8,0-3.7-0.6-5.4
				C475,491.5,474.6,491.5,474.6,491.8L474.6,491.8z"/>
		</g>
	</g>
	<g>
		<g>
			<path class="st8" d="M505.4,454.7c-0.3,2.5-0.6,4.9-1.2,7.3c-0.6,2.3-1.4,4.6-2.4,6.8c-2,4.4-4.9,8.4-8.4,11.8
				c-2,2-4.2,3.7-6.5,5.2c-0.4,0.2,0,0.8,0.3,0.6c8.9-5,15.3-13.6,17.9-23.4c0.7-2.7,1.2-5.5,1.1-8.3
				C506.2,454.2,505.5,454.2,505.4,454.7L505.4,454.7z"/>
		</g>
	</g>
	<g>
		<g>
			<path class="st8" d="M540.5,295.8c0.6-0.2,1.1-0.5,1.7-0.7c0.3-0.1,0.5-0.3,0.8-0.4c0.3-0.2,0.7-0.3,0.8-0.6
				c-0.1,0.1-0.1,0.1-0.2,0.2c0.1-0.1,0.2-0.2,0.4-0.3c0.1-0.1,0.2-0.2,0.3-0.3c0.1-0.2,0-0.4-0.2-0.4c-0.3,0-0.5,0.1-0.8,0.2
				c0.1,0,0.2,0,0.2,0c-0.2,0-0.4,0-0.6,0.1c-0.1,0.1-0.3,0.1-0.4,0.2c-0.3,0.1-0.6,0.3-0.8,0.4c-0.6,0.3-1.1,0.6-1.6,0.9
				c-0.2,0.1-0.3,0.4-0.2,0.6C540.1,295.9,540.3,295.9,540.5,295.8L540.5,295.8z"/>
		</g>
	</g>
	<g>
		<g>
			<path class="st8" d="M540.7,299.4c0.4,0.3,0.9,0.5,1.4,0.6c0.3,0.1,0.5,0.1,0.8,0.1c0.1,0,0.2,0,0.4,0c0.2,0,0.3-0.1,0.5-0.2
				c0.2-0.1,0.2-0.5,0-0.6c0,0-0.1,0-0.1-0.1c-0.1-0.1-0.2-0.1-0.3-0.1c0.1,0,0,0,0,0c-0.1,0-0.1,0-0.2,0c-0.2,0-0.4-0.1-0.6-0.1
				c-0.2,0-0.4-0.1-0.6-0.2c-0.1,0-0.2-0.1-0.3-0.1c-0.1,0-0.1,0-0.2-0.1c-0.1,0-0.1,0,0,0c0,0-0.1,0-0.1,0
				c-0.2-0.1-0.5-0.1-0.7,0.2C540.4,298.9,540.5,299.2,540.7,299.4L540.7,299.4z"/>
		</g>
	</g>
	<g>
		<g>
			<path class="st8" d="M539.5,306c0.4,0.3,0.9,0.5,1.3,0.7c0.2,0.1,0.5,0.2,0.8,0.3c0.3,0.1,0.5,0.2,0.8,0.1c0.2,0,0.2-0.3,0.2-0.4
				c-0.1-0.2-0.4-0.4-0.6-0.5c-0.2-0.2-0.4-0.3-0.6-0.4c-0.4-0.2-0.9-0.4-1.3-0.6c-0.2-0.1-0.5-0.1-0.6,0.2
				C539.2,305.6,539.2,305.9,539.5,306L539.5,306z"/>
		</g>
	</g>
</g>
<g>
	<polyline class="st11" points="119.4,529.4 151.1,529.4 204.4,529.4 226.6,529.4 282.6,529.4 694.5,529.4 715,529.4 732.4,529.4 	
		"/>
	<line class="st11" x1="111.7" y1="529.4" x2="77.3" y2="529.4"/>
	<line class="st11" x1="743.1" y1="529.4" x2="737.3" y2="529.4"/>
</g>
<g>
	<path class="st12" d="M663.5,522.3H469.4c-1.9,0-3.4,1.5-3.4,3.4v0.2c0,1.9,1.5,3.4,3.4,3.4h194.1c1.9,0,3.4-1.5,3.4-3.4v-0.2
		C666.9,523.8,665.3,522.3,663.5,522.3z"/>
	<g>
		<path class="st12" d="M701.4,435.8c-40.4-0.4-80.8-0.8-121.2-1.2c-5.7-0.1-11.5-0.1-17.2-0.2c-0.9,0-2,0.5-2.4,1.4
			c-11.1,25.6-22.2,51.2-33.3,76.9c-1.6,3.7-3.2,7.3-4.8,11c-0.1,0.1-0.1,0.2-0.1,0.4c0,0,0,0,0,0c0,0.1-0.1,0.2-0.1,0.4
			c-0.3,1.5,0.4,3.2,2.3,3.4c0.4,0.1,0.9,0.2,1.3,0c41.5,0.3,83,0.6,124.5,1c5.9,0,11.9,0.1,17.8,0.1c1.3,0,2.3-0.9,2.7-2.1
			c11.1-29.2,22.1-58.4,33.2-87.6C704.7,437.6,703,435.8,701.4,435.8z"/>
		<g>
			<path class="st12" d="M701.4,434.2c-16.6-0.2-33.2-0.3-49.9-0.5s-33.2-0.3-49.9-0.5c-8.3-0.1-16.6-0.2-24.9-0.3
				c-4.1,0-8.2-0.1-12.3-0.1c-1.7,0-3.3,0-4.6,1.2c-1.3,1.2-1.8,3.5-2.5,5.1c-6.6,15.3-13.2,30.5-19.8,45.8
				c-3.3,7.6-6.6,15.3-9.9,22.9c-1.7,3.8-3.3,7.6-5,11.4c-1.2,2.7-3.3,6.1-1.1,8.8c1.1,1.3,2.6,1.6,4.2,1.5c2.1,0,4.1,0,6.2,0
				c4.2,0,8.3,0.1,12.5,0.1c8.3,0.1,16.6,0.1,24.9,0.2c16.6,0.1,33.2,0.3,49.8,0.4c8.3,0.1,16.6,0.1,24.9,0.2
				c4.1,0,8.3,0.1,12.4,0.1c2.1,0,4.1,0,6.2,0c2,0,4.1,0.2,6,0c1.5-0.2,2.7-1.2,3.4-2.5c0.9-1.8,1.5-3.7,2.2-5.6
				c1.5-3.9,2.9-7.8,4.4-11.6c2.9-7.8,5.9-15.5,8.8-23.3c5.9-15.5,11.8-31,17.7-46.6c0.6-1.6,1-3,0-4.6
				C704.4,435,702.9,434.3,701.4,434.2c-2.1-0.2-2.1,3.1,0,3.3c2,0.2,0.8,2.3,0.4,3.3c-0.7,1.9-1.4,3.7-2.1,5.6
				c-1.4,3.7-2.8,7.5-4.2,11.2c-2.8,7.5-5.7,14.9-8.5,22.4c-5.6,14.7-11.2,29.5-16.8,44.2c-0.3,0.8-0.5,1.8-1,2.5
				c-0.4,0.6-0.8,0.6-1.5,0.6c-2,0-4,0-5.9,0c-4,0-7.9-0.1-11.9-0.1c-7.8-0.1-15.6-0.1-23.4-0.2c-15.9-0.1-31.9-0.2-47.8-0.4
				c-15.8-0.1-31.6-0.2-47.3-0.4c-1.9,0-3.8,0-5.7,0c-1.3,0-2-0.5-1.6-1.8c0.4-1.5,1.3-3.1,1.9-4.5c0.9-2,1.7-4,2.6-5.9
				c3.1-7.2,6.2-14.3,9.3-21.5c6.3-14.6,12.7-29.3,19-43.9c1.6-3.6,3.1-7.2,4.7-10.8c0.2-0.6,0.4-1.3,1-1.6c0.7-0.3,1.7-0.1,2.5-0.1
				c2,0,3.9,0,5.9,0.1c7.9,0.1,15.9,0.2,23.8,0.2c31.7,0.3,63.5,0.6,95.2,1c3.8,0,7.6,0.1,11.5,0.1
				C703.5,437.5,703.5,434.2,701.4,434.2z"/>
		</g>
	</g>
	<ellipse class="st13" cx="608.4" cy="484.6" rx="9.4" ry="6.8"/>
	<ellipse class="st13" cx="626.4" cy="485.3" rx="4.9" ry="3.6"/>
</g>
<g>
	<path class="st14" d="M397.4,504.4c6-0.7,16.6-2.3,16.8-6c-3.9-2.5-8.1-5-12.7-5.3c-3.7-0.2-7.2,1.2-10.6,2.7
		c-2.9,1.3-5.7,2.7-8.4,4.2c-1.1,0.6-4.1,2.8-4.1,4.3c-0.1,1.9,3.4,0.8,4.8,0.9C388,505.5,392.7,504.9,397.4,504.4z"/>
	<path class="st5" d="M383.3,501.3c0,0,7.9,26,12.2,26.6s45.3,0.9,46.4,0.5s1.2-1.2,1.2-1.2s26.2,1.7,26.6,1.1
		c0.5-0.6,0-3.7-1.2-4.2s-40.8-9.3-44.3-10.6c-3.4-1.2-14.2-0.9-14.2-0.9l-2.2-15.1L383.3,501.3z"/>
	<path class="st15" d="M392.9,174.8c2.6,2.8,4,6.6,3.8,10.4c-0.1,2.2-0.8,4.4-1.4,6.6c-1.3,4.1-2.8,8.4-6.1,11.3
		c-0.5,0.5-1.2,0.9-1.9,0.8c-1.3-4-2.6-7.9-3.9-11.9c-0.6-1.9-1.2-3.8-1.6-5.8c-0.6-3.3-0.4-6.8,0.8-10c0.5-1.5,1.3-2.9,2.5-3.8
		C388.1,170,390.9,172.6,392.9,174.8z"/>
	<g>
		<g>
			<path class="st16" d="M316.8,394.9c-0.2,1.7,0,3.4,0,5.1c0.1,2.3,0.2,4.6,0.4,6.9c0.1,2.3,0.2,4.5,0.3,6.8c0,0.9,0,1.8,0,2.7
				c0,0.4-0.1,0.8-0.1,1.2c0,0.4,0.1,0.5,0.1,0.8c0,0.2,0.2,0.3,0.3,0.1c0.2-0.4,0.4-0.4,0.4-0.8c0.1-0.4,0.1-0.8,0.1-1.1
				c0.1-0.9,0.1-1.8,0.1-2.7c0-2.3,0-4.6-0.1-6.9c-0.2-4-0.4-8.1-0.5-12.1C317.9,394.2,316.9,394.2,316.8,394.9L316.8,394.9z"/>
		</g>
	</g>
	<g>
		<g>
			<path class="st16" d="M328.3,386.9c-1,2.4-1.6,4.8-2.4,7.2c-0.9,2.6-1.8,5.1-2.8,7.6c-1.1,2.6-2.2,5.2-3.5,7.7
				c-1.2,2.2-2.7,4.3-3.9,6.5c-0.3,0.5,0.4,0.8,0.7,0.4c1.5-2,2.6-4.4,3.7-6.6c1.2-2.5,2.5-5.1,3.6-7.7c2-4.7,4.3-9.8,5.1-14.9
				C328.8,386.8,328.4,386.7,328.3,386.9L328.3,386.9z"/>
		</g>
	</g>
	<path class="st12" d="M233.2,529.4l2.7-89.9l19.5,89.9h56c-3.7-29.9-20.2-154.9-37.5-165.5l-67.8-42.2c0,0-39.2,10.2-38.4,67
		c3.1,54.6,9.8,118.9,12.2,140.8H233.2z"/>
	<path class="st17" d="M414.1,498.5c-1.5,2.2-8.9,0.5-11.1,0.8c-2,0.2-3.8,0.9-5.7,1.4c-6.1,1.6-12.8,0.8-18.3,3.8
		c-0.2,0.1-0.4,0.2-0.5,0.1c-0.2-0.1-0.3-0.3-0.4-0.5c-3.5-9.6-6.2-19.7-9.2-29.5c-4.6-14.8-9.2-29.5-13.7-44.3
		c-2.4-7.6-4.7-15.2-7.1-22.9l-16.6-77.1l7.4-54.3l1.8-12.8l0.1-1c0,0,0.4,0.1,1,0.4c2.3,0.8,8.3,3,14.9,6.3
		c10.6,5.2,22.8,12.9,24.4,21.6c0,0,0,0.1,0,0.1c0.9,6.1,1.9,12.3,2.8,18.4c1.7,10.9,3.4,21.7,5.2,32.6c2.2,13.5,4.3,27,6.5,40.5
		c2.3,14.1,4.5,28.1,6.8,42.2c2,12.6,4.1,25.1,6.1,37.7c1.5,9,2.9,17.9,4.4,26.9c0.4,2.5,0.8,5,1.2,7.4c0.1,0.4,0.4,1.5,0.3,1.9
		C414.2,498.2,414.2,498.4,414.1,498.5z"/>
	<path class="st17" d="M340.7,262.2l-0.1,1l-1.8,12.8l-7.4,54.3c0,0-36.2,22.3-36.2,22.3c-1.9,1.2-3.5,9.2-4.3,11.2
		c-2.5,6.5-4.7,13.3-7.5,19.6c-0.6,1.3-1.1,4.9-2.4,5.7c-2.6,1.6-13.2-0.6-16.5-0.8c-12.1-0.8-24.4-2.6-35.5-7.8
		c-8.8-4.1-16.5-10-24.8-15c-5-3.1-10.7-5-16-7.4c-3.6-1.6-11.3-4.8-12.6-9c-0.4-1.2,0.2-2.5,0.8-3.6c2.5-4.9,4.2-10.9,7.3-15.5
		c2.8-4.2,6.2-8,8.9-12.4c5.4-8.7,10.3-17.9,17.1-25.7c11.6-13.2,21.3-28.4,33.2-41.6c5.3-5.9,21.8-11.4,29.7-11.8
		c7.2-0.3,14.1,0.9,20.2,2.6c4.9,1.4,9.3,3.1,12.7,4.6c5,2.3,8.1,4.2,8.1,4.2L340.7,262.2z"/>
	<g id="XMLID_56_">
		<g id="XMLID_66_">
			<path class="st5" d="M354.1,334.5c3.8-2.3,21.6-13.7,23.2-17.8c0.7-1.9,4.8-7.8,8.3-13.3c2.1-3.3,7.3-9.7,8.6-11
				c2.3-2.3,5.5-8.2,7.5-6.3c2.5,2.4-1.4,8.4-3.5,12c-0.8,1.3-1.6,2.7-2,4.2c-0.3,1.5-0.3,2.7,0.6,3.9c0.5,0.7,3.8,1,4.9,1
				c8.4-0.4,12.1,0.1,18.3-2.2c6.3-2.3,12.1-5.6,18.1-8.8c1-0.5,1.6-1.6,3.9-1.8c1.1-0.1,3.6,0.1,3.4,1.2c-0.1,0.9-7.2,6.4-7.9,6.9
				c-3.9,2.8-3.5,2.5-7.4,5.3c-0.6,0.4-1.3,0.9-1.4,1.7c-0.1,0.6,0.1,1.2,0.2,1.9c0,1.1-0.8,2.1-1.5,2.9c-1.3,1.4-2.8,2.8-4.3,4.1
				c-2.1,1.8-0.4,3.3-2.7,4.9c-2.5,1.7-9,3.5-11.5,5.1c-2.1,1.3-4.1,2.6-6.4,3.5c-2.7,1.1-5.6,1.6-8.4,2.1
				c-7.8,1.6-21.5,15.7-28.1,20.4"/>
		</g>
		<path id="XMLID_64_" class="st5" d="M398.9,332.9c0,0,9.8-1.2,17.6-4.9c7.8-3.6,27.1-15.5,27.1-15.5s0.3-0.7,0.1-1.1
			c-0.2-0.5-3.1-1.1-5.5-0.1c-2.4,1-17.5,7.6-17.5,7.6"/>
		<path id="XMLID_58_" class="st5" d="M396.9,329.6c0,0,12.4-2.6,20.2-6.2c7.8-3.6,27.1-15.5,27.1-15.5s0.3-0.7,0.1-1.1
			c-0.2-0.5-3.1-1.1-5.5-0.1c-2.4,1-17.5,7.6-17.5,7.6"/>
		<path id="XMLID_57_" class="st5" d="M400.8,322.5c0,0,12.4-2.6,20.2-6.2c7.8-3.6,19.9-9.8,26.8-14.5c0.5-0.3,0.6-1.7,0.4-2.2
			c-0.2-0.5-3.1-1.1-5.5-0.1c-2.4,1-17.5,7.6-17.5,7.6"/>
	</g>
	<path class="st5" d="M354.8,248.1c0,0,30.1,18.3,37.1-18.8c1.7-15.4,3.8-40.3-9-50.1c-12.8-9.8-42.2-10.9-42.9,18.1
		c1.1,8.3,0.8,9,0.8,9s-11-3-8.6,10.7c1.3,6.2,2.9,8.5,2.9,8.5s-22.6,17.7-22.6,17.7c-2.1,1.6-3.8,4.3-6.7,3c-0.3-0.1-0.6-0.3-1-0.4
		c-0.3-0.1-0.7,0-0.9,0.4c-0.1,0.2-0.1,0.4-0.1,0.6c0,1.1-0.5,2.2-0.8,3.2c-1.1,4.1,0,7.9,2.2,11.4c1.8,3,4.4,5.5,7.5,7.3
		c2.9,1.6,6.2,2.5,9.5,3.1c4.2,0.8,8.6,1,12.7-0.1c2.5-0.7,4.2-1.5,6-3.5c0.3-0.4,0.6-0.8,0.9-1.2c0.5-1,0.5-2.2,0.5-3.4
		c0-0.2,0-0.3-0.1-0.5c-0.1-0.1-0.3-0.2-0.5-0.2c-1.8-0.3-0.6-1.3,0.1-2.1c0.8-0.8,1.5-1.6,2.3-2.4c1.6-1.7,3.2-3.3,4.9-4.9
		C351,251.7,352.9,249.9,354.8,248.1z"/>
	<ellipse class="st9" cx="377.2" cy="213.2" rx="2.1" ry="4.2"/>
	<g>
		<g>
			<path class="st15" d="M381.8,199c-0.5-0.4-1.4-0.4-2-0.5c-0.7-0.1-1.3-0.1-2-0.1c-1.4,0-2.9,0.2-4.3,0.6
				c-1.4,0.4-2.7,0.9-3.9,1.5c-0.6,0.3-1.2,0.7-1.8,1.1c-0.6,0.4-1.1,0.8-1.5,1.4c-0.1,0.3,0.1,0.6,0.4,0.5c0.6-0.2,1.1-0.6,1.7-0.9
				c0.6-0.4,1.2-0.7,1.8-1c1.2-0.6,2.4-1.1,3.7-1.4c1.3-0.3,2.6-0.5,3.9-0.6c0.7,0,1.3,0,2,0c0.6,0,1.3,0.2,1.9,0
				C382.1,199.7,382.1,199.2,381.8,199L381.8,199z"/>
		</g>
	</g>
	<path class="st5" d="M393,209.4c-0.7,2.2,0,4.8,0.9,6.9c0.9,2.1,2.3,4.1,3.7,5.9c0.6,0.8,1.2,1.7,1.9,2.5c-1.9,0.6-3.8,1.4-5.6,2.4
		c-1.1,0.6-2.3,1.3-2.5,2.5"/>
	<path class="st18" d="M379.1,231.9c1.3,0.4,2.7,0.6,4,0.4c0.1,0,0.3,0,0.4,0.1c0.1,0.1,0.1,0.2,0.1,0.2c0.1,1.3-0.5,2.6-1,3.8
		c-0.4,0.8-0.8,1.7-1.4,2.3c-1.2,1.4-4,2.3-5.8,1.5c-0.8-0.4-1.4-1.1-1.8-1.9c-1.2-2.1-2.1-5.6-1.1-7.9c0.7-1.6,0.9-1,2.3-0.4
		c1.3,0.6,2.6,1,3.9,1.6C378.8,231.8,379,231.9,379.1,231.9z"/>
	<path class="st17" d="M355.8,328c-21.9,10.2-56.1,28.6-56.1,28.6l-4.9-35.4l-51.6,0.4c0,0,14.9,82.3,26.4,90
		c0,0,13.6,10.2,35.8-5.1c14.6-10.1,48.7-36.8,65.4-51.3L355.8,328z"/>
	<g>
		<g>
			<path class="st19" d="M258.8,387.7c-0.1-2.1-1-4.4-1.6-6.4c-0.7-2.5-1.4-4.9-2-7.4c-1.5-5.7-3.1-11.4-4.5-17.2
				c-3-11.8-5.8-23.7-8.4-35.5c-1.2-5.5-2.2-11-3.4-16.5c-0.1-0.4-0.7-0.3-0.6,0.1c0.4,4.8,1.3,9.6,2.2,14.3
				c1.1,5.8,2.3,11.6,3.7,17.4c2.7,11.9,5.8,23.8,9.1,35.5c0.8,2.9,1.7,5.7,2.5,8.6c0.4,1.3,0.8,2.6,1.2,3.9
				c0.4,1.1,0.7,2.3,1.3,3.3C258.5,388,258.8,388,258.8,387.7L258.8,387.7z"/>
		</g>
	</g>
	<g>
		<g>
			<path class="st19" d="M369.7,353.4c-2.7,1.5-5.1,3.7-7.5,5.6c-2.6,2.1-5.1,4.2-7.5,6.4c-4.9,4.3-9.5,8.9-14,13.6
				c-0.7,0.7,0.4,1.8,1.1,1.1c4.4-4.7,9-9.2,13.8-13.4c2.3-2.1,4.7-4.1,7.2-6.1c2.5-2.1,5.3-3.9,7.7-6.1
				C371,353.9,370.3,353,369.7,353.4L369.7,353.4z"/>
		</g>
	</g>
	<g>
		<g>
			<path class="st19" d="M333.8,339.3c1.8-0.3,3.4-1,5-1.6c1.6-0.7,3.2-1.4,4.8-2.1c1.6-0.8,3.2-1.6,4.7-2.5c1.4-0.8,3.1-1.5,4-2.9
				c0.2-0.3,0-0.8-0.4-0.7c-0.9,0.1-1.4,0.3-2.2,0.7c-0.8,0.5-1.5,0.9-2.3,1.3c-1.5,0.8-3,1.6-4.6,2.4c-1.5,0.8-3.1,1.5-4.7,2.2
				c-1.6,0.7-3.3,1.3-4.8,2.3C332.9,338.7,333.3,339.4,333.8,339.3L333.8,339.3z"/>
		</g>
	</g>
	<g>
		<g>
			<path class="st16" d="M304.5,245.5c-0.5-1-1.5-1.5-2.6-1.4c-1.4,0.1-2.5,1.2-3.3,2.2c-2,2.4-3.2,5.3-3.9,8.3
				c-1.6,7.1-0.6,14.7,1.1,21.7c1.9,7.6,5.1,14.6,8.1,21.9c3,7.3,4.8,15.1,6.5,22.8c2,9.1,3.1,18.2,2.7,27.5c0,0.7,1,0.7,1,0
				c0.6-7.3-0.2-14.8-1.5-21.9c-1.3-7.3-3.1-14.6-5.2-21.7c-2-6.8-5.4-13.1-7.8-19.8c-2.5-6.9-4.3-14.1-4.6-21.5
				c-0.1-3.6,0.1-7.2,1.2-10.6c0.5-1.7,1.3-3.3,2.3-4.8c0.8-1.2,3.8-4.8,5.1-2C303.9,246.5,304.8,246,304.5,245.5L304.5,245.5z"/>
		</g>
	</g>
	<g>
		<g>
			<path class="st16" d="M343.8,260.3c0,0.1,0,0.2,0,0.3c-0.2,0-0.4,0.1-0.6,0.1c4.6,2.2,4.8,8.2,4.4,12.7c-0.2,2.4-0.7,4.8-1.2,7.1
				c-0.5,2.5-0.8,5.1-1.2,7.6c-1.6,10.8-3.3,21.6-5.9,32.2c-1.4,5.9-3.1,11.7-5,17.4c-0.2,0.6,0.7,0.8,0.9,0.2
				c3.8-10.8,6.5-22,8.5-33.2c1-5.8,1.9-11.5,2.8-17.3c0.7-5,2-10,2.4-15.1c0.4-4.1-0.1-11.6-5.3-12.6c-0.2,0-0.4,0-0.6,0.2
				c-0.3,0.4-0.1,0.8,0.3,1C343.7,261.2,344.2,260.6,343.8,260.3L343.8,260.3z"/>
		</g>
	</g>
	<path class="st20" d="M329.8,411.2c0-1-0.9-2.1-2-2c-7.4,0.5-14.8,1-22.1,1.5c-1.1,0.1-2,0.9-2,2c-0.3,11.4,0.3,22.8-0.3,34.2
		c-0.1,1,1,2.1,2,2c7.3-0.6,14.5-1,21.8-1.7c0.1,0,0.1,0,0.2,0c0.8,0.1,1.6-0.4,1.8-1.5C330.8,434.5,329.7,422.4,329.8,411.2z"/>
	<g>
		<g>
			<path class="st21" d="M331.2,212.3c-2.4,0.4-5,1.4-7-0.4c-0.9-0.7-1.5-1.7-2.2-2.6c-0.6-0.8-1.3-1.6-2.3-1.9
				c-0.2,0-0.3,0.2-0.2,0.3c1,0.8,1.8,1.7,2.5,2.7c0.7,0.9,1.4,1.9,2.4,2.5c2.1,1.2,4.8,0.7,6.9-0.3
				C331.5,212.6,331.3,212.3,331.2,212.3L331.2,212.3z"/>
		</g>
	</g>
	<circle class="st22" cx="376.6" cy="213.6" r="10.2"/>
	<g>
		<g>
			<path class="st23" d="M387,210.9c0.3,0.1,0.4-0.3,0.6-0.5c0.2-0.2,0.4-0.4,0.6-0.6c0.5-0.3,1.1-0.5,1.7-0.6
				c0.5-0.1,1.1-0.1,1.6,0.1c0.2,0.1,0.4,0.2,0.6,0.4c0.2,0.2,0.2,0.5,0.5,0.6c0.2,0.1,0.3,0,0.4-0.1c0.2-0.3-0.1-0.7-0.3-1
				c-0.2-0.3-0.5-0.4-0.8-0.6c-0.7-0.3-1.4-0.3-2.1-0.2c-0.7,0.1-1.5,0.4-2.1,0.8C387.5,209.5,386.3,210.6,387,210.9L387,210.9z"/>
		</g>
	</g>
	<g>
		<path class="st15" d="M331,195.3c5.2,3.8,37.9-0.9,48.5-5.7c21.4-9.8,23.5-27.2,18.5-30.4c-0.6-0.4-1.3-0.7-2-0.8
			c-1.7-0.2-3.2,0.8-4.6,1.8c0.5-2,2.5-10.5-2.7-13.9c-7-4.5-15.8,3.1-17.2,4.1c-10,6.7-15.4,7.8-15.4,7.8s1.8-16.8-12-3.9
			c-4.3,4.1-12.4,7.9-16.7,12c-4.5,4.3-7.1,11.3-4.5,17.3"/>
	</g>
	<g>
		<path class="st15" d="M346.3,185.1c3,2.4,4.3,6.3,5.2,10.1c1.3,5.7,1.8,11.7,0,17.2c-0.5,1.6,0.1,8.8-1.1,8.6
			c-0.4-0.1-1.2-5.6-2.7-8.4c-2.3-4.4-9.5-5-12.1-1.5c-3.3,4.3-1.2,7.3,0.3,11.5c1.1,3.2,0,7.1-3.8,8.2c-3.6,1-2.6-1.7-4-4.3
			c-3.1-5.5-6.3-10.3-8.4-16.4c-3.3-9.6-6-24.3,4.1-31c2.5-1.7,10.8-3.7,13.7-2.6"/>
	</g>
	<ellipse class="st3" cx="377.9" cy="215.1" rx="0.9" ry="1.2"/>
	<g>
		<g>
			<path class="st23" d="M343.9,206.6c0.6,1.5,1.9,2.3,3.4,2.9c1.8,0.7,3.7,1.1,5.5,1.6c2,0.5,4.1,0.9,6.1,1.1c1,0.1,2,0.3,3,0.4
				c1,0.1,2.2,0.3,3.3,0.2c0.5-0.1,0.4-0.8,0-1c-0.9-0.3-2-0.2-2.9-0.3c-1-0.1-2-0.2-3-0.3c-1.9-0.3-3.9-0.6-5.8-1
				c-1.8-0.4-3.6-0.8-5.3-1.4c-1.4-0.5-3-1.1-3.8-2.4C344.2,205.9,343.8,206.2,343.9,206.6L343.9,206.6z"/>
		</g>
	</g>
	<g>
		<g>
			<path class="st10" d="M348.6,240.7c0.8,1.6,1.9,3,3.1,4.3c0.6,0.7,1.3,1.3,1.9,1.8c0.6,0.5,1.4,1.1,2.1,1.4
				c0.1,0.1,0.2-0.1,0.1-0.2c-0.6-0.6-1.2-1.2-1.9-1.7c-0.6-0.6-1.3-1.2-1.9-1.8c-1.2-1.3-2.3-2.6-3.3-4.1
				C348.8,240.3,348.5,240.4,348.6,240.7L348.6,240.7z"/>
		</g>
	</g>
	<g>
		<g>
			<path class="st15" d="M409.9,204.5c0.7-0.5,1.5-1,2.2-1.5c0.7-0.5,1.4-1,2-1.7c0.1-0.1,0-0.2-0.1-0.2c-0.8,0.3-1.5,0.8-2.2,1.3
				c-0.7,0.5-1.4,1-2.1,1.6C409.3,204.3,409.6,204.8,409.9,204.5L409.9,204.5z"/>
		</g>
	</g>
	<g>
		<g>
			<path class="st15" d="M412,208.6c0.6-0.1,1.2-0.3,1.8-0.5c0.3-0.1,0.6-0.2,0.9-0.3c0.2-0.1,0.3-0.1,0.4-0.2
				c0.2-0.1,0.3-0.1,0.4-0.3c0.1-0.1,0-0.3-0.1-0.4c-0.2-0.1-0.3-0.1-0.5,0c-0.2,0-0.3,0-0.5,0.1c-0.3,0.1-0.6,0.1-0.9,0.2
				c-0.6,0.2-1.2,0.3-1.8,0.5C411.4,208,411.5,208.7,412,208.6L412,208.6z"/>
		</g>
	</g>
	<g>
		<g>
			<path class="st15" d="M412.4,213.6c0.6-0.2,1.2-0.3,1.9-0.4c0.3,0,0.7,0,1-0.1c0.3,0,0.6,0,0.9-0.1c0.1,0,0.2-0.3,0-0.3
				c-0.3-0.2-0.6-0.2-1-0.2c-0.3-0.1-0.7,0-1,0c-0.7,0.1-1.4,0.2-2,0.5c-0.2,0.1-0.3,0.2-0.2,0.4C412,213.6,412.2,213.7,412.4,213.6
				L412.4,213.6z"/>
		</g>
	</g>
	<g>
		<g>
			<path class="st24" d="M196.1,363.4c-1.2-0.1-1.9,0.9-2.3,2c-0.5,1.5-0.6,3.3-0.8,4.9c-0.2,1.5-0.5,3-0.3,4.4
				c0.1,1.2,0.5,2.8,1.6,3.5c0.2,0.1,0.7,0,0.7-0.3c0-0.1,0-0.3,0.1-0.4c0.1-0.2-0.2-0.5-0.4-0.3c-0.1,0.1-0.2,0.1-0.4,0.2
				c0.2,0.1,0.5,0.1,0.7,0.2c-0.3-0.5-0.6-0.9-0.8-1.4c-0.2-0.5-0.3-1.1-0.3-1.7c-0.1-1.3,0.1-2.5,0.3-3.8c0.2-1.4,0.3-2.8,0.6-4.2
				c0.2-1,0.6-2,1.5-2.5C196.5,363.8,196.4,363.5,196.1,363.4L196.1,363.4z"/>
		</g>
	</g>
	<g>
		<g>
			<path class="st24" d="M199.6,365.7c-1.1,1.8-1.3,4.1-1.5,6.1c-0.1,1.1,0,2.1,0.1,3.2c0,0.5,0.1,1.1,0.2,1.6
				c0.1,0.5,0.1,0.9,0.5,1.2c0.2,0.1,0.4,0,0.5-0.1c0.2-0.4,0.1-0.8,0-1.2c-0.1-0.5-0.2-1.1-0.2-1.6c-0.1-1-0.1-2-0.1-3
				c0.1-2,0.7-4,0.9-6C200.1,365.5,199.7,365.5,199.6,365.7L199.6,365.7z"/>
		</g>
	</g>
	<g>
		<g>
			<path class="st24" d="M257.2,390.4c-0.4,1.2-0.7,2.4-1.3,3.6c-0.3,0.6-0.6,1.1-0.9,1.7c-0.2,0.3-0.3,0.5-0.5,0.8
				c-0.2,0.3-0.4,0.5-0.4,0.9c0,0.3,0.3,0.5,0.5,0.4c0.6-0.2,0.9-1,1.2-1.5c0.3-0.6,0.7-1.2,0.9-1.8c0.5-1.2,0.9-2.5,1-3.9
				C257.9,390.1,257.3,390.1,257.2,390.4L257.2,390.4z"/>
		</g>
	</g>
	<g>
		<g>
			<path class="st24" d="M259.8,394.6c-0.2,0.7-0.4,1.3-0.6,1.9c-0.1,0.3-0.3,0.6-0.5,0.9c-0.1,0.2-0.2,0.3-0.2,0.4
				c-0.1,0.2-0.2,0.3-0.3,0.5c-0.2,0.5,0.5,0.8,0.8,0.5c0.1-0.1,0.2-0.3,0.3-0.5c0.1-0.2,0.2-0.3,0.3-0.5c0.2-0.3,0.3-0.7,0.4-1.1
				c0.2-0.7,0.4-1.4,0.4-2.2C260.4,394.3,259.9,394.2,259.8,394.6L259.8,394.6z"/>
		</g>
	</g>
	<g>
		<g>
			<path class="st24" d="M171.2,363.2c1.3,0.8,2.9,1.3,4.3,2.1c1.4,0.7,2.7,1.6,4.1,2.4c2.7,1.7,5.3,3.5,8.2,4.8
				c1.6,0.7,3.3,1.3,5,1.5c0.5,0,0.6-0.7,0.1-0.8c-1.5-0.3-3-0.7-4.5-1.3c-1.4-0.6-2.8-1.4-4.1-2.2c-2.7-1.6-5.4-3.5-8.2-5
				c-1.5-0.8-3.1-1.7-4.8-1.7C171.1,362.9,171,363.1,171.2,363.2L171.2,363.2z"/>
		</g>
	</g>
	<g>
		<g>
			<path class="st24" d="M199.1,374.7c3.6,1.8,7.2,3.7,10.6,5.7c3.5,2,6.9,4.1,10.4,6.1c3.4,1.9,7,3.7,10.7,5.1
				c3.6,1.3,7.4,2.3,11.2,3c2.1,0.4,4.3,0.7,6.5,1c1.1,0.1,2.2,0.2,3.2,0.3c1.1,0.1,2.1,0.3,3.2,0.1c0.4-0.1,0.3-0.6,0-0.7
				c-0.9-0.3-1.8-0.3-2.6-0.4c-1-0.1-1.9-0.2-2.9-0.3c-2-0.2-3.9-0.5-5.9-0.8c-3.8-0.6-7.5-1.5-11.2-2.8
				c-7.5-2.6-14.3-6.9-21.1-10.8c-3.8-2.2-7.7-4.5-11.8-6.1C199,373.9,198.8,374.6,199.1,374.7L199.1,374.7z"/>
		</g>
	</g>
	<g>
		<g>
			<path class="st24" d="M241.4,441.3c1.7-2.1,3.5-4,5.6-5.7c1.1-0.8,2.2-1.6,3.3-2.3c0.7-0.4,2.6-1.8,3.2-0.7
				c0.1,0.1,0.4,0.1,0.3-0.1c-0.1-1.1-1.5-1.1-2.3-0.8c-1.4,0.5-2.8,1.5-4,2.4c-2.6,1.9-4.9,4.2-6.5,6.9
				C241,441.2,241.2,441.4,241.4,441.3L241.4,441.3z"/>
		</g>
	</g>
	<g>
		<g>
			<path class="st24" d="M230.2,440c-2.3-2.3-4.9-4.2-7.9-5.6c-1.4-0.7-3-1.2-4.5-1.7c-1.5-0.4-3.1-0.8-4.7-0.7
				c-0.2,0-0.2,0.2,0,0.3c1.5,0.4,3,0.7,4.5,1.1c1.5,0.5,3,1,4.4,1.7c2.8,1.3,5.5,3.1,7.8,5.3C230.1,440.7,230.5,440.2,230.2,440
				L230.2,440z"/>
		</g>
	</g>
	<g>
		<g>
			<path class="st24" d="M241,444.2c2.7,0.9,5.3,2.1,7.3,4.1c2,2,3.4,4.6,4,7.4c0.2-0.2,0.5-0.4,0.7-0.6c-2.1-1.2-3.7-3.1-4.9-5.1
				c-0.5-0.8-1.1-1.8-2.1-2.1c-0.8-0.3-1.8-0.4-2.5,0.2c-0.1,0,0,0.1,0.1,0.1c2.2-1.2,3.6,2.2,4.6,3.6c1.2,1.7,2.6,2.9,4.2,4.1
				c0.4,0.3,0.9,0,0.8-0.5c-0.5-3-2.1-5.8-4.3-7.9c-2.1-2.1-4.9-3.7-7.9-3.9C240.7,443.7,240.7,444.1,241,444.2L241,444.2z"/>
		</g>
	</g>
	<g>
		<g>
			<path class="st24" d="M170.4,401.1c5.7-3.5,11-7.9,14-13.9c0.3-0.6-0.6-1.2-1-0.6c-2.9,5.9-8.1,10.1-13.6,13.5
				C169.3,400.5,169.8,401.5,170.4,401.1L170.4,401.1z"/>
		</g>
	</g>
	<g>
		<g>
			<path class="st24" d="M238.8,394.6c0.5,4.7,1.1,9.3,1.2,14c0.1,4.8-0.2,9.6-0.8,14.3c-0.4,2.6-0.8,5.3-1.4,7.9
				c-0.1,0.5,0.6,0.7,0.8,0.2c2.1-9.3,2.8-19,2-28.5c-0.2-2.6-0.6-5.3-1.2-7.9C239.1,394.3,238.7,394.3,238.8,394.6L238.8,394.6z"/>
		</g>
	</g>
	<g>
		<g>
			<path class="st24" d="M237.7,433.2c-0.3,0.4-0.4,1-0.5,1.4c-0.1,0.5-0.2,1.1-0.3,1.6c-0.1,0.5-0.2,1.1-0.3,1.6
				c0,0.3-0.1,0.5-0.1,0.8c0,0.3,0,0.5,0.1,0.7c0,0.2,0.3,0.2,0.3,0c0.1-0.2,0.3-0.4,0.3-0.7c0-0.3,0.1-0.5,0.1-0.8
				c0.1-0.5,0.2-1,0.3-1.6c0.1-0.5,0.2-1,0.3-1.5c0.1-0.5,0.3-1,0.2-1.5C238.1,433.2,237.8,433.1,237.7,433.2L237.7,433.2z"/>
		</g>
	</g>
	<g>
		<g>
			<path class="st24" d="M247.1,395.2c-0.2,3.5,0,7.1,0,10.7c0,3.6,0.1,7.1,0.1,10.7c0,3.3,0.3,6.7-1,9.8c-1.1,2.3-2.8,4.3-4.5,6.2
				c-1.9,2.1-3.8,4.3-4.8,7c-0.2,0.4,0.5,0.6,0.7,0.2c2-4.9,6.9-7.7,9.3-12.4c1.4-2.9,1.5-6,1.4-9.1c-0.1-3.6-0.1-7.2-0.2-10.8
				c0-2-0.1-4-0.1-6c0-2.1,0-4.2-0.2-6.2C247.8,394.8,247.1,394.8,247.1,395.2L247.1,395.2z"/>
		</g>
	</g>
	<g>
		<g>
			<path class="st14" d="M300,260.6c-0.1,4,2,7.5,5,10c1.7,1.3,3.5,2.4,5.5,3.2c1,0.4,2,0.8,3.1,1.1c1.1,0.3,2.2,0.6,3.3,0.7
				c0.4,0,0.6-0.7,0.2-0.8c-0.9-0.4-1.9-0.6-2.8-0.9c-1-0.3-2-0.6-2.9-0.9c-1.9-0.7-3.8-1.7-5.5-2.9c-2.9-2.2-5.2-5.7-5.5-9.4
				C300.5,260.3,300,260.3,300,260.6L300,260.6z"/>
		</g>
	</g>
	<g>
		<g>
			<path class="st14" d="M321.8,275.5c0.6,0.1,1.2,0.2,1.8,0.2c0.6,0,1.3,0,1.9,0c1.2,0,2.5,0.1,3.7-0.3c0.2-0.1,0.2-0.4,0-0.5
				c-1.2-0.4-2.5-0.3-3.7-0.3c-0.6,0-1.2,0-1.8,0c-0.6,0-1.2,0.1-1.9,0.2C321.5,274.9,321.5,275.4,321.8,275.5L321.8,275.5z"/>
		</g>
	</g>
	<g>
		<g>
			<path class="st14" d="M238.1,307.1c-0.1-1-0.3-2-0.6-2.9c-0.4-1-1-1.9-1.7-2.6c-0.7-0.8-1.5-1.4-2.4-1.9
				c-0.5-0.3-0.9-0.5-1.4-0.7c-0.5-0.2-1.1-0.4-1.6-0.1c-0.2,0.1-0.3,0.4-0.1,0.5c0.3,0.4,0.8,0.5,1.3,0.7c0.4,0.1,0.8,0.3,1.2,0.5
				c0.8,0.4,1.6,1,2.2,1.7c1.3,1.3,2.4,3.1,2.6,4.9C237.8,307.4,238.2,307.4,238.1,307.1L238.1,307.1z"/>
		</g>
	</g>
	<g>
		<g>
			<path class="st10" d="M345.6,220.5c0.3-1,0.1-2.1-0.2-3.1c-0.3-1-0.7-1.9-1.3-2.7c-0.5-0.8-1.1-1.6-1.9-2.1
				c-0.4-0.2-0.8-0.4-1.2-0.4c-0.5,0-1.5,0.1-1.8,0.6c-0.3,0.5,0.6,0.3,0.8,0.3c0.1,0,0.5-0.1,0.2-0.1c-0.1,0-0.2,0-0.2,0
				c0,0,0.1,0,0.1,0c0.1,0.1,0.3,0.1,0.4,0.2c0.3,0.2,0.6,0.4,0.9,0.7c0.6,0.6,1.1,1.3,1.6,2.1c0.4,0.7,0.8,1.5,1,2.3
				c0.3,0.8,0.4,1.7,0.7,2.5C344.8,220.9,345.5,220.7,345.6,220.5L345.6,220.5z"/>
		</g>
	</g>
	<g>
		<g>
			<path class="st10" d="M343.3,215.9c0-0.8-0.7-1.4-1.5-1.5c-0.6,0-1.2,0.1-1.7,0.5c-0.1,0.1-0.2,0.1-0.3,0.2c0,0-0.1,0.1,0,0.1
				c0,0.1-0.1,0.1-0.1,0.2c0,0.1-0.1,0.1-0.1,0.2c0,0.1,0,0.2,0.1,0.2c0,0.1,0.2,0,0.3,0c0.1,0,0.2-0.1,0.3-0.1
				c0.1-0.1,0.2-0.1,0.3-0.2c0.1-0.1,0.1-0.1,0.2-0.2c0.1-0.1,0,0,0.1-0.1c0.1-0.1-0.1,0,0,0c0.1-0.1,0.2-0.1,0.3-0.2
				c0.1-0.1-0.1,0.1,0,0c0,0,0,0,0.1,0c0,0,0,0-0.1,0c0,0,0.2-0.1,0,0c-0.1,0,0,0,0,0c-0.1,0-0.1,0-0.1,0c0,0,0,0,0,0
				c-0.1,0-0.1,0-0.1,0c0,0,0,0,0.1,0c0,0,0.1,0,0,0c-0.1,0,0.1,0,0.1,0c0,0,0.1,0,0,0c0,0,0.1,0,0.1,0c0.1,0,0.1,0.1,0.2,0.1
				c0.1,0.1,0.2,0.2,0.3,0.3c0.2,0.2,0.4,0.4,0.4,0.7c0,0.2,0.4,0.1,0.6,0.1C343,216.2,343.3,216.1,343.3,215.9L343.3,215.9z"/>
		</g>
	</g>
	<g>
		<g>
			<path class="st10" d="M374.3,215.9c0,0.1,0,0.1,0,0.2c0,0.1,0,0.1,0,0.2c0,0,0,0.1,0,0.1c0,0,0,0.1,0,0.1c0,0.1,0,0.1,0.1,0.2
				c0.1,0.2,0.2,0.4,0.4,0.6c0.2,0.2,0.3,0.3,0.5,0.4c0.1,0.1,0.2,0.1,0.3,0.2c0.1,0,0.1,0,0.2,0c0.1,0,0.2,0,0.3,0c0,0-0.1,0-0.1,0
				c0.1,0,0.2,0,0.4,0c0,0,0.3-0.1,0.3-0.2c0,0-0.1-0.1-0.1-0.1c0,0,0,0,0,0c-0.1-0.1-0.3-0.2-0.5-0.2c-0.2-0.1-0.3-0.2-0.4-0.3
				c-0.1-0.1-0.2-0.3-0.4-0.4c-0.1-0.1-0.1-0.1-0.2-0.2c0,0,0-0.1-0.1-0.1c0-0.1-0.1-0.1-0.1-0.1c0,0,0,0,0.1,0
				c-0.1-0.1-0.1-0.2-0.2-0.3C374.7,215.7,374.3,215.8,374.3,215.9L374.3,215.9z"/>
		</g>
	</g>
	<g>
		<g>
			<path class="st14" d="M292.6,295.4c0.4,9.6,1.4,19.1,2.5,28.7c0.9,7.7,2,15.4,3.1,23.1c0.2,1.1,0.3,2.2,0.5,3.2
				c0.1,0.3,0.1,0.6,0.2,0.8c0,0.1,0,0.1,0.1,0.2c0,0.1,0.1,0.2,0.1,0.2c0.2,0.3-0.1-0.2-0.1-0.2c0.1,0.4,0.6,0.4,0.8,0.1
				c0.1-0.1,0.1-0.2,0-0.4c-0.1-0.5-0.9-0.3-0.8,0.2c0-0.1,0-0.2,0-0.3c0.3,0,0.5,0.1,0.8,0.1c0,0,0,0,0,0c0,0.1,0,0.2,0,0.3
				c0.2-0.3,0.1-1,0-1.3c-0.1-0.9-0.2-1.9-0.4-2.8c-0.4-3.1-0.9-6.2-1.3-9.3c-1.2-9.1-2.3-18.2-3.3-27.3c-0.6-5.2-1.1-10.3-1.6-15.5
				C293.2,295,292.6,295,292.6,295.4L292.6,295.4z"/>
		</g>
	</g>
	<g>
		<g>
			<path class="st14" d="M313.7,349.2c-0.3,0.1-0.6,0.1-0.9,0.1c-0.4,0.1-0.8,0.2-1.1,0.3c-0.8,0.2-1.6,0.6-2.4,0.9
				c-2,0.8-3.9,1.7-5.9,2.5c-4.2,1.9-8.3,3.9-12.4,5.9c-1.6,0.8-3.1,1.7-4.6,2.7c-0.3,0.2-0.1,0.6,0.2,0.5c3.5-1.1,6.8-2.8,10.1-4.4
				c4.1-2,8.2-3.9,12.3-5.8c0.9-0.4,1.9-0.8,2.8-1.3c0.4-0.2,0.7-0.4,1.1-0.5c0.3-0.1,0.6-0.4,0.9-0.5
				C314.2,349.6,314.1,349.1,313.7,349.2L313.7,349.2z"/>
		</g>
	</g>
	<g>
		<g>
			<path class="st14" d="M396.6,400.9c-0.3,0.9-0.3,1.8-0.5,2.8c-0.1,0.9-0.3,1.8-0.4,2.7c-0.4,1.9-0.9,3.7-1.5,5.5
				c-1.2,3.5-3,6.9-5.2,10c-0.6,0.9-1.3,1.7-2,2.6c-0.7,0.8-1.4,1.6-2.1,2.4c-0.2,0.3,0.2,0.8,0.6,0.6c1.5-1.1,2.7-2.7,3.9-4.2
				c1.2-1.5,2.2-3.2,3.1-4.9c1.9-3.4,3.2-7.1,4-10.9c0.2-1.1,0.4-2.2,0.5-3.3c0.1-1,0.2-2.2,0-3.2
				C397,400.6,396.6,400.7,396.6,400.9L396.6,400.9z"/>
		</g>
	</g>
	<g>
		<g>
			<path class="st14" d="M192.5,359.3c-0.3-0.9-0.5-1.8-0.7-2.8c-0.2-0.9-0.5-1.8-0.7-2.8c-0.4-1.9-0.6-3.9-0.6-5.9
				c0-1.9,0.1-3.9,0.4-5.8c0.3-1.9,0.9-3.8,1.2-5.7c0.1-0.4-0.5-0.7-0.7-0.3c-1,1.7-1.4,3.8-1.7,5.8c-0.3,2-0.4,4-0.4,6
				c0.1,2,0.3,4,0.7,5.9c0.2,1,0.4,2,0.8,3c0.3,1,0.8,1.8,1.2,2.7C192,359.9,192.6,359.7,192.5,359.3L192.5,359.3z"/>
		</g>
	</g>
	<g>
		<g>
			<path class="st14" d="M203,364.4c-1.3-3.5-3-6.9-3.3-10.7c-0.1-0.7-0.2-1.8,0.2-2.4c0.6-0.9,1.7-0.1,2.2,0.4
				c1.3,1.4,1.4,3.2,1.4,5c0,0.4,0.5,0.4,0.6,0.1c0.6-1.8-0.1-4.3-1.3-5.7c-0.6-0.6-1.4-1.2-2.3-1.1c-0.9,0.1-1.4,0.8-1.6,1.6
				c-0.2,1,0,2.1,0.1,3.1c0.2,1.2,0.5,2.3,0.9,3.4c0.8,2.2,1.8,4.3,2.7,6.5C202.6,365,203.1,364.7,203,364.4L203,364.4z"/>
		</g>
	</g>
	<g>
		<g>
			<path class="st14" d="M225.3,378.3c-1.2-1.9-2.3-4-3.1-6.1c-0.8-2.1-1.3-4.3-1.8-6.5c0-0.2-0.4-0.2-0.4,0.1
				c0.1,4.6,2,9.2,4.9,12.8C225.1,378.8,225.5,378.5,225.3,378.3L225.3,378.3z"/>
		</g>
	</g>
	<g>
		<g>
			<path class="st14" d="M245.4,386c2-0.2,3.7-0.9,5.3-2.1c0.8-0.6,1.5-1.3,2-2c0.3-0.4,0.6-0.8,0.8-1.2c0.2-0.5,0.4-0.9,0.5-1.4
				c0.1-0.4-0.4-0.5-0.6-0.2c-0.3,0.4-0.5,0.7-0.8,1.1c-0.2,0.4-0.5,0.7-0.8,1.1c-0.6,0.7-1.2,1.3-1.8,1.8c-1.4,1.1-3.1,1.9-4.7,2.3
				C244.9,385.4,245,386,245.4,386L245.4,386z"/>
		</g>
	</g>
	<g>
		<g>
			<path class="st14" d="M245.4,382.1c1.3-0.4,2.4-1.1,3.4-2.1c0.5-0.5,0.9-1,1.3-1.5c0.2-0.3,0.4-0.5,0.5-0.8
				c0.1-0.3,0.3-0.7,0.3-1c0-0.3-0.3-0.4-0.5-0.2c-0.2,0.2-0.4,0.5-0.5,0.8c-0.2,0.3-0.3,0.5-0.5,0.8c-0.3,0.5-0.7,0.9-1.2,1.4
				c-0.9,0.8-1.9,1.5-3,2C244.7,381.5,245,382.2,245.4,382.1L245.4,382.1z"/>
		</g>
	</g>
	<g>
		<g>
			<path class="st10" d="M373.5,245.6c0,0,0.1,0,0.2-0.1c0,0,0,0,0,0c0,0,0.1,0,0.1,0c0,0,0.1,0,0.1,0c0.1,0,0,0,0,0
				c0.1,0,0.1,0,0.2,0c0.1,0,0,0,0,0c0,0,0.1,0,0.1,0c0,0,0.1,0,0.1,0c-0.1,0,0,0,0,0c0.1,0,0.1,0,0.2,0c0.1,0,0.1,0,0.1,0
				c0.2,0.1,0.5,0.1,0.7,0.3c0.3,0.2,0.6,0.3,0.9,0.4c0.1,0,0.3,0,0.4-0.1c0.1-0.1,0-0.3,0-0.4c-0.1-0.1-0.2-0.2-0.3-0.3
				c-0.3-0.2-0.6-0.3-1-0.3c-0.7-0.1-1.6,0-2.2,0.5c-0.1,0.1-0.1,0.2,0,0.2C373.2,245.7,373.4,245.6,373.5,245.6L373.5,245.6z"/>
		</g>
	</g>
</g>
<g>
	<g>
		<path class="st17" d="M712.1,193.2H587.6c-10.6,0-19.6,7.6-21.4,18.1l-10.8,63.3c-2.3,13.3,8,25.3,21.4,25.3h0.6l-4.9,25.9
			l24-25.9h104.8c10.6,0,19.6-7.6,21.4-18.1l10.8-63.3C735.8,205.3,725.6,193.2,712.1,193.2z"/>
		<g class="st25">
			<g>
				<path class="st24" d="M640.7,217c10.4,0.5,20.7,0.7,31.1,0.9c10.4,0.2,20.7,0.5,31.1,0.7c2.9,0.1,5.7,0.1,8.6,0.2
					c2.9,0.1,5.9,0.3,8.9,0c0.6-0.1,0.8-1,0.2-1.1c-2.6-0.4-5.2-0.3-7.8-0.4c-2.6-0.1-5.2-0.1-7.7-0.2c-5.2-0.1-10.4-0.2-15.6-0.4
					c-10.4-0.2-20.7-0.5-31.1-0.7c-5.9-0.1-11.7-0.2-17.6-0.2C640,215.9,640,216.9,640.7,217L640.7,217z"/>
			</g>
		</g>
		<g class="st25">
			<g>
				<path class="st24" d="M637.1,233.1c9.9,0.6,19.9,0.9,29.9,1c10,0.1,19.9,0,29.9-0.4c2.8-0.1,5.7-0.2,8.5-0.4
					c1.4-0.1,2.7-0.1,4.1-0.2c0.7,0,1.4-0.1,2.1-0.1c0.8,0,1.5-0.2,2.2-0.3c0.8-0.1,0.9-1.3,0-1.3c-1.3,0-2.5,0-3.7,0.1
					c-1.2,0.1-2.5,0.1-3.7,0.2c-2.5,0.1-5,0.2-7.5,0.4c-5,0.2-10,0.3-15,0.4c-10,0.2-19.9,0.1-29.9-0.2c-5.6-0.2-11.3-0.4-16.9-0.8
					C636,231.4,636,233,637.1,233.1L637.1,233.1z"/>
			</g>
		</g>
		<g class="st25">
			<g>
				<path class="st24" d="M637.2,246c10.2,0.9,20.3,1.7,30.5,2.4c6.4,0.4,12.7,0.4,19.1,0.2c7-0.2,14-0.4,20.9-0.6
					c1.3,0,1.3-2.1,0-2.1c-10.2,0.4-20.4,1-30.6,1c-6.4,0-12.7-0.5-19.1-1c-7-0.5-13.9-0.9-20.9-1.2
					C636.3,244.6,636.3,245.9,637.2,246L637.2,246z"/>
			</g>
		</g>
		<g class="st25">
			<g>
				<path class="st24" d="M577.5,257.9c6.9,0.6,13.9,1,20.8,1.3c8.6,0.4,17.2,0.7,25.8,0.9c9.3,0.3,18.5,0.5,27.8,0.6
					c8.8,0.2,17.5,0.3,26.3,0.3c7.2,0.1,14.4,0,21.6,0c0.7,0,1.4-0.1,2.2-0.1c1.1,0,1.1-1.8,0-1.7c-7,0.1-13.9,0-20.9,0
					c-8.6,0-17.2-0.1-25.8-0.2c-9.3-0.1-18.5-0.2-27.8-0.4c-8.8-0.2-17.5-0.4-26.3-0.7c-7.2-0.2-14.4-0.4-21.6-0.8
					c-0.7,0-1.4-0.1-2.2-0.1C576.9,256.9,576.9,257.9,577.5,257.9L577.5,257.9z"/>
			</g>
		</g>
		<g class="st25">
			<g>
				<path class="st24" d="M576.1,269.3c6.9,0.6,13.8,1,20.7,1.4c8.5,0.5,17.1,0.7,25.6,1c9.1,0.3,18.2,0.5,27.3,0.8
					c8.6,0.2,17.3,0.4,25.9,0.5c7.1,0.1,14.3,0.1,21.4,0c0.7,0,1.5-0.1,2.2-0.1c1.1,0,1.1-1.8,0-1.7c-6.9,0.1-13.8-0.1-20.7-0.1
					c-8.5,0-17.1-0.1-25.6-0.3c-9.1-0.1-18.2-0.3-27.3-0.6c-8.6-0.2-17.3-0.5-25.9-0.8c-7.1-0.3-14.3-0.5-21.4-0.9
					c-0.7,0-1.5-0.1-2.2-0.1C575.5,268.3,575.5,269.3,576.1,269.3L576.1,269.3z"/>
			</g>
		</g>
		<g class="st25">
			<g>
				<path class="st24" d="M582.5,210.7c-2.6,9.1-1.1,18.6-2.1,27.9c-0.1,1.3-0.3,2.5-0.6,3.8c-0.1,0.7-0.3,1.3-0.5,1.9
					c-0.2,0.7-0.5,1.3-0.2,2c0.2,0.5,0.8,0.9,1.3,0.5c1-0.6,1.1-2.2,1.3-3.3c0.2-1.1,0.4-2.3,0.6-3.5c0.3-2.3,0.4-4.7,0.5-7
					c0.1-4.7-0.1-9.4,0.3-14.1c0.2-2.6,0.7-5.2,1.4-7.7C584.9,210,582.9,209.4,582.5,210.7L582.5,210.7z"/>
			</g>
		</g>
		<g class="st25">
			<g>
				<path class="st24" d="M584.7,211.3c11.7,0.1,23.4,0.4,35.1,1.4c3.3,0.3,6.6,0.6,9.8,1c-0.4-0.5-0.8-1-1.2-1.5
					c-1.3,8.9-2.2,17.8-2.5,26.8c-0.1,2.5-0.1,5.1-0.1,7.6c0,1.9,3,1.9,3,0c0-4.4,0-8.9,0.3-13.3c0.2-4.4,0.4-8.8,0.8-13.3
					c0.2-2.5,0.5-5.1,0.9-7.6c0.1-0.7-0.6-1.2-1.2-1.2c-11.6-1.2-23.3-1.8-35-1.8c-3.3,0-6.6,0.1-9.9,0.3
					C583.7,209.8,583.7,211.3,584.7,211.3L584.7,211.3z"/>
			</g>
		</g>
		<g class="st25">
			<g>
				<path class="st24" d="M581.5,248.1c11-1.3,22.2-1.3,33.2,0c3.1,0.4,6.1,0.8,9.2,1.4c0.8,0.1,1.4-0.1,1.8-0.7
					c0.3-0.4,0.3-0.8,0.2-1.3c-0.1-0.5-0.6-1-1.1-1.1c-11.2-2.1-22.7-2.5-34-1.7c-3.2,0.2-6.4,0.6-9.6,1.1
					C579.8,245.9,580.1,248.3,581.5,248.1L581.5,248.1z"/>
			</g>
		</g>
		<g class="st25">
			<g>
				<path class="st24" d="M588.5,217.7c-0.6,6-1,12.1-1.2,18.1c0,1.3,2,1.3,2,0c-0.1-6.1,0.1-12.1,0.5-18.1
					C589.9,216.9,588.6,216.9,588.5,217.7L588.5,217.7z"/>
			</g>
		</g>
		<g class="st25">
			<g>
				<path class="st24" d="M588.6,236.9c9.3,0.5,18.5,0.8,27.8,1.1c2.6,0.1,5.2,0.3,7.9,0.2c1.3,0,1.3-1.9,0-2
					c-2.3-0.2-4.7-0.2-7-0.2c-2.3-0.1-4.6-0.1-6.9-0.2c-4.7-0.1-9.3-0.2-14-0.3c-2.6-0.1-5.2-0.1-7.9-0.1
					C587.6,235.4,587.6,236.9,588.6,236.9L588.6,236.9z"/>
			</g>
		</g>
		<g class="st25">
			<g>
				<path class="st24" d="M593.8,232c0.6-1.9,1.2-3.7,1.9-5.6c0.3-0.8,0.5-1.6,0.8-2.4c0.2-0.6,0.6-1.4,1.3-1.6
					c1.6-0.5,2.6,1.6,3.3,2.7c1,1.6,1.8,3.3,2.9,4.9c0.8,1.2,2.1,2.3,3.7,1.8c1.6-0.5,2.1-2.3,2.6-3.7c0.6-1.8,1.2-3.6,1.9-5.4
					c0.1-0.1,0.2-0.6,0.4-0.6c0.3,0,0.6,0.5,0.7,0.6c0.7,0.8,1.3,1.6,1.9,2.4c1.1,1.3,2.4,3.2,4.4,2.6c1.8-0.6,2.6-3,3.4-4.5
					c-0.3,0.2-0.5,0.3-0.8,0.5c0.1,0,0.2,0,0.4,0c0.7-0.1,1.3-0.4,1.5-1.1c0.2-0.7-0.1-1.4-0.7-1.7c-0.5-0.3-1.2-0.2-1.7,0.1
					c-0.7,0.5-0.7,1.3-0.4,2c0,0.1,0.1,0.2,0.1,0.3c0-0.3,0-0.6,0-0.9c-0.5,0.8-1,1.6-1.5,2.5c-0.2,0.4-0.6,1.1-1.1,1
					c-0.7-0.1-1.3-1-1.7-1.4c-0.6-0.7-1.3-1.5-1.9-2.2c-0.5-0.6-1-1.2-1.7-1.5c-0.8-0.4-1.8-0.2-2.3,0.5c-0.5,0.6-0.6,1.4-0.9,2.1
					c-0.3,0.9-0.7,1.9-1.1,2.8c-0.4,0.9-0.7,1.8-1.1,2.7c-0.2,0.4-0.5,1.2-1,1.3c-0.5,0-0.9-0.6-1.1-0.9c-0.6-0.7-1.1-1.6-1.6-2.4
					c-1-1.5-1.8-3.2-3.1-4.4c-1-1-2.6-1.7-4-1.1c-1.7,0.7-2.1,2.7-2.6,4.3c-0.7,2.1-1.4,4.2-2.1,6.3
					C592,232.5,593.5,232.9,593.8,232L593.8,232z"/>
			</g>
		</g>
	</g>
	<g>
		<path class="st20" d="M529.9,89.4h-82c-7,0-12.9,5-14.1,11.9l-7.1,41.7c-1.5,8.7,5.2,16.7,14.1,16.7h0.4l-8.2,11.9l20.8-11.9h69
			c7,0,12.9-5,14.1-11.9l7.1-41.7C545.5,97.3,538.8,89.4,529.9,89.4z"/>
		<g class="st25">
			<g>
				<path class="st24" d="M445.8,103.9c11.6,0.6,23.3,0.8,34.9,1.2c11.6,0.3,23.3,0.6,34.9,0.9c3.2,0.1,6.5,0.2,9.7,0.3
					c3.3,0.1,6.7,0.3,10,0.1c0.6,0,0.6-0.9,0-1c-2.9-0.3-5.8-0.3-8.7-0.4c-2.9-0.1-5.8-0.2-8.7-0.2c-5.8-0.2-11.6-0.3-17.5-0.5
					c-11.6-0.3-23.3-0.6-34.9-0.9c-6.6-0.2-13.1-0.3-19.7-0.4C445.2,103,445.2,103.8,445.8,103.9L445.8,103.9z"/>
			</g>
		</g>
		<g class="st25">
			<g>
				<path class="st24" d="M442,114.5c11.2,0.5,22.4,0.9,33.6,1.2s22.4,0.3,33.6,0.2c6.3-0.1,12.6,0,18.9-0.4c0.7,0,0.7-1.1,0-1.1
					c-5.6-0.1-11.2,0.1-16.8,0.2c-5.6,0.1-11.2,0.1-16.8,0c-11.2,0-22.4-0.3-33.6-0.6c-6.3-0.2-12.6-0.5-18.9-0.8
					C441.1,113,441.1,114.4,442,114.5L442,114.5z"/>
			</g>
		</g>
		<g class="st25">
			<g>
				<path class="st24" d="M439.8,124.1c10.9,0.8,21.8,1.3,32.7,1.6c10.9,0.3,21.8,0.3,32.8,0.2c6.1-0.1,12.3-0.2,18.4-0.4
					c0.9,0,0.9-1.4,0-1.4c-10.9,0.4-21.8,0.6-32.8,0.6c-10.9,0-21.8-0.2-32.8-0.7c-6.1-0.2-12.3-0.5-18.4-0.8
					C439.2,123.2,439.2,124.1,439.8,124.1L439.8,124.1z"/>
			</g>
		</g>
		<g class="st25">
			<g>
				<path class="st24" d="M437.5,134.5c15,1.3,30.1,1.9,45.2,2.1c4.2,0,8.5,0.2,12.7-0.1c0.7,0,0.7-1.1,0-1.1c-3.8-0.1-7.6,0-11.4,0
					c-3.7,0-7.5,0-11.2-0.1c-7.5-0.1-15.1-0.4-22.6-0.8c-4.2-0.2-8.4-0.4-12.7-0.6C437.1,133.9,437.1,134.5,437.5,134.5L437.5,134.5
					z"/>
			</g>
		</g>
	</g>
	<g>
		<path class="st20" d="M238,112.7H125.7c-9.5,0-17.7,6.9-19.3,16.3L96.8,186c-2,11.9,7.2,22.9,19.3,22.9H211l16.6,20.9l0.7-20.9
			h0.2c9.5,0,17.7-6.9,19.3-16.3l9.7-57.1C259.4,123.6,250.2,112.7,238,112.7z"/>
		<g class="st26">
			<g>
				<path class="st24" d="M165.6,133.7c10.4,0.4,20.8,0.6,31.2,0.9c10.4,0.2,20.7,0.5,31.1,0.7c2.9,0.1,5.8,0.1,8.7,0.2
					c2.9,0.1,5.9,0.2,8.9,0.1c0.5,0,0.5-0.7,0-0.7c-2.6-0.3-5.2-0.2-7.9-0.3c-2.6-0.1-5.2-0.1-7.7-0.2c-5.2-0.1-10.4-0.2-15.6-0.4
					c-10.4-0.2-20.7-0.5-31.1-0.7c-5.9-0.1-11.7-0.3-17.6-0.3C165.2,133.1,165.2,133.7,165.6,133.7L165.6,133.7z"/>
			</g>
		</g>
		<g class="st26">
			<g>
				<path class="st24" d="M162.1,148.1c10,0.6,20,0.9,30,1c10,0.1,20,0,30-0.3c5.6-0.2,11.3-0.3,16.9-0.8c0.5,0,0.5-0.8,0-0.8
					c-5,0.1-10,0.4-15.1,0.6c-5,0.2-10,0.3-14.9,0.3c-10,0.1-20,0-30-0.3c-5.6-0.2-11.3-0.4-16.9-0.7
					C161.4,147.1,161.4,148.1,162.1,148.1L162.1,148.1z"/>
			</g>
		</g>
		<g class="st26">
			<g>
				<path class="st24" d="M114.6,160.1c14.9,1.1,29.9,1.7,44.9,2.1c15,0.4,29.9,0.4,44.9,0.3c8.4-0.1,16.7-0.3,25.1-0.6
					c0.8,0,0.8-1.3,0-1.2c-15,0.5-29.9,0.9-44.9,0.8c-15,0-29.9-0.3-44.9-0.9c-8.4-0.3-16.7-0.7-25.1-1.2
					C114.1,159.3,114.1,160,114.6,160.1L114.6,160.1z"/>
			</g>
		</g>
		<g class="st26">
			<g>
				<path class="st24" d="M111.5,174.4c10.3,0.8,20.6,1.5,30.9,1.9c10.3,0.4,20.6,0.7,31,0.8c5.8,0.1,11.6,0.2,17.4-0.1
					c0.7,0,0.7-1,0-1c-5.1-0.1-10.3,0-15.4,0c-5.2,0-10.4-0.1-15.5-0.2c-10.3-0.2-20.6-0.6-30.9-1.1c-5.8-0.3-11.6-0.6-17.4-0.9
					C111.1,173.7,111.2,174.3,111.5,174.4L111.5,174.4z"/>
			</g>
		</g>
		<g class="st26">
			<g>
				<path class="st24" d="M118.6,128c-0.6,3.9-1,7.9-1.6,11.8c-0.3,1.7-0.6,3.5-0.7,5.2c-0.1,1.5,0.2,3,1.4,3.9
					c1.1,0.8,2.5,1,3.8,1.2c2,0.2,3.9,0.4,5.9,0.6c3.9,0.4,7.8,0.7,11.7,1.1c1.9,0.2,3.8,0.4,5.7,0.4c1.6,0,3.4-0.2,4.7-1.1
					c1.5-1,1.5-2.6,1.5-4.3c-0.1-1.8-0.2-3.6-0.4-5.4c-0.1-1.8-0.2-3.6-0.1-5.4c0.1-1.8,0.5-3.6,1.2-5.3c0.5-1.5,1-3.2,0-4.6
					c-0.8-1.2-2.3-1.6-3.6-1.7c-1.9-0.2-3.9-0.1-5.8-0.1c-2.2,0-4.5,0-6.7,0.1c-4.4,0.1-8.7,0.2-13.1,0.3c-0.7,0-1.2,0.6-1.2,1.2
					c0,0.6,0.6,1.3,1.2,1.2c3.6-0.4,7.2-0.7,10.9-0.9c3.5-0.1,7.1-0.2,10.6-0.2c1.5,0,3.1-0.1,4.5,0.2c1.3,0.3,2.2,0.9,2,2.4
					c-0.1,0.7-0.4,1.4-0.6,2.1c-0.3,0.8-0.5,1.7-0.7,2.5c-0.3,1.6-0.4,3.2-0.3,4.9c0.1,3.4,0.7,6.8,0.7,10.1c0,0.7-0.2,1.4-0.8,1.8
					c-0.7,0.4-1.5,0.6-2.3,0.7c-1.6,0.3-3.3,0.1-5,0c-3.6-0.3-7.3-0.6-10.9-0.9c-1.7-0.1-3.5-0.3-5.2-0.4c-1.7-0.1-3.4-0.1-5-0.4
					c-1.7-0.3-3-1-3.1-2.9c0-0.9,0.1-1.8,0.2-2.7c0.1-1,0.3-2,0.4-2.9c0.6-4,1.2-8,1.8-12C119.8,127.6,118.7,127.3,118.6,128
					L118.6,128z"/>
			</g>
		</g>
		<g class="st26">
			<g>
				<path class="st24" d="M130.1,141c0.5-2.7,0.7-5.4,1-8.1c-0.1,0.2-0.1,0.3-0.2,0.5c0.1-0.1,0.1-0.1-0.1,0c0,0,0,0,0.1,0
					c0.1,0.1,0.2,0.1,0.2,0.1c0.3,0.2,0.5,0.5,0.8,0.8c0.5,0.6,1.1,1.1,1.6,1.7c1.1,1.2,2.2,2.3,3.2,3.5c0.1-0.5,0.2-0.9,0.4-1.4
					c-2.1,0.8-4.1,1.7-6.2,2.5c-0.4,0.2-0.7,0.6-0.6,1c0.1,0.4,0.6,0.8,1,0.6c2.1-0.8,4.1-1.7,6.2-2.6c0.6-0.2,0.8-0.9,0.4-1.4
					c-1.1-1.2-2.2-2.5-3.4-3.6c-0.6-0.6-1.2-1.2-1.8-1.7c-0.5-0.5-1-0.9-1.7-1.1c-0.3-0.1-0.7,0-0.9,0.2c-0.4,0.3-0.5,0.7-0.5,1.1
					c-0.1,0.8-0.2,1.7-0.3,2.5c-0.2,1.7-0.4,3.4-0.4,5.1C128.9,141.5,130,141.6,130.1,141L130.1,141z"/>
			</g>
		</g>
	</g>
</g>
<g>
	<g>
		<circle class="st12" cx="613" cy="359.6" r="2.7"/>
		<circle class="st12" cx="621.6" cy="359.6" r="2.7"/>
		<circle class="st12" cx="630.2" cy="359.6" r="2.7"/>
	</g>
	<g>
		<circle class="st12" cx="623.5" cy="154.6" r="2.7"/>
		<circle class="st12" cx="632.1" cy="154.6" r="2.7"/>
		<circle class="st12" cx="640.8" cy="154.6" r="2.7"/>
	</g>
	<g>
		<circle class="st12" cx="134" cy="259.1" r="2.7"/>
		<circle class="st12" cx="142.6" cy="259.1" r="2.7"/>
		<circle class="st12" cx="151.2" cy="259.1" r="2.7"/>
	</g>
</g>
</svg>
