<?xml version="1.0" encoding="utf-8"?>
<!-- Generator: Adobe Illustrator 24.1.3, SVG Export Plug-In . SVG Version: 6.00 Build 0)  -->
<svg version="1.1" id="Layer_1" xmlns="http://www.w3.org/2000/svg" xmlns:xlink="http://www.w3.org/1999/xlink" x="0px" y="0px"
	 viewBox="0 0 210 210" style="enable-background:new 0 0 210 210;" xml:space="preserve">
<g id="Layer_2_1_">
	<g id="Layer_1-2">
		<path d="M105,0C47,0,0,47,0,105c0,58,47,105,105,105c58,0,105-47,105-105C210,47,163,0,105,0z M179,150c-3.9,5.9-11,11.7-15.8,9.6
			c-4.3-1.8-4.4-8.9-6.3-20c0,0-0.1,0-0.1,0c-0.8-5.1-1.9-10.1-3.3-15.1c-4.8-16-14.3-33.8-19.6-32.5c-5.3,1.3-2.3,18.5-12,30.9
			c-0.1-0.2-0.2-0.3-0.3-0.5c0,0,0,0,0,0c0.1,0.1,0.2,0.3,0.2,0.4c-0.5,0.6-1,1.3-1.6,1.9c-1.2,1.2-8.3,8.7-17.1,8.2
			c-6.7-0.4-12.1-5.5-16.7-11.8v0c-8.3-11.2-14-26.2-21.3-24.5c-5.8,1.3-8.4,12.2-8.7,13.5c-2.5,10.7,2.2,19.6,5.8,27.2
			c-0.2,0-0.4,0.1-0.6,0.1c0,0,0,0.1,0.1,0.1c0.2,0,0.4-0.1,0.6-0.1c2.7,5.6,4.8,10.6,2.9,15c-3.1,7.8-17.2,11-26.5,5.1
			c-9.2-5.9-14.3-22-14.3-39.7c-0.2-15.1,3.8-30,11.6-42.9l1.6-2.3c5.1-7,18.1-22.7,35.3-19.6c16.7,3,30.9,23,32.4,49.4
			c-0.9-26.3,9.5-47.4,22.8-52.1c13.6-4.8,26.7,7.9,32.1,12.9c3.2,3.1,6.1,6.5,8.6,10.2c9,13.2,14.5,28.4,16,44.3c0,0,0,0,0-0.1
			C186.2,130.4,184.4,142.1,179,150z"/>
	</g>
</g>
</svg>
