<?xml version="1.0" encoding="utf-8"?>
<!-- Generator: Adobe Illustrator 24.1.3, SVG Export Plug-In . SVG Version: 6.00 Build 0)  -->
<svg version="1.1" id="Layer_1" xmlns="http://www.w3.org/2000/svg" xmlns:xlink="http://www.w3.org/1999/xlink" x="0px" y="0px"
	 viewBox="0 0 198.4 214.3" style="enable-background:new 0 0 198.4 214.3;" xml:space="preserve">
<style type="text/css">
	.st0{fill:#020202;}
</style>
<g id="Layer_2_1_">
	<g id="Layer_1-2">
		<g id="Layer_2-2">
			<g id="Layer_1-2-2">
				<path class="st0" d="M65.2,169.8c0,1.1,0.1,2.2,0.2,3.4h22v-28.6l-22.2,22.2V169.8z"/>
				<path class="st0" d="M87.6,115.3c0.1-0.7,0.3-1.4,0.7-2.1l-23,23c0,10.2,0,20.5,0,30.7l22.2-22.2v-5
					C87.5,131.5,87.4,123.4,87.6,115.3L87.6,115.3z"/>
				<path class="st0" d="M89.1,112.4L108,93.5l-0.4-0.1c-3.3-0.5-6.6-0.8-9.9-0.8C88,92.5,78.4,94,68.9,96.1
					c-2.7,0.5-3.7,1.5-3.7,4.4c0,8.1,0.1,16.2,0.1,24.3v11.5l23-23C88.6,112.8,88.9,112.4,89.1,112.4L89.1,112.4z"/>
				<path class="st0" d="M108,93.5l-18.9,18.8l0,0c2.8-0.2,5.7-0.3,8.5-0.1c1.4,0.1,2.8,0.2,4.1,0.3c4.1,0.5,6.7,3.3,7.6,7.3
					c0.2,0.8,0.4,1.6,0.5,2.4l17.7-17.7C123.6,98.6,117,95,108,93.5z"/>
				<path class="st0" d="M110.8,152v21.2h22.1c0.2-0.4,0.3-0.8,0.3-1.2c-0.1-14,0.1-28-0.3-42.1L110.8,152z"/>
				<path class="st0" d="M132.8,126.2c-0.1-1.8-0.1-3.6-0.2-5.4c-0.3-6.6-2-12.1-4.9-16.4l-17.7,17.7c0.5,2.5,0.7,4.9,0.8,7.4
					c0.1,6.2,0.1,12.4,0.1,18.5v3.8l22.1-22.1L132.8,126.2L132.8,126.2z"/>
				<path class="st0" d="M129.9,51.6H99.1c-9.2,0-18.4,0-27.7,0h-2.7c-1.1,0-1.2-0.3-1.3-1.3c-0.2-5.5,0.5-10.9,2.9-16
					c4.1-8.4,10.2-14,18.5-16.7c2.1-0.7,4.2-1.1,6.4-1.4c17.2-2.3,33,9.7,35.4,26.9c0.3,2.6,0.4,5.2,0.3,7.8c0,0.6-0.2,0.7-0.5,0.7
					h28.9c-3.8,0-7.6,0-11.5,0c-0.8,0-1-0.2-1-1c0-0.2,0-0.5,0-0.8c0.2-5.4-0.5-10.8-2.1-16c-6.2-18.4-18.8-29.7-38-33.1
					c-2.9-0.5-5.9-0.7-8.9-0.7C75.6,0.6,56.7,16.5,52.5,38.3c-0.8,4-1,8.1-0.9,12.2c0,0.9-0.2,1.1-1.1,1.1c-3.8,0-7.7,0-11.5,0h91.4
					C130.2,51.6,130.1,51.6,129.9,51.6L129.9,51.6z"/>
				<path class="st0" d="M144,72.6c7.9,0.3,14.7,5.8,16.5,13.5c0.7,3.2,0.8,6.5,1.3,9.8c0.9,6.1,1.7,12.1,2.5,18.2l0.8,5.4l1.8,12.8
					c0.8,6.1,1.7,12.1,2.5,18.2c1,6.9,1.9,13.9,2.9,20.9c0.1,1.2,0.3,2.5,0.6,3.7v2.1c-0.2,0.1-0.1,0.2-0.2,0.4
					c-0.1,1.1-0.4,2.2-0.7,3.3c-0.7,2-1.7,3.9-3,5.6l21.1,22c3.3-2.9,5.8-6.6,7.2-10.9c0.5-1.5,0.8-3,1-4.5c0-0.2,0-0.4,0.2-0.6
					v-2.8c-0.5-1.6-0.7-3.3-0.9-5c-1.3-9.3-2.6-18.7-3.9-28.1c-1.1-8.2-2.2-16.4-3.4-24.6c-0.8-5.7-1.6-11.5-2.4-17.3l-1-7.3
					c-1.1-8.2-2.2-16.4-3.4-24.6c-0.6-4.4-0.8-8.8-1.7-13.2c-2-8.7-8.8-15.5-17.6-17.6L143,72.6H144z"/>
				<path class="st0" d="M54.4,72.6H143l21.2-20.4c-1.5-0.4-3.1-0.6-4.6-0.6H38.8c-9.5,0.4-17.9,6.3-21.3,15.2l20.2,21
					C38.8,79.3,45.8,72.9,54.4,72.6z"/>
				<path class="st0" d="M168.9,186.5c-2.4,3-5.7,5.2-9.4,6.1c-0.9,0.3-1.9,0.4-2.8,0.6H55.4l-21.8,21h143.2
					c1.3-0.3,2.5-0.4,3.8-0.8c3.5-0.9,6.8-2.6,9.5-5L168.9,186.5z"/>
				<path class="st0" d="M41.3,193.2c-0.1-0.2-0.2-0.1-0.3-0.2c-5.6-0.7-10.5-4-13.2-9c-1.5-2.4-2.2-5.2-2.1-8.1c0-0.2,0-0.3,0-0.5
					c0.4-4.3,1.1-8.6,1.7-12.8c1.1-8,2.2-16,3.3-24.1c1.2-8.4,2.3-16.8,3.5-25.3c0.6-4.6,1.3-9.2,1.9-13.8c0.5-3.8,1-7.6,1.4-11.4
					c0-0.1,0-0.2,0-0.2l-20.2-21c-0.7,1.8-1.1,3.7-1.3,5.6c-0.6,5.2-1.2,10.3-1.9,15.4c-0.9,6.2-1.8,12.4-2.6,18.7
					c-1.5,11.4-3.1,22.7-4.7,34.1c-1.4,10.8-2.9,21.6-4.5,32.5c-0.8,5.7-1.8,11.5-2.3,17.3c0,0.2,0,0.4,0,0.7
					C0,194.8,1,198.6,3,201.9c3.6,6.7,10.2,11.2,17.8,12.2c0.2,0,0.4,0,0.5,0.2h12.4l21.9-21L41.3,193.2z"/>
			</g>
		</g>
	</g>
</g>
</svg>
