<svg xmlns="http://www.w3.org/2000/svg" viewBox="0 0 300.69 326.86"><g id="Layer_2" data-name="Layer 2"><g id="Layer_1-2" data-name="Layer 1"><path d="M234.88,75.12c1.3-10.76,2.09-20.44,2.39-29.51l.07-2.07-24.05-.82-.07,2.06a317.76,317.76,0,0,1-11.17,73.84,229.39,229.39,0,0,1-31.4,73c-2.56,3.77-5.35,7.59-8.59,11.64V136.92H138v67.49c-3.63-4.48-6.73-8.66-9.43-12.69a189.57,189.57,0,0,1-29.43-71.8c0-.3-.09-.61-.12-.94s-.08-.62-.13-.93l-.26-1.76H74.39l.31,2.33c.08.58.15,1.16.23,1.74.13,1.14.28,2.33.47,3.49a212.34,212.34,0,0,0,33.28,81.58,215.76,215.76,0,0,0,32.81,38.38l8.15,7.53,8.11-7.57a227.45,227.45,0,0,0,32.72-38.27,254.66,254.66,0,0,0,34.76-80.33c2.08-7.53,3.93-15.63,5.8-25.36h43.9c-.77,6.86-1.74,13.53-2.89,19.86a259.82,259.82,0,0,1-43.41,108,248.17,248.17,0,0,1-79,71.37,249.06,249.06,0,0,1-77.88-71.37A261.23,261.23,0,0,1,28.7,119.74c-.05-.27-.09-.55-.13-.82s-.09-.59-.14-.88l-.29-1.71H3.79l.39,2.4c.11.67.2,1.33.3,2,.17,1.11.34,2.27.55,3.42A284.55,284.55,0,0,0,52.21,241.91a272.5,272.5,0,0,0,91.7,81.84l5.64,3.11,5.66-3A271.69,271.69,0,0,0,248.1,242a282.85,282.85,0,0,0,47.61-117.83c1.52-8.28,2.72-17.07,3.6-26.14.64-6.62,1.09-13.59,1.32-20.73l.06-2.13Z"/><path d="M190.64,98.22c1.32-6.58,2.45-13.36,3.44-20.73l.31-2.33H24.15a297.72,297.72,0,0,1,2.91-50.72H297.88l-.46-3.22c-.52-3.67-1.05-7.47-1.72-11.21L293.89,0H6.84L5.05,10A323.3,323.3,0,0,0,.17,77.29C.39,84.44.83,91.42,1.47,98l.19,1.86H190.33Z"/></g></g></svg>