<?xml version="1.0" encoding="utf-8"?>
<!-- Generator: Adobe Illustrator 24.1.1, SVG Export Plug-In . SVG Version: 6.00 Build 0)  -->
<svg version="1.1" id="Layer_1" xmlns="http://www.w3.org/2000/svg" xmlns:xlink="http://www.w3.org/1999/xlink" x="0px" y="0px"
	 viewBox="0 0 46 46" style="enable-background:new 0 0 46 46;" xml:space="preserve">
<g>
	<path d="M34.5,36.3c0,1.1,0,2.1,0,3.2c0,1.4-0.4,1.7-1.8,1.7c-6.4,0-12.9,0-19.3,0c-1.6,0-1.9-0.3-1.9-1.9c0-1,0-2.1,0-3.1
		c-0.1,0-0.2,0-0.3,0c-0.6,1.6-1.2,3.2-1.8,4.8c-0.4,1-0.7,1.9-1.1,2.9c-0.4,0.9-0.9,1.2-1.8,0.9c-1.7-0.6-3.4-1.2-5.2-1.8
		C0.3,42.6,0,42,0.3,41.1c2.8-8.2,5.5-16.4,8.3-24.6c0.8-2.3,2.3-4,4.4-5.2c0.2-0.1,0.5-0.3,0.7-0.4c0-0.1,0-0.2,0-0.2
		c-1.3-1.1-1.2-2.4,0-3.6c1-1,1.9-2,3-3c0.9-0.8,2-1.1,3.2-1.1c2.1,0.1,4.1,0,6.2,0c1.1,0,2.1,0.2,2.9,1c1.3,1.2,2.6,2.5,3.7,3.8
		c0.7,0.8,0.4,1.7-0.6,2.9c0.2,0.1,0.4,0.3,0.7,0.4c2.2,1.2,3.8,3,4.6,5.4c2.5,7.3,5,14.7,7.4,22c0.3,0.8,0.6,1.7,0.8,2.5
		c0.3,0.8,0,1.5-0.8,1.7c-1.8,0.7-3.6,1.3-5.5,1.9c-0.8,0.2-1.3-0.1-1.7-1c-0.9-2.3-1.8-4.6-2.7-6.9c-0.1-0.2-0.2-0.4-0.2-0.6
		C34.8,36.3,34.6,36.3,34.5,36.3z M7.6,42.2C7.7,42,7.7,42,7.8,41.9c1.1-2.9,2.2-5.8,3.3-8.6c0.1-0.2,0.1-0.5,0.1-0.8
		c-0.2-4.6-0.4-9.3-0.5-13.9c0-0.5-0.3-1.2,0.5-1.2c0.7,0,0.5,0.7,0.6,1.2c0.3,6.9,0.6,13.8,0.8,20.7c0,0.8,0.3,1,1.1,1
		c6.3,0,12.6,0,18.9,0c0.7,0,0.9-0.2,1-0.9c0.2-7,0.5-13.9,0.8-20.9c0-0.2,0-0.5,0.1-0.6c0.1-0.2,0.3-0.4,0.5-0.4
		c0.2,0,0.4,0.2,0.5,0.4c0.1,0.1,0,0.4,0,0.6c-0.1,3.3-0.2,6.6-0.4,9.8c-0.3,3.1-0.1,6.1,1.4,8.9c0.2,0.4,0.3,0.9,0.5,1.3
		c0.5,1.3,1,2.5,1.5,3.8c1.4-0.5,2.8-1,4.2-1.4c0.4-0.1,1.1-0.6,1.3,0.1c0.2,0.7-0.5,0.7-0.9,0.9c-1.4,0.5-2.8,1-4.2,1.5
		c0,0.1-0.1,0.2-0.1,0.2c0.1,0.1,0.3,0.2,0.4,0.2c1.9-0.6,3.7-1.2,5.7-1.8c-0.1-0.4-0.2-0.7-0.3-1c-2.6-7.7-5.2-15.4-7.8-23.2
		c-0.9-2.6-2.4-4.6-4.9-5.8c-0.4-0.2-0.8-0.2-1.2,0c-1.3,0.7-2.7,1.3-4.1,1.9c-0.5,0.2-1,0.3-1.5,0.5c0.1,0.9,0.3,1.7,0.4,2.4
		c0.4,2.9,0.8,5.7,1.1,8.6c0.1,0.4,0,0.9-0.5,0.9c-0.2,0-0.5-0.5-0.5-0.8c-0.5-3.2-0.9-6.4-1.3-9.7c-0.2-1.2-0.2-1.2-1.5-1.3
		c0,0-0.1,0-0.2,0.1c0,0.1-0.1,0.2-0.1,0.4c-0.5,3.5-1,7-1.5,10.5c0,0.3-0.4,0.6-0.5,0.8c-0.2-0.3-0.5-0.6-0.5-0.9
		c0.1-1.2,0.2-2.4,0.3-3.6c0.4-2.5,0.8-5,1.1-7.3c-2-1-3.9-1.9-5.9-2.8c-0.2-0.1-0.4-0.1-0.6,0c-2.4,1.1-4.1,2.8-5,5.3
		C7.1,24.6,4.5,32,2,39.5c-0.2,0.7-0.5,1.5-0.7,2.3c1.9,0.6,3.6,1.3,5.4,1.8c0.1,0,0.4-0.2,0.8-0.4c-0.9-0.3-1.6-0.5-2.2-0.8
		c-0.9-0.3-1.8-0.6-2.7-1c-0.2-0.1-0.3-0.4-0.4-0.7c0.2-0.1,0.5-0.3,0.7-0.3c0.2,0,0.5,0.1,0.7,0.2C4.9,41.2,6.3,41.7,7.6,42.2z
		 M25,13.2c2.4-0.5,4.7-1.7,6.7-3.5c0.4-0.4,0.5-0.8,0.1-1.2c-1-1.1-2-2.2-3-3.2c-0.8-0.7-1.7-1-2.8-1c-2,0-4,0-5.9,0
		c-1.2,0-2.2,0.3-3,1.1c-0.9,0.9-1.8,1.9-2.7,2.8c-0.7,0.8-0.7,1.2,0.2,1.7c1.5,1,3,1.8,4.6,2.7c0.6,0.3,1.4,0.5,1.9,0.6
		c0.4-0.4,0.7-0.7,1-0.9c0.2,0.3,0.5,0.7,0.8,1.1c0.1,0,0.4,0,0.5,0c0.3-0.5,0.4-0.8,0.6-1.1C24.2,12.5,24.5,12.8,25,13.2z"/>
	<path d="M23,39.2c-3,0-5.9,0-8.9,0c-0.2,0-0.5,0.1-0.7,0c-0.2-0.1-0.4-0.3-0.4-0.5c0-0.2,0.2-0.4,0.4-0.5c0.2-0.1,0.5-0.1,0.7-0.1
		c5.9,0,11.8,0,17.7,0c0.1,0,0.2,0,0.3,0c0.3,0.2,0.8,0.3,0.8,0.5c0.1,0.5-0.4,0.5-0.8,0.5c-1.6,0-3.1,0-4.7,0
		C26,39.2,24.5,39.2,23,39.2z"/>
	<path d="M14.5,36.6c-0.1-0.2-0.2-0.4-0.2-0.6c0-0.2,0.1-0.5,0.2-0.6c1.5-1,2.7-2.2,3.6-3.6c0.1-0.1,0.5-0.2,0.7-0.1
		c0.1,0,0.3,0.5,0.2,0.6c-1,1.7-2.3,3-4,4c-0.1,0-0.2,0-0.2,0.1C14.6,36.5,14.5,36.5,14.5,36.6z"/>
	<path d="M27.5,31.5c0.2,0.2,0.4,0.3,0.5,0.5c1.1,1.1,2.2,2.2,3.3,3.3c0.2,0.2,0.2,0.6,0.3,0.9c-0.3,0-0.7,0.1-0.9,0
		c-1.5-0.9-2.7-2.1-3.6-3.6c-0.1-0.2-0.2-0.5-0.1-0.8C27.1,31.7,27.3,31.6,27.5,31.5z"/>
	<path d="M23,11.9c-2,0-4.6-1.7-5.2-3.5c-0.1-0.3,0.1-0.6,0.2-0.9c0.3,0.1,0.6,0.2,0.8,0.4c0.4,0.5,0.7,1.1,1.2,1.5
		c2.4,2.1,5.6,1.5,7.2-1.3c0.1-0.1,0.1-0.4,0.2-0.4c0.2-0.1,0.5-0.3,0.7-0.2c0.1,0,0.2,0.4,0.3,0.6c0,0.1-0.1,0.2-0.1,0.3
		C27.4,10.2,25,11.9,23,11.9z"/>
</g>
</svg>
