<?xml version="1.0" encoding="utf-8"?>
<!-- Generator: Adobe Illustrator 24.1.1, SVG Export Plug-In . SVG Version: 6.00 Build 0)  -->
<svg version="1.1" id="Layer_1" xmlns="http://www.w3.org/2000/svg" xmlns:xlink="http://www.w3.org/1999/xlink" x="0px" y="0px"
	 viewBox="0 0 46 46" style="enable-background:new 0 0 46 46;" xml:space="preserve">
<path d="M41.9,8l-1.8-1.6l1.8-1.6c0.3-0.2,0.4-0.6,0.2-1c-0.1-0.4-0.5-0.6-0.8-0.6h-7.5V2.9c0-0.3-0.3-0.6-0.6-0.6s-0.6,0.3-0.6,0.6
	v8.4l-5.1,2.8c0-0.2-0.1-0.4-0.2-0.7L26.5,12c-0.5-1-1.7-1.3-2.6-0.9l-0.6,0.3c-0.5,0.2-0.8,0.6-1,1.1c-0.2,0.5-0.1,1,0.1,1.5
	l0.7,1.4c0.2,0.3,0.4,0.6,0.7,0.8c-0.4,0.5-0.6,1.1-0.8,1.8L23,18.5c-0.1,0.3,0.1,0.7,0.4,0.8c0.1,0,0.1,0,0.2,0
	c0.3,0,0.5-0.2,0.6-0.5l0.1-0.5c0.3-1,0.4-1.5,1-1.8l1-0.5l0.1-0.1c0,0,0.1,0,0.1-0.1l6.8-3.7c0,0.9-0.5,1.7-1.3,2.1l-4.4,2.7
	c0,0,0,0,0,0l-1.4,0.8c-0.3,0.2-0.4,0.6-0.2,0.9c0.2,0.3,0.5,0.4,0.8,0.2l-1,3.2L25,22.5l-2.1,0.9l0.6-2.1c0.1-0.3-0.1-0.7-0.4-0.8
	c-0.3-0.1-0.7,0.1-0.8,0.4l-0.9,3.4c0,0,0,0.1,0,0.1l-0.2,4.6c0,0.2,0,0.5-0.1,0.7l-2.8,5.8h-2c-1.2,0-2.1,1-2.1,2.1v1.8
	c-0.3-0.1-0.6-0.2-0.9-0.2H8.2c-1.2,0-2.1,1-2.1,2.1v2.2H4.6c-0.3,0-0.6,0.3-0.6,0.6c0,0.3,0.3,0.6,0.6,0.6h36.7
	c0.3,0,0.6-0.3,0.6-0.6c0-0.3-0.3-0.6-0.6-0.6h-1.6V27.4c0-1.2-1-2.1-2.1-2.1h-3.8V14.5c0.7-0.9,0.9-2.2,0.6-3.3
	c-0.1-0.2-0.2-0.3-0.4-0.4c-0.1,0-0.2-0.1-0.3,0V9.5h7.5c0.4,0,0.7-0.2,0.8-0.6C42.3,8.6,42.2,8.2,41.9,8z M23.5,12.9
	c0.1-0.2,0.2-0.3,0.4-0.4l0.6-0.3c0.1-0.1,0.2-0.1,0.3-0.1c0.3,0,0.5,0.1,0.6,0.4l0.7,1.4c0.2,0.3,0.1,0.7-0.2,0.9L25.6,15l-0.4,0.2
	c-0.4,0.2-0.8,0-1-0.3l-0.7-1.4C23.4,13.3,23.4,13.1,23.5,12.9z M22.2,35.6c-0.2-0.1-0.4-0.2-0.7-0.2l0.7-0.9V35.6z M25.2,30.6
	c0.3-0.4,0.4-0.8,0.4-1.1c0-0.1,0.3-1.8,0.3-1.8s0.3,0.2,0.3,0.2c0,0,0,0,0,0.1l0.3,3.4h-2.1L25.2,30.6z M28.9,27.1l-0.5,4.3h-0.4
	l-0.4-3.6c0-0.5-0.3-0.9-0.7-1.1l-0.6-0.4l0.4-2.3c0,0,1.8,2.1,1.8,2.1C28.8,26.7,28.9,26.9,28.9,27.1z M22.1,30.2
	c0.1-0.4,0.2-0.8,0.2-1.2l0.2-4.2l2.9-1.2l-0.5,2.9c0,0,0,0,0,0L24.5,29c-0.1,0.2-0.1,0.6-0.3,0.8L20,35.4h-0.3L22.1,30.2z
	 M7.3,41.3c0-0.5,0.4-0.9,0.9-0.9h5.1c0.5,0,0.9,0.4,0.9,0.9v2.2H7.3V41.3z M15.4,41.3v-3.7c0-0.5,0.4-0.9,0.9-0.9h5.1
	c0.5,0,0.9,0.4,0.9,0.9v6h-6.8L15.4,41.3L15.4,41.3z M38.4,27.4v16.1h-6.8v-3.7c0-0.3-0.3-0.6-0.6-0.6c-0.3,0-0.6,0.3-0.6,0.6v3.7
	h-6.8v-10c0-0.5,0.4-0.9,0.9-0.9h5.1c0.5,0,0.9,0.4,0.9,0.9v3.1c0,0.3,0.3,0.6,0.6,0.6c0.3,0,0.6-0.3,0.6-0.6v-9.2
	c0-0.5,0.4-0.9,0.9-0.9h0.7c0,0,0,0,0,0c0,0,0,0,0,0h4.4C38,26.6,38.4,27,38.4,27.4z M32.5,25.3c-1.2,0-2.1,1-2.1,2.1v4.1
	c-0.2-0.1-0.5-0.2-0.7-0.2l0.5-4.1c0.1-0.8-0.3-1.3-0.7-1.8c0-0.1-2.5-2.9-2.5-2.9l1.5-4.5l4.1-2.5L32.5,25.3L32.5,25.3z M33.8,8.3
	V4.4h6.6l-1.4,1.2c-0.2,0.2-0.3,0.4-0.3,0.7c0,0.3,0.1,0.5,0.3,0.7l1.4,1.2L33.8,8.3L33.8,8.3z"/>
</svg>
