<?xml version="1.0" encoding="utf-8"?>
<!-- Generator: Adobe Illustrator 24.1.1, SVG Export Plug-In . SVG Version: 6.00 Build 0)  -->
<svg version="1.1" id="Layer_1" xmlns="http://www.w3.org/2000/svg" xmlns:xlink="http://www.w3.org/1999/xlink" x="0px" y="0px"
	 viewBox="0 0 46 46" style="enable-background:new 0 0 46 46;" xml:space="preserve">
<g>
	<path d="M41.2,30.6c0,4.3,0,8.5,0,12.8c0,0.9-0.1,0.9-0.9,0.9c-1.3,0-2.6,0-3.9,0c-0.8,0-0.9-0.1-0.9-0.9c0-6.4,0-12.8,0-19.2
		c0-2.1,0-4.3,0-6.4c0-0.8,0.1-0.9,0.9-0.9c1.3,0,2.6,0,4,0c0.8,0,0.9,0.1,0.9,0.9C41.2,22,41.2,26.3,41.2,30.6z M40.2,43.3
		c0-8.5,0-16.9,0-25.4c-1.2,0-2.4,0-3.6,0c0,8.5,0,16.9,0,25.4C37.8,43.3,39,43.3,40.2,43.3z"/>
	<path d="M31,33.3c0,3.4,0,6.7,0,10.1c0,0.9-0.1,0.9-0.9,0.9c-1.3,0-2.6,0-3.9,0c-0.8,0-0.9-0.1-0.9-0.9c0-5.7,0-11.5,0-17.2
		c0-1,0-2.1,0-3.1c0-0.8,0.1-0.9,0.9-0.9c1.3,0,2.6,0,3.9,0c0.9,0,0.9,0.1,0.9,0.9C31,26.5,31,29.9,31,33.3C31,33.3,31,33.3,31,33.3
		z M29.9,43.3c0-6.7,0-13.4,0-20c-1.2,0-2.4,0-3.6,0c0,6.7,0,13.3,0,20C27.5,43.3,28.7,43.3,29.9,43.3z"/>
	<path d="M36.5,9c-0.8,0-1.5,0-2.1,0c-0.3,0-0.7,0-0.7-0.4c0-0.5,0.3-0.5,0.7-0.6c1.1-0.1,2.3-0.1,3.4-0.2c0.6,0,0.7,0.2,0.7,0.8
		c-0.2,1.1-0.3,2.3-0.5,3.4c0,0.3-0.1,0.7-0.6,0.6c-0.5-0.1-0.5-0.4-0.4-0.8c0.1-0.7,0.2-1.3,0.3-2.1c-0.3,0.2-0.4,0.3-0.6,0.4
		c-9.1,8.1-19.5,13.9-30.9,18c-0.1,0-0.2,0.1-0.3,0.1C5.2,28.1,5,28,4.8,27.9c0.1-0.2,0.2-0.5,0.3-0.6c0.1-0.1,0.4-0.2,0.6-0.2
		c10.5-3.8,20.1-9,28.7-16.3C35.1,10.3,35.7,9.7,36.5,9z"/>
	<path d="M15,35.5c0-2.7,0-5.3,0-8c0-0.8,0.1-0.9,0.9-0.9c1.3,0,2.7,0,4,0c0.5,0,0.8,0.2,0.8,0.8c0,5.4,0,10.8,0,16.3
		c0,0.5-0.2,0.8-0.7,0.7c-1.4,0-2.8,0-4.2,0c-0.6,0-0.8-0.3-0.8-0.9C15,40.8,15,38.1,15,35.5C15,35.5,15,35.5,15,35.5z M19.7,43.3
		c0-5.3,0-10.5,0-15.7c-1.2,0-2.4,0-3.6,0c0,5.3,0,10.5,0,15.7C17.3,43.3,18.5,43.3,19.7,43.3z"/>
	<path d="M10.5,38.7c0,1.6,0,3.2,0,4.8c0,0.8-0.1,0.9-0.8,0.9c-1.4,0-2.7,0-4.1,0c-0.6,0-0.8-0.2-0.8-0.8c0-3.3,0-6.6,0-9.8
		c0-0.6,0.3-0.8,0.8-0.8c1.4,0,2.7,0,4.1,0c0.6,0,0.8,0.2,0.8,0.8C10.5,35.4,10.5,37,10.5,38.7z M5.8,33.9c0,3.1,0,6.2,0,9.3
		c1.2,0,2.4,0,3.6,0c0-3.1,0-6.2,0-9.3C8.2,33.9,7,33.9,5.8,33.9z"/>
</g>
</svg>
