<?xml version="1.0" encoding="utf-8"?>
<!-- Generator: Adobe Illustrator 24.1.1, SVG Export Plug-In . SVG Version: 6.00 Build 0)  -->
<svg version="1.1" id="Layer_1" xmlns="http://www.w3.org/2000/svg" xmlns:xlink="http://www.w3.org/1999/xlink" x="0px" y="0px"
	 viewBox="0 0 46 46" style="enable-background:new 0 0 46 46;" xml:space="preserve">
<g>
	<g id="Coworking-Space" transform="translate(-1320.000000, -3975.000000)">
		<g id="Benefits" transform="translate(346.000000, 3886.000000)">
			<g transform="translate(735.000000, 87.000000)">
				<g id="item" transform="translate(205.000000, 2.000000)">
					<g transform="translate(34.000000, 0.000000)">
						<path id="Shape" d="M-30.6,18.7h-1.2v-1.3c0-1-0.8-1.9-1.8-1.9h-1.5l-0.9-1.8c-0.2-0.4-0.6-0.7-1.1-0.7H-38
							c-0.7,0-1.2,0.6-1.2,1.3v1.3H-46c-1,0-1.8,0.9-1.8,1.9v1.3H-49c-1,0-1.8,0.9-1.8,1.9V22c0,0.7,0.6,1.3,1.2,1.3h0.1l0.7,6.5
							l-3-0.7c-0.1-0.2-0.3-0.5-0.5-0.7l-1-4.6c-0.1-0.3-0.3-0.5-0.6-0.5h-3.5c-1.7-1.5-3.6-2.2-5.1-1.7l-0.9-1
							c-0.3-0.4-0.9-0.5-1.3-0.3c-0.7-0.1-1,0.4-1,0.9v27.9c0,1,0.8,1.9,1.8,1.9h30.2c0.3,0,0.6-0.2,0.6-0.6l3-27.3h0.1
							c0.7,0,1.2-0.6,1.2-1.3v-1.3C-28.7,19.6-29.5,18.7-30.6,18.7z M-38,14.3h0.9l0.6,1.3H-38V14.3z M-46.6,17.4
							c0-0.3,0.3-0.6,0.6-0.6h12.3c0.3,0,0.6,0.3,0.6,0.6v1.3h-13.5C-46.6,18.7-46.6,17.4-46.6,17.4z M-48.3,31.1L-48.3,31.1
							l0.5,0.1l0.3,3.6c-1-0.7-2.1-1.1-3.3-1.1c0.2-1.1,0.1-2.3-0.3-3.3L-48.3,31.1z M-47.1,36.7L-47.1,36.7
							c0.2,0.2,0.4,0.4,0.6,0.7c0.7,0.8,1.3,1.8,1.6,2.9c0.1,0.4,0.2,0.8,0.2,1.2l-5.8-6.5C-49.2,35.2-48,35.8-47.1,36.7z
							 M-53.6,28.7L-53.6,28.7c1.3,1.6,2,3.5,1.7,4.7l-6.3-7C-57,26.1-55,27-53.6,28.7z M-54.5,24.4l0.5,2.2c-0.5-0.4-1-0.7-1.6-1
							c-0.2-0.4-0.5-0.8-0.8-1.2C-56.4,24.4-54.5,24.4-54.5,24.4z M-57.6,24.9L-57.6,24.9c0.1,0.1,0.1,0.1,0.1,0.2
							c-0.6-0.1-1.2,0-1.7,0.3l-2.5-2.9C-60.4,22.5-58.8,23.4-57.6,24.9z M-39.9,49.4c-0.1,0.2-0.3,0.4-0.6,0.4h-5.6h-17.8
							c-0.3,0-0.6-0.3-0.6-0.6V21.3l12.4,13.9l0,0l7.3,8.1l0,0l4,4.5c0,0,0,0,0,0.1l0.8,0.9C-39.8,48.9-39.8,49.1-39.9,49.4z
							 M-43.7,42.7c0.1-0.4,0.2-0.8,0.2-1.2c0.3,0.3,0.6,0.6,0.9,0.9c0.3,0.4,0.7,0.8,0.9,1.3c0.4,0.6,0.6,1.3,0.8,2L-43.7,42.7z
							 M-34.2,49.7h-4.5c0.2-0.7,0.1-1.4-0.4-1.9l-0.6-0.7c0.1-1.1,0-2.1-0.5-3.1h6.6L-34.2,49.7z M-33.4,42.8h-7.4
							c-0.3-0.4-0.5-0.8-0.8-1.2c-0.6-0.7-1.3-1.3-2.1-1.8c-0.4-1.2-1-2.3-1.8-3.2c-0.2-0.2-0.4-0.4-0.6-0.6l-0.5-5.3
							c0-0.3-0.2-0.5-0.5-0.6l-0.5-0.1l-0.1-1.2h15.9L-33.4,42.8z M-31.7,27.6h-16.2l-0.5-4.4h17.1L-31.7,27.6z M-29.9,21.9h-19.8
							v-1.3c0-0.3,0.3-0.6,0.6-0.6h18.5c0.3,0,0.6,0.3,0.6,0.6L-29.9,21.9L-29.9,21.9z"/>
						<path d="M-40,40C-39.9,40-39.9,40-40,40C-39.9,40-39.9,40-40,40h0.2c0.9-0.1,1.8-0.6,2.3-1.3c0.7-1.1,0.9-2.5,0.6-3.8
							c-0.1-0.3-0.2-0.6-0.2-0.9c-0.5-2-0.9-3.8-2.7-3.9c0,0,0,0-0.1,0c0,0,0,0-0.1,0c-2.1,0-3.7,2.2-3.7,5S-42,40-40,40z
							 M-39.5,31.3c0.6,0.3,0.9,1.1,1.3,2.8c0.1,0.3,0.1,0.6,0.2,1c0.3,0.9,0.1,1.9-0.4,2.7c-0.2,0.3-0.4,0.5-0.7,0.6
							c0-1.1-0.2-2.1-0.6-3.1c-0.1-0.2-0.1-0.4-0.2-0.6C-40.2,33.6-39.8,32.1-39.5,31.3z M-40.8,31.4c-0.4,1.2-0.4,2.5-0.2,3.7
							c0.1,0.2,0.1,0.4,0.2,0.6c0.3,1,0.6,2.1,0.5,3c-1.3-0.2-2.3-1.8-2.3-3.7C-42.5,33.3-41.8,31.9-40.8,31.4z"/>
						<path id="Path" d="M-62.3,47.1l-0.3,0.3c-0.1,0.1-0.1,0.2-0.1,0.3c0,0.2,0.1,0.3,0.3,0.3c0.1,0,0.3,0,0.4-0.1l0.3-0.3
							c0.1-0.1,0.1-0.4,0-0.5C-62,47-62.2,47-62.3,47.1z"/>
						<path d="M-56.8,42.6c0.1-0.1,0.1-0.4,0-0.5s-0.4-0.1-0.5,0l-0.3,0.3c-0.1,0.1-0.1,0.2-0.1,0.3s0.1,0.2,0.3,0.3
							c0.1,0,0.3,0,0.4-0.1L-56.8,42.6z"/>
						<path d="M-62.3,41.1l-0.3,0.3c-0.1,0.1-0.1,0.2-0.1,0.3c0,0.2,0.1,0.3,0.3,0.3c0.1,0,0.3,0,0.4-0.1l0.3-0.3
							c0.1-0.1,0.1-0.4,0-0.5C-62,41-62.2,41-62.3,41.1z"/>
						<path d="M-62.3,36.1l-0.3,0.3c-0.1,0.1-0.1,0.2-0.1,0.3c0,0.2,0.1,0.3,0.3,0.3c0.1,0,0.3,0,0.4-0.1l0.3-0.3
							c0.1-0.1,0.1-0.4,0-0.5C-62,36-62.2,36-62.3,36.1z"/>
						<path d="M-56.3,47.1l-0.3,0.3c-0.1,0.1-0.1,0.2-0.1,0.3s0.1,0.2,0.3,0.3c0.1,0,0.3,0,0.4-0.1l0.3-0.3c0.1-0.1,0.1-0.4,0-0.5
							C-56,47-56.2,47-56.3,47.1z"/>
						<path d="M-51.3,47.1l-0.3,0.3c-0.1,0.1-0.1,0.2-0.1,0.3s0.1,0.2,0.3,0.3c0.1,0,0.3,0,0.4-0.1l0.3-0.3c0.1-0.1,0.1-0.4,0-0.5
							C-51,47-51.2,47-51.3,47.1z"/>
					</g>
				</g>
			</g>
		</g>
	</g>
</g>
<g>
	<g>
		<path d="M-116.4-45.6c2.1-1.9,4.9-4.4,5.1-10.6h1.9V-58h-23.8v1.8h1.8c0.3,6.1,3.1,8.7,5.1,10.6c1.4,1.3,2.2,2,2.2,3.2
			s-0.8,2-2.2,3.2c-2.1,1.9-4.9,4.4-5.1,10.6h-1.9v1.8h23.9v-1.8h-1.9c-0.3-6.1-3.1-8.7-5.1-10.6c-1.4-1.3-2.2-2-2.2-3.2
			S-117.8-44.4-116.4-45.6z M-122.2-35.5c-0.3,0.1-0.6,0.1-0.8,0.3l-5.6,2.3c0.9-2.3,2.4-3.7,3.7-4.8c1.4-1.3,2.8-2.5,2.8-4.6
			L-122.2-35.5L-122.2-35.5z M-117.6-37.8c1.3,1.2,2.8,2.5,3.7,4.8l-5.6-2.3c-0.3-0.1-0.6-0.2-0.8-0.3v-6.8
			C-120.4-40.3-119.1-39.1-117.6-37.8z M-128.7-51.9c-0.4-1.2-0.7-2.5-0.8-4.3h16.5c-0.1,1.7-0.4,3.1-0.8,4.3H-128.7z"/>
	</g>
</g>
<g>
	<path d="M22.9,42.2c-3.6,0-7.2,0-10.8,0C7.5,42.2,4,38.7,4,34c0-7.2,0-14.5,0-21.7c0-4.6,3.5-8.1,8.1-8.1c7.3,0,14.5,0,21.8,0
		c4.6,0,8.1,3.5,8.1,8.1c0,7.3,0,14.5,0,21.8c0,4.6-3.5,8.1-8.1,8.1C30.3,42.2,26.6,42.2,22.9,42.2z M39.6,23.2
		C39.6,23.2,39.6,23.2,39.6,23.2c0-3.6,0-7.2,0-10.8c0-3.5-2.4-5.9-5.9-5.9c-7.2,0-14.3,0-21.5,0c-3.5,0-5.9,2.4-5.9,5.9
		c0,7.2,0,14.3,0,21.5c0,3.4,2.4,5.9,5.8,5.9c7.2,0,14.4,0,21.7,0c3.3,0,5.8-2.4,5.8-5.7C39.6,30.5,39.6,26.9,39.6,23.2z"/>
	<path d="M23.2,22.2c2-2.2,3.9-4.4,5.8-6.5c0.5-0.5,0.9-1,1.4-1.5c0.6-0.6,1.3-0.7,1.8-0.2c0.5,0.5,0.5,1.2,0,1.8
		c-2.2,2.5-4.4,5-6.7,7.5c-0.2,0.2-0.3,0.4-0.5,0.6c0.6,0.7,1.7,1.4,0.7,2.5c-0.5,0.6-1,0.4-2.4-0.6c-0.6,0.6-1.3,1.4-2.2,0.6
		c-0.6-0.5-0.5-1,0.6-2.5c-0.4-0.3-0.8-0.6-1.2-0.9c-1-1-2-1.9-2.9-2.9c-0.6-0.6-0.6-1.3-0.1-1.8c0.5-0.5,1.2-0.5,1.8,0.1
		c1.1,1.1,2.3,2.3,3.4,3.4C22.8,21.9,23,22,23.2,22.2z"/>
	<path d="M36.9,24.4c-0.3,0-0.6,0-0.9,0c-0.6-0.1-1.1-0.6-1.1-1.2c0-0.6,0.4-1.2,1.1-1.2c0.7,0,1.4-0.1,2,0c0.6,0,1.1,0.6,1.1,1.2
		c0,0.6-0.5,1.1-1.1,1.2C37.6,24.4,37.3,24.4,36.9,24.4z"/>
	<path d="M10.2,24.4c-0.3,0-0.6,0-0.9,0c-0.6-0.1-1.1-0.5-1.1-1.2c0-0.6,0.4-1.2,1.1-1.2c0.7-0.1,1.4-0.1,2,0c0.6,0,1.1,0.6,1,1.2
		c0,0.6-0.4,1.1-1.1,1.1C10.9,24.4,10.6,24.4,10.2,24.4C10.2,24.4,10.2,24.4,10.2,24.4z"/>
	<path d="M22.4,9.9c0-0.3,0-0.7,0-1c0.1-0.6,0.6-1.1,1.1-1.1c0.6,0,1.2,0.5,1.2,1.1c0,0.6,0,1.3,0,1.9c0,0.7-0.6,1.2-1.2,1.1
		c-0.6,0-1.1-0.5-1.2-1.2C22.4,10.5,22.4,10.2,22.4,9.9C22.4,9.9,22.4,9.9,22.4,9.9z"/>
	<path d="M22.4,36.5c0-0.3,0-0.7,0-1c0.1-0.6,0.6-1,1.1-1c0.6,0,1.1,0.4,1.2,1.1c0,0.7,0,1.4,0,2c0,0.6-0.6,1.1-1.2,1.1
		c-0.6,0-1.1-0.5-1.2-1.1C22.4,37.2,22.4,36.9,22.4,36.5C22.4,36.5,22.4,36.5,22.4,36.5z"/>
</g>
</svg>
