<?xml version="1.0" encoding="utf-8"?>
<!-- Generator: Adobe Illustrator 24.1.1, SVG Export Plug-In . SVG Version: 6.00 Build 0)  -->
<svg version="1.1" id="Layer_1" xmlns="http://www.w3.org/2000/svg" xmlns:xlink="http://www.w3.org/1999/xlink" x="0px" y="0px"
	 viewBox="0 0 46 46" style="enable-background:new 0 0 46 46;" xml:space="preserve">
<path d="M42.1,39.8c-0.5-0.3-0.7-0.8-0.7-1.3v-0.8c0-0.4-0.3-0.7-0.7-0.7v-4.8c0-0.2-0.1-0.3-0.2-0.4l-3.3-3.9l2.6,0.9
	c0.1,0,0.1,0,0.2,0h2.1c0.4,0,0.7-0.3,0.7-0.7v-2.1c0-0.2-0.1-0.4-0.2-0.5l-3.9-3.2v-2.4c0-0.4-0.3-0.7-0.7-0.7c-0.1,0-0.1,0-0.2,0
	l-2.7,0.7c-0.2,0.1-0.4,0.2-0.5,0.4L34,21.9c-1.2,0.2-2.3,0.8-2.9,1.8c0-0.2-0.1-0.3-0.3-0.4l-1.7-1.1l1.3-6.4
	c0.1-0.4-0.2-0.7-0.5-0.8c0,0-0.1,0-0.1,0h-1.4c-0.2,0-0.4,0.1-0.5,0.2l-0.7,0.7l-0.3-0.5c-0.1-0.2-0.4-0.4-0.6-0.4H25
	c-0.3,0-0.5,0.1-0.6,0.4l-0.3,0.5l-0.7-0.7c-0.1-0.1-0.3-0.2-0.5-0.2h-1.4c-0.4,0-0.7,0.3-0.7,0.7c0,0,0,0.1,0,0.1l1.3,6.4l-1.7,1.1
	c0,0-0.1,0-0.1,0.1c-1.4-1.3-3.6-1.1-4.8,0.3c-1.3,1.4-1.1,3.6,0.3,4.8l-1.5,1c-0.2,0.1-0.3,0.3-0.3,0.6v1.4c0,0.4,0.3,0.7,0.7,0.7
	h0.7v1c0,0.6-0.1,1.3-0.2,1.9c-1.2-2.1-1.8-4.4-1.8-6.8V15.8l2-4c0.1-0.3,0.1-0.6-0.1-0.8l-2.7-2.7c-0.1-0.1-0.3-0.2-0.5-0.2h-1.4
	V6.1h1.4V4.7h-1.4V3.4H9.2v1.4H7.8v1.4h1.4v2.1H7.8c-0.2,0-0.4,0.1-0.5,0.2l-2.7,2.7c-0.2,0.2-0.3,0.5-0.1,0.8l2,4v12.3
	c0,2.5-0.7,4.9-2,7.1c-0.1,0.1-0.1,0.2-0.1,0.4h0v1.3c0,0.7-0.3,1.5-0.8,2c-0.8,0.8-1.2,1.9-1.2,3v2c0,0.4,0.3,0.7,0.7,0.7h39.7
	c0.4,0,0.7-0.3,0.7-0.7v-1.5C43.4,41.2,42.9,40.3,42.1,39.8z M31.8,25.9c0-1.5,1.2-2.7,2.7-2.7c0.3,0,0.6-0.2,0.6-0.5l0.6-1.7
	l1.5-0.4v1.9c0,0.2,0.1,0.4,0.2,0.5l3.9,3.2v1h-1.3l-4-1.3c-0.4-0.1-0.7,0.1-0.9,0.4c0,0.1,0,0.1,0,0.2v0.7c0,0.2,0.1,0.3,0.2,0.4
	l3.9,4.6v4.5h-5.8L31.8,34V25.9z M30.5,34.5l1.5,2.5c-0.2,0.1-0.3,0.3-0.3,0.5v0.8c0,0.5-0.3,1-0.7,1.3c-0.4-0.3-0.7-0.8-0.7-1.3
	v-0.8c0-0.4-0.3-0.7-0.7-0.7h-0.3c-0.7-1.2-1.1-2.5-1.1-3.8v-7.1h2.1v8.2C30.4,34.3,30.5,34.4,30.5,34.5z M24.3,33.1v-7.1H27v7.1
	c0,1.3,0.3,2.6,0.9,3.8h-4.5C24,35.7,24.3,34.4,24.3,33.1z M22.6,16.4l1.2,1.2c0.3,0.3,0.7,0.3,1,0c0.1-0.1,0.1-0.1,0.1-0.2l0.5-1
	h0.5l0.5,1c0.2,0.3,0.6,0.5,0.9,0.3c0.1,0,0.1-0.1,0.2-0.1l1.2-1.2h0.3l-1.1,5.5h-4.4l-1.1-5.5H22.6z M21.5,24.3l1.6-1.1h5.1
	l1.6,1.1v0.3h-8.2V24.3z M22.9,25.9v7.1c0,1.3-0.4,2.6-1,3.8c-0.7-1.1-1-2.4-1-3.8v-1h0.7c0.4,0,0.7-0.3,0.7-0.7v-1.4
	c0-0.2-0.1-0.4-0.3-0.6l-1.5-1c0.7-0.6,1.1-1.6,1.1-2.5H22.9z M18.1,23.9c1.1,0,2.1,0.9,2.1,2.1S19.2,28,18.1,28
	c-1.1,0-2.1-0.9-2.1-2.1C16.1,24.8,17,23.9,18.1,23.9z M15.4,30.4l1.6-1.1h2.3l1.6,1.1v0.3h-5.5V30.4z M19.5,32.1v1
	c0,1.3,0.3,2.6,0.9,3.8h-4.5c0.6-1.2,0.9-2.5,0.9-3.8v-1H19.5z M5.9,11.7l2.2-2.2h3.5l2.2,2.2L12.2,15H7.6L5.9,11.7z M7.8,28.1V16.4
	h4.1v11.8c0,2.3,0.5,4.6,1.6,6.7H6.3C7.3,32.8,7.8,30.5,7.8,28.1z M11.3,42.2v0.8H3.7v-1.3c0-0.7,0.3-1.5,0.8-2
	c0.8-0.8,1.2-1.9,1.2-3v-0.6H14v0.6c0,0,0,0.1,0,0.1h0c-0.4,0-0.7,0.3-0.7,0.7v0.8c0,0.5-0.3,1-0.7,1.3
	C11.8,40.3,11.3,41.2,11.3,42.2z M23.6,43.1h-11v-0.8c0-0.5,0.3-1,0.7-1.3c0.8-0.6,1.3-1.5,1.3-2.5v-0.1h6.8v0.1
	c0,1,0.5,1.9,1.3,2.5c0.5,0.3,0.7,0.8,0.7,1.3V43.1z M31.1,43.1H25v-0.8c0-1-0.5-1.9-1.3-2.5c-0.5-0.3-0.7-0.8-0.7-1.3v-0.1h6.2v0.1
	c0,1,0.5,1.9,1.3,2.5c0.5,0.3,0.7,0.8,0.7,1.3V43.1z M42.1,43.1h-9.6v-0.8c0-0.5-0.1-1.1-0.4-1.5c0.7-0.6,1.1-1.4,1.1-2.3v-0.1H40
	v0.1c0,1,0.5,1.9,1.3,2.5c0.5,0.3,0.7,0.8,0.7,1.3V43.1z"/>
</svg>
