<?xml version="1.0" encoding="utf-8"?>
<!-- Generator: Adobe Illustrator 24.1.1, SVG Export Plug-In . SVG Version: 6.00 Build 0)  -->
<svg version="1.1" id="Layer_1" xmlns="http://www.w3.org/2000/svg" xmlns:xlink="http://www.w3.org/1999/xlink" x="0px" y="0px"
	 viewBox="0 0 46 46" style="enable-background:new 0 0 46 46;" xml:space="preserve">
<g>
	<g id="Coworking-Space" transform="translate(-1128.000000, -3976.000000)">
		<g id="Benefits" transform="translate(346.000000, 3886.000000)">
			<g transform="translate(735.000000, 87.000000)">
				<g id="item" transform="translate(24.000000, 3.000000)">
					<g transform="translate(23.000000, 0.000000)">
						<path id="Shape" d="M99.2,5H72.9c-0.3,0-0.6,0.3-0.6,0.6c0,0.3,0.3,0.6,0.6,0.6h26.3c1.4,0,2.6,1.2,2.6,2.6v21.4
							c0,1.5-1.2,2.6-2.6,2.6H66.8c-1.4,0-2.6-1.2-2.6-2.6V8.8c0-1.5,1.2-2.6,2.6-2.6h3.7c0.3,0,0.6-0.3,0.6-0.6
							c0-0.3-0.3-0.6-0.6-0.6h-3.7C64.7,5,63,6.7,63,8.8v21.4c0,2.1,1.7,3.8,3.8,3.8h9.6l-1.2,3.8H73c-1.1,0-2,0.9-2,2s0.9,2,2,2h20
							c1.1,0,2-0.9,2-2s-0.9-2-2-2h-2.2L89.6,34h9.6c2.1,0,3.8-1.7,3.8-3.8V8.8C103,6.7,101.3,5,99.2,5z M93.8,40
							c0,0.5-0.4,0.8-0.8,0.8H73c-0.5,0-0.8-0.4-0.8-0.8c0-0.5,0.4-0.8,0.8-0.8h20C93.4,39.1,93.8,39.5,93.8,40L93.8,40z M89.6,37.9
							H76.4l1.2-3.8h10.8L89.6,37.9z"/>
						<path id="Path" d="M98.4,24.7c0.3,0,0.6-0.3,0.6-0.6V9.6C99,9.3,98.7,9,98.4,9H66.6C66.3,9,66,9.3,66,9.6v18.8
							c0,0.3,0.3,0.6,0.6,0.6h31.8c0.3,0,0.6-0.3,0.6-0.6v-2c0-0.3-0.3-0.6-0.6-0.6c-0.3,0-0.6,0.3-0.6,0.6v1.4H67.2V10.2h30.7v14
							C97.8,24.4,98.1,24.7,98.4,24.7z"/>
						<path d="M82.9,30.2c-0.1-0.2-0.3-0.3-0.5-0.2c-0.2,0-0.4,0.2-0.4,0.4c0,0.5,0.5,0.7,0.8,0.4C83,30.7,83,30.4,82.9,30.2
							L82.9,30.2z"/>
					</g>
				</g>
			</g>
		</g>
	</g>
</g>
<g transform="translate(-1 -1)">
	<g>
		<g>
			<path d="M41,23c1.1-6-0.7-14.4-7.3-18.3c-4.2-2.3-9.1-3-13.7-1.7C13.5,4.7,8.8,9.3,7.3,15.3c-0.3,1.2-0.5,2.5-0.4,3.7
				c0.1,0.8,0.2,1.6,0.4,2.3c0.3,1,0.4,2,0.4,3c0,1.2-0.9,2.4-1.6,3.5C5.3,29,4.7,30,5.1,31c0.4,0.6,1,1.1,1.8,1.1c0,0,0.1,0,0.1,0
				c0.2,0,0.4,0,0.5,0.2c0.1,0.1,0.2,0.3,0.2,0.5c0,1.5,0,2.2,0.6,2.6c-0.1,0.1-0.1,0.2-0.1,0.4c-0.1,0.4,0.1,0.8,0.4,1.1
				c0.3,0.3,0.7,0.5,1.1,0.6c0,0,0.1,0,0.1,0c0,0.1,0,0.2,0,0.3c0,0.3,0,0.5-0.1,0.8c-0.1,1.1-0.3,2.7,2,3.4
				c0.5,0.1,0.9,0.2,1.4,0.2c2.2-0.1,4.3-0.5,6.3-1.2c0.6,1,0.9,2.2,1,3.4c0,0.2,0.1,0.4,0.2,0.5c0.1,0.1,0.3,0.2,0.5,0.2h17.8
				c0.3,0,0.6-0.2,0.7-0.5c0.1-0.3,0-0.6-0.3-0.8c-0.7-0.6-3.2-6.5-3.3-8.6c0.2-0.5,0.5-1,0.8-1.7C39,30.3,40.3,26.7,41,23z
				 M34.9,35.1c0,1.7,1.6,6.2,2.9,8.5H22c-0.2-1.1-0.5-2.1-1-3.1c2.1-0.8,3.9-1.8,4.8-3c0.2-0.3,0.2-0.8-0.1-1
				c-0.3-0.2-0.8-0.2-1,0.1c-2,2.6-10.4,4.6-12.3,4c-1.2-0.4-1.1-0.8-1-1.9c0-0.3,0.1-0.6,0.1-0.9c0-1.2-0.5-1.6-1.2-1.7
				c-0.1,0-0.3-0.1-0.4-0.1c0.1-0.1,0.3-0.2,0.5-0.3c0.3-0.1,0.5-0.5,0.4-0.8s-0.4-0.6-0.7-0.6c-0.3,0-0.5,0-0.7,0
				c0-0.5-0.1-0.9,0-1.4c0-0.6-0.2-1.1-0.6-1.5c-0.4-0.4-0.9-0.6-1.5-0.6c-0.5-0.1-0.7-0.2-0.7-0.3c-0.1-0.2,0.6-1.3,1-1.8
				c0.8-1.2,1.8-2.7,1.8-4.3c0-0.9-0.1-1.8-0.3-2.6c0.8-0.7,1.7-1.2,2.7-1.5c0.4-0.1,0.7,0,1.1,0.1c0.4,0.1,0.8-0.1,0.9-0.5
				c0.1-0.4-0.1-0.8-0.5-0.9c-0.6-0.2-1.2-0.2-1.7-0.1c-1,0.3-1.9,0.7-2.8,1.4c-0.1-0.4-0.2-0.8-0.2-1.3c0-1.1,0.1-2.2,0.4-3.3
				C10,10,14.3,5.9,20.3,4.3c4.3-1.1,8.8-0.6,12.6,1.6c6,3.6,7.7,11.3,6.7,16.8c-0.6,3.6-1.9,7-3.7,10.1c-0.4,0.7-0.7,1.4-1,1.9
				C34.9,34.9,34.8,35,34.9,35.1z"/>
			<path d="M36.3,24.6c0.1-1.1-0.7-2.1-1.7-2.3l-1.4-1.9c0.1-0.2,0.1-0.3,0.2-0.5l1.3-0.5c0.6,0.7,1.6,0.9,2.4,0.6
				c0.8-0.4,1.4-1.2,1.3-2.2c-0.1-0.9-0.8-1.7-1.7-1.9l-1.1-2.1c0.8-0.8,0.8-2,0.2-2.8c-0.7-0.8-1.8-1.1-2.8-0.5l-1.2-1
				C32,9.3,32,9,32,8.8c0-0.9-0.5-1.7-1.3-2c-0.8-0.3-1.7-0.1-2.3,0.5l-2.1-0.5c-0.3-0.9-1.1-1.6-2-1.6c-1,0-1.8,0.6-2.1,1.5
				l-2.8,0.6c-0.7-0.8-2-0.9-2.8-0.3c-0.9,0.6-1.1,1.8-0.6,2.8l-1.4,1.8c-1,0.2-1.7,1-1.8,2s0.6,1.9,1.6,2.1l1.1,2.8
				c-0.6,0.6-0.8,1.6-0.5,2.4c0.3,0.8,1.2,1.3,2,1.3c0.9,0,1.6-0.6,1.9-1.4h3.8c0.3,1,1.3,1.6,2.3,1.4l2.4,3.6
				c-0.6,0.7-0.7,1.7-0.3,2.4c0.4,0.8,1.3,1.2,2.2,1.1c0.9-0.1,1.6-0.8,1.8-1.7l1.8-1.4c0.3,0.2,0.7,0.3,1.1,0.3
				C35.2,26.6,36.2,25.7,36.3,24.6z M36.3,17.3c0.4,0,0.7,0.3,0.7,0.6c0,0.4-0.2,0.7-0.5,0.8c-0.3,0.1-0.7-0.1-0.8-0.4c0,0,0,0,0,0
				l0,0c0-0.1-0.1-0.2-0.1-0.3C35.6,17.6,35.9,17.3,36.3,17.3z M33.4,12.2c0.1-0.3,0.4-0.6,0.7-0.6c0.4,0,0.7,0.3,0.7,0.7
				S34.5,13,34.1,13c-0.1,0-0.2,0-0.3-0.1l0,0c0,0,0,0,0,0C33.5,12.8,33.4,12.5,33.4,12.2z M32.7,13.9L32.7,13.9l-1.3,3.3l-2.3-1.8
				c0.3-0.3,0.5-0.6,0.7-1l2.8-0.6C32.6,13.8,32.7,13.9,32.7,13.9z M32,19.6c-0.1,0.3-0.4,0.6-0.8,0.5c-0.4,0-0.6-0.3-0.6-0.7
				c0-0.4,0.3-0.7,0.7-0.7c0.1,0,0.2,0,0.3,0.1l0,0c0,0,0,0,0,0C31.9,18.9,32.1,19.3,32,19.6z M29.9,8c0.4,0,0.7,0.3,0.7,0.7
				s-0.3,0.7-0.7,0.7s-0.7-0.3-0.7-0.7C29.2,8.4,29.5,8,29.9,8z M26.1,8.2l1.6,0.4c0,0.1,0,0.1,0,0.2c0,1.2,1,2.1,2.1,2.1
				c0.4,0,0.8-0.1,1.1-0.3l1.2,1c-0.1,0.2-0.1,0.5-0.1,0.7c0,0,0,0.1,0,0.1l-2.3,0.5c-0.3-0.7-0.9-1.2-1.6-1.3L25.5,9
				C25.7,8.8,26,8.5,26.1,8.2z M28.4,13.7c0,0.4-0.3,0.7-0.7,0.7c-0.4,0-0.7-0.3-0.7-0.7c0-0.4,0.3-0.7,0.7-0.7
				C28.1,13,28.4,13.3,28.4,13.7z M24.2,6.6c0.4,0,0.7,0.3,0.7,0.7c0,0.4-0.3,0.7-0.7,0.7c-0.4,0-0.7-0.3-0.7-0.7
				C23.5,6.9,23.8,6.6,24.2,6.6z M24.3,9.9l2.1,2.1c-0.3,0.3-0.6,0.6-0.7,1H24c-0.2-0.5-0.5-0.9-0.9-1.1L24.3,9.9z M19.9,8.6
				l2.3-0.5c0.2,0.4,0.5,0.8,0.9,1l-1.3,2.2l-2.2-1.4c0.2-0.3,0.3-0.7,0.3-1.1C19.9,8.7,19.9,8.7,19.9,8.6z M22.7,13.7
				c0,0.4-0.3,0.7-0.7,0.7c-0.4,0-0.7-0.3-0.7-0.7c0-0.4,0.3-0.7,0.7-0.7C22.4,13,22.7,13.3,22.7,13.7z M17.8,8
				c0.4,0,0.7,0.3,0.7,0.7s-0.3,0.7-0.7,0.7c-0.4,0-0.7-0.3-0.7-0.7C17,8.4,17.4,8,17.8,8z M17,10.7c0.4,0.2,0.9,0.2,1.4,0.1
				l2.2,1.4c-0.2,0.2-0.4,0.5-0.5,0.8h-3.1c-0.2-0.4-0.5-0.8-0.8-1.1L17,10.7z M14.9,14.4c-0.4,0-0.7-0.3-0.7-0.7
				c0-0.4,0.3-0.7,0.7-0.7c0.4,0,0.7,0.3,0.7,0.7S15.3,14.4,14.9,14.4z M17,20.9c-0.4,0-0.7-0.3-0.7-0.7c0-0.4,0.3-0.7,0.7-0.7
				c0.4,0,0.7,0.3,0.7,0.7C17.8,20.5,17.4,20.9,17,20.9z M17.5,18c-0.1,0-0.3,0-0.4,0c-0.1,0-0.1,0-0.2,0l-1-2.4
				c0.5-0.2,0.9-0.7,1-1.2H20c0.1,0.4,0.4,0.7,0.6,0.9L17.5,18z M22.9,19.4h-3.8c-0.1-0.2-0.2-0.4-0.3-0.6l3.5-2.9l1.2,2.7
				C23.2,18.8,23,19.1,22.9,19.4z M24,14.4h1.7c0.2,0.5,0.5,0.9,0.9,1.1L25.2,18c-0.1,0-0.2,0-0.3,0c-0.1,0-0.1,0-0.2,0l-1.2-2.7
				C23.7,15.1,23.9,14.8,24,14.4z M24.9,20.9c-0.4,0-0.7-0.3-0.7-0.7c0-0.4,0.3-0.7,0.7-0.7c0.4,0,0.7,0.3,0.7,0.7
				C25.6,20.5,25.3,20.9,24.9,20.9z M27.9,16.2l2,1.6c-0.3,0.3-0.5,0.6-0.7,1l-2.4,0.5c-0.1-0.2-0.2-0.4-0.4-0.6L27.9,16.2z
				 M29.2,28c-0.4,0-0.7-0.3-0.7-0.7s0.3-0.7,0.7-0.7s0.7,0.3,0.7,0.7C29.9,27.7,29.5,28,29.2,28z M32,24.4c0,0.2,0,0.5,0.1,0.7
				l-1.2,1c-0.4-0.7-1.3-1.1-2.1-0.9l-2.4-3.6c0.2-0.2,0.4-0.5,0.5-0.8l2.4-0.5c0.5,1.1,1.7,1.6,2.8,1.1l0.9,1.2
				C32.4,23,32,23.7,32,24.4z M32.7,17.8l1.4-3.4c0,0,0.1,0,0.1,0c0.1,0,0.2,0,0.3,0l0.9,1.7c-0.7,0.4-1.1,1.1-1.1,1.9
				c0,0,0,0.1,0,0.1l-1,0.4C33.1,18.2,32.9,18,32.7,17.8z M34.1,25.1c-0.4,0-0.7-0.3-0.7-0.7c0-0.4,0.3-0.7,0.7-0.7
				c0.4,0,0.7,0.3,0.7,0.7S34.5,25.1,34.1,25.1z"/>
		</g>
	</g>
</g>
</svg>
